<?xml version="1.0" encoding="UTF-8" standalone="no"?>
<!DOCTYPE svg PUBLIC "-//W3C//DTD SVG 1.1//EN" "http://www.w3.org/Graphics/SVG/1.1/DTD/svg11.dtd">
<svg width="100%" height="100%" viewBox="0 0 629 270" version="1.1" xmlns="http://www.w3.org/2000/svg" xmlns:xlink="http://www.w3.org/1999/xlink" xml:space="preserve" xmlns:serif="http://www.serif.com/" style="fill-rule:evenodd;clip-rule:evenodd;stroke-linejoin:round;stroke-miterlimit:2;">
    <g transform="matrix(1,0,0,1,-97.7815,-149.5)">
        <g id="Lag_4">
            <path d="M219.72,283C227.56,288.17 236.28,285.97 239.67,284.73C247.62,281.83 261.88,274.18 271.54,268.34C270.39,272.11 270.6,275.96 272.18,279.47L272.68,280.43C272.78,280.6 272.89,280.77 273,280.95C267.18,280.66 261.64,283.23 258.02,286.18C252.1,291.02 249.51,298.1 251.25,304.64C252.01,307.49 253.38,310 255.25,311.99C247.19,326.31 231.96,351.25 220.59,367.37C211.64,358.54 198.48,356.39 187.57,358.67C169.92,362.35 158.26,376.06 159.22,392.01C159.86,402.66 165.5,411.23 174.69,415.51C179.02,417.53 183.93,418.55 189.29,418.55C189.5,418.55 189.72,418.55 189.94,418.54C199.7,418.39 210.96,414.26 220.06,407.49C229.4,400.54 244.21,379.84 256.05,362.31C257.63,363.18 259.43,363.87 261.45,364.39C260.58,374.97 261.08,392.57 269.56,400.66C275.49,406.31 286.12,412.21 303.12,408.26C308.3,407.05 312.97,405.75 317.27,404.29C323.63,408.24 331.7,409.64 340.45,408.22C347.14,407.14 353.5,405.32 359.45,402.8C363.7,406.86 371.12,408.56 381.85,403.51C383.22,402.87 384.77,401.98 386.29,401.05C388.69,403.09 392.1,404.52 397.34,404.55L397.64,404.55C401.11,404.53 403.92,403.74 406.45,402.88C412.91,400.68 418.99,397.28 424.54,393.59C425.1,394.65 425.77,395.67 426.54,396.62C427.99,398.67 429.93,400.4 432.46,401.9C435.3,403.59 438.62,404.51 442.91,404.81L444.47,404.83C452.32,404.83 459.14,402.16 464.18,397.12C464.46,396.84 464.73,396.55 465,396.25C466.81,399.1 469.31,401.47 472.38,403.17C490.98,413.5 509.53,398.02 518.93,387.87C520.15,386.55 521.31,385.23 522.39,383.92C522.37,387.58 523.04,391.13 524.42,394.44C526.65,399.8 531.01,403.75 536.7,405.58C538.98,406.31 541.57,406.68 544.38,406.68C555.19,406.68 569.01,401.1 580.56,395.23C581.34,396.69 582.26,398.05 583.28,399.27C589.16,406.26 596.25,409.37 607,409.68L607.22,409.69L607.44,409.68C618.38,409.3 628.53,405.48 637.59,398.32C643.65,393.54 652.56,382.5 656.11,377.97C661.31,371.34 666.07,364.76 668.98,360.65C672.2,360.96 675.72,360.23 679.14,357.82C679.32,357.95 679.49,358.1 679.64,358.25C679.76,358.37 679.84,358.46 679.89,358.52C679.9,358.57 679.9,358.63 679.91,358.71C678.65,360.56 675.41,364.25 673.56,366.35C672.49,367.57 671.48,368.72 670.64,369.71C665.84,375.39 656.91,385.96 662.5,397.78C666.5,406.25 676.78,409.53 690,406.58C703.06,403.66 715.19,394.81 717.46,392.56C725.07,385.03 721.74,378.01 719.08,374.5C716.87,371.58 713.51,369.68 709.86,369.29C707.55,369.04 705.28,369.39 703.24,370.29C704.77,367.58 706,364.61 706.36,361.6C707.38,353.17 705.36,346.75 699.65,340.66C704.04,336.13 708.94,330.42 713.1,324.91C725.93,307.92 725.92,300.92 725.92,298.62C725.91,291.84 722.2,286.13 715.99,283.34C706.41,279.04 696.27,287.43 687.62,296.22C679.05,304.93 668.12,318.15 649.9,341.86C646.5,346.28 643.7,350.14 641.22,353.59C640.94,349.71 639.36,346.1 636.66,343.27C633.07,339.5 628.05,337.46 622.14,337.36L621.79,337.36C612.16,337.36 601.28,342.63 591.88,351.88C591.35,352.4 590.84,352.92 590.34,353.44C590.19,352.62 590,351.82 589.76,351.03C585.84,338.22 572.91,334.56 562.74,337.61C553.37,340.42 542.27,348.16 534.22,357.33C533.98,357.32 533.75,357.32 533.51,357.31C533.47,356.86 533.41,356.41 533.34,355.97C532.6,351.41 530.28,347.34 526.78,344.36C546.09,331.5 567.3,308.34 569.95,295.35C571.09,289.76 569.61,284.43 565.9,280.72C562.75,277.56 558.41,275.92 553.62,276.09C545.79,276.46 530.75,282.53 490.71,330.82C484.19,338.68 479.09,345.49 475.09,351.45C475.09,349.8 474.8,348.15 474.16,346.55C472.9,343.41 470.55,340.91 467.53,339.47C463.39,337.32 458.04,337.72 454.41,340.48C454.02,340.78 453.41,341.25 452.66,341.83C450.13,343.79 445.43,347.45 442.87,349.14L442.77,349.21C442.65,349.29 434.96,354.53 427.26,359.81C428.02,358.88 428.61,358.14 428.97,357.65C430.97,355.1 431.99,351.93 431.85,348.71C431.7,345.06 430.06,341.7 427.33,339.43C424.53,336.95 420.77,335.75 417,336.13C413.44,336.49 410.25,338.29 408.25,341.06C406.16,343.95 393.97,357.52 384.17,367.58C384.38,366.63 384.58,365.78 384.88,364.6L385.06,363.89C385.81,360.97 386.4,358.66 386.78,356.19C387.32,352.65 387.26,349.62 386.6,346.94C385.7,343.31 383.71,340.32 380.68,338.06L380.47,337.91C377.92,336.14 375.04,335.2 372.16,335.2L372.13,335.2C370.2,335.2 368.28,335.51 366.47,336.1C365.06,336.56 363.42,337.14 361.78,338.19C361.15,338.6 361.15,338.59 359.92,339.47L359.77,339.58C358.08,340.85 356.73,342.47 355.79,344.31C354.63,343.31 353.36,342.42 351.99,341.69C345.47,338.17 337.66,337.94 330,341.04C328.11,341.8 326.26,342.77 324.46,343.92C333.41,333.55 337.68,319.04 334.43,307.26C330.75,293.89 319.87,285.37 304.38,283.55C305.47,282.99 306.62,282.35 307.87,281.62C313.75,278.2 321.31,270.61 331.93,257.39C332.28,257.73 332.64,258.07 333.02,258.4C329.41,265.85 326.44,276.79 337.19,283.91C345.05,289.12 356.52,289.64 370.21,285.66C373.5,287.87 377.87,289.09 383.08,289.22C388.16,289.35 393.85,288.43 398.68,286.7C400.78,285.95 402.85,285.03 404.86,283.96C407.45,286.42 411.12,288.18 416.7,288.21C420.29,288.23 423.19,287.42 425.77,286.54C432.23,284.34 438.31,280.94 443.86,277.25C444.42,278.31 445.09,279.32 445.86,280.28C447.31,282.33 449.25,284.06 451.78,285.56C454.62,287.25 457.94,288.17 462.23,288.47L463.79,288.49C471.64,288.49 478.46,285.82 483.51,280.77C489.76,274.52 492.81,265.89 492.57,255.11C492.56,254.74 492.53,253.94 492.48,252.9C492.38,250.81 492.15,245.93 492.22,244.57C492.29,243.33 492.6,242 493.13,240.71C494.72,237.37 494.85,233.66 493.47,230.22C492.21,227.08 489.87,224.58 486.85,223.15C483.43,221.35 479.47,221.21 475.96,222.77C472.9,224.13 470.43,226.58 469.03,229.65C468.88,229.98 468.73,230.32 468.58,230.66C466.29,230.8 464.07,231.55 462.07,232.88C461.95,232.96 454.27,238.19 446.59,243.45C447.85,242.01 449.28,240.42 451.02,238.52L451.32,238.17C453.38,235.6 454.44,232.38 454.3,229.1C454.15,225.46 452.51,222.09 449.79,219.82C444.33,214.98 436.23,215.39 431.24,220.8L431.14,220.91C429.07,223.26 427.21,225.37 425.58,227.24C423.93,229.13 422.06,231.31 419.97,233.77C419.88,233.87 419.8,233.97 419.71,234.07C420.03,231.08 419.49,228.15 418.09,225.35L417.97,225.12C416.47,222.38 414.31,220.25 411.73,218.96C410,218.1 408.15,217.51 406.26,217.23C404.79,217.01 403.06,216.79 401.13,217C400.39,217.08 400.39,217.08 398.9,217.31L398.72,217.34C395.36,217.96 392.38,219.77 390.35,222.44C389.21,223.92 388.43,225.58 388.01,227.33C387.39,227.39 386.82,227.41 385.81,227.4C384.75,223.76 382.9,220.35 380.31,217.31C395.88,203.92 403.91,192.74 404.19,184.03C404.41,177.25 400.9,171.42 394.79,168.42C390.21,166.17 382.49,164.55 368.35,176.48C359.44,184 347.87,196.56 330.83,217.21C324.84,224.46 320.2,230.22 316.1,235.29C313.18,238.91 310.48,242.25 307.71,245.62C307.15,244.14 306.44,242.72 305.59,241.39C304.78,240.13 303.33,238.45 301.81,236.89C302.44,233.93 302.11,231.31 301.6,228.44L301.57,228.28C300.34,222.13 296.76,217.37 291.49,214.88C287.26,212.89 282.91,212.2 278.47,212.85C276.5,213.16 274.61,213.75 272.84,214.6C272.25,213.48 271.52,212.46 270.63,211.57C268.93,209.87 266.96,208.7 264.81,208.07C255.19,208.11 248.07,213.98 249.31,213.97C248.1,215.15 246.74,216.49 245.82,217.44C243.76,219.55 242.57,222.64 242.45,226.03C239.3,226.6 236.56,228.27 234.61,230.81C234.26,231.21 233.7,231.84 232.96,232.7C232.18,233.6 231.89,234 231.54,234.5C231.36,234.75 231.15,235.07 230.4,236C228.55,238.33 226.55,241 224.45,243.94C222.26,247 220.25,250.13 218.46,253.23C217.86,254.21 217.18,255.46 216.33,257.15C216.14,257.67 213.65,278.99 219.72,283ZM129.74,276.21C129.75,276.21 129.75,276.21 129.76,276.22L129.77,276.22C129.76,276.22 129.75,276.21 129.74,276.21ZM129.88,276.27C129.88,276.26 129.88,276.26 129.88,276.27C129.9,276.27 129.92,276.28 129.95,276.3C129.93,276.28 129.91,276.28 129.88,276.27ZM158.76,247.03C158.74,247.05 158.78,247.01 158.83,246.96C158.81,246.98 158.78,247 158.76,247.03ZM263.69,242.17C262.99,242.65 259.27,244.96 255.04,247.56C255.06,247.53 255.08,247.51 255.1,247.48C257.01,245.3 258.05,242.55 258.12,239.67C258.66,239.57 259.2,239.45 259.73,239.29C261.06,238.89 262.23,238.34 263.27,237.67C263.55,238.88 263.98,240.14 264.69,241.47C264.35,241.7 264.02,241.94 263.69,242.17ZM185.91,391.38C185.86,391.2 185.81,390.9 185.78,390.43C185.61,387.57 189.9,385.38 193.01,384.73C193.92,384.54 194.84,384.44 195.76,384.42C199.22,384.38 201.58,385.45 202.82,387.64C196.63,391.59 188.68,392.67 185.91,391.38ZM279.37,323.59C281.38,319.51 283.37,315.17 284.88,311.63C289.09,310.25 293.96,309.14 299.47,309.41C307.35,309.81 308.21,312.82 308.49,313.81C309.53,317.46 306.06,325.96 301.22,329.32C298.53,331.19 294.62,333.37 290.26,335.05C288.33,330.18 284.66,326.3 279.37,323.59ZM305.79,368.35C304.49,372.4 303.91,376.53 304.05,380.54C301.88,381.16 299.57,381.76 297.08,382.34C294,383.06 290.05,383.53 288.72,381.75C287.69,380.12 286.7,372.66 288.31,363.48C298.86,360.99 308.88,356.08 315.19,351.99C311.03,356.74 307.7,362.42 305.79,368.35ZM509.32,350.96L509.3,350.13C509.43,349.97 509.57,349.8 509.7,349.64L509.8,350.93C509.63,350.94 509.47,350.95 509.32,350.96ZM603.55,381.92C603.61,381.04 604.18,378.89 606.27,375.88C606.73,376.64 607.28,377.37 607.9,378.04C609.46,379.72 611.38,380.94 613.51,381.63C609.07,383.31 605.22,383.19 603.55,381.92ZM709.2,382.92L709.2,382.92Z" style="fill:rgb(255,236,0);fill-rule:nonzero;"/>
            <g>
                <path d="M122.22,294.32C115.54,294.32 110.46,293.04 106.68,290.4C103,287.83 100.43,284.66 99.04,280.99C97.32,276.72 97.35,271.66 99.21,266.53C100.7,262.39 103.26,258.5 106.81,254.97C109.47,252.47 112.4,250.36 115.67,248.54C118.97,246.71 122.49,245.28 126.16,244.31C129.91,243.31 133.83,242.83 137.88,242.9C142.3,242.98 146.65,243.94 150.83,245.77C151.47,246.01 152.2,246.3 152.95,246.65C158.39,242.53 197.77,194.97 201.02,189.89C199.92,189.34 198.92,188.87 198.12,188.54C195.08,187.3 177.92,180.51 174.89,179.84C172.05,179.22 169.36,178.93 166.91,178.97C165.61,178.99 164.5,179.17 163.7,179.49C163.43,179.73 163.03,180.19 162.61,180.96C162.38,181.38 161.84,182.65 161.67,185.45C161.61,189.12 160.08,192.63 157.34,195.35C154.55,198.13 150.86,199.66 146.96,199.66L144.86,199.49C141.43,198.87 138.4,197.24 136.08,194.78C133.3,191.83 131.95,187.94 132.27,183.83C132.55,177.28 134.04,171.46 136.73,166.55C139.59,161.32 143.64,157.15 148.77,154.15C154.57,150.9 160.83,149.36 167.64,149.51C173.29,149.63 178.88,150.4 184.25,151.81C189.4,153.16 208.23,160.65 212.49,162.6C216.48,164.43 219.31,165.81 221.38,166.94C221.68,167.09 222.01,167.27 222.35,167.47C227.87,162.99 233.41,159.95 238.84,158.43C246.38,156.31 253.84,157.73 260.41,162.53C265.82,166.52 269.2,171.86 270.21,177.97C271.21,184.07 269.74,190.2 265.95,195.68C264.12,198.32 261.87,200.6 259.25,202.47C256.55,204.4 253.52,205.8 250.24,206.64C246.93,207.48 243.41,207.67 239.76,207.18C237.1,206.83 232.69,205.46 228.25,203.68C228.03,203.94 227.79,204.23 227.51,204.57L225.94,206.44C221.55,211.64 185.36,255.35 183.25,257.67C185.08,257.68 187.19,257.68 188.64,257.68C191.24,257.68 193.48,257.69 194.1,257.73L194.11,257.73C195.02,257.73 201.06,257.4 205.06,257.18C210.65,256.87 213.21,256.74 214.21,256.74C218.34,256.74 222.17,258.39 224.99,261.39C227.62,264.17 229.07,267.83 229.07,271.67C229.07,275.64 228.16,280.17 224.73,282.13C211.12,289.94 173.26,289.07 157.09,281.4C154.43,283.23 150.73,285.69 147.82,287.33C139.52,291.96 130.91,294.32 122.22,294.32ZM146.64,258.87C146.64,258.88 146.64,258.88 146.65,258.89L146.64,258.87ZM242.59,178.79C242.62,178.81 242.66,178.83 242.69,178.85C242.66,178.83 242.62,178.81 242.59,178.79Z" style="fill:rgb(255,236,0);fill-rule:nonzero;"/>
                <path d="M260.94,181.59C260.25,177.16 257.9,173.64 254,170.74C249.24,167.23 244.09,166.23 238.71,167.75C233.89,169.11 227.9,172.39 222.75,176.77L217.7,173.8C215.81,172.76 213.04,171.41 209.22,169.66C205.36,167.9 186.95,160.56 182.25,159.32C177.47,158.07 172.5,157.38 167.46,157.28C162.05,157.16 157.17,158.36 152.73,160.85C148.84,163.13 145.77,166.29 143.6,170.26C141.47,174.15 140.28,178.93 140.08,184.31C139.9,186.29 140.5,188.08 141.81,189.47C142.98,190.72 144.47,191.51 146.25,191.83L146.95,191.88C148.78,191.88 150.46,191.18 151.79,189.85C153.13,188.52 153.84,186.86 153.83,185.2C154,181.9 154.64,179.23 155.71,177.26C156.77,175.31 158.11,173.81 159.56,172.84C161.5,171.79 163.92,171.24 166.76,171.2C169.86,171.15 173.16,171.51 176.56,172.25C180.03,173.01 197.62,179.94 201.08,181.35C204.63,182.8 210.24,185.97 213.07,187.64C212.25,188.58 212.22,188.52 211.44,189.55C205.27,197.65 163.27,249.17 155.98,254.52C155.14,255.2 154.27,255.74 153.65,256.17C152.26,255.22 149.48,253.59 147.83,252.98C144.55,251.52 141.16,250.75 137.73,250.69C134.46,250.64 131.22,251.02 128.15,251.84C125.11,252.65 122.19,253.83 119.47,255.34C116.76,256.85 114.37,258.56 112.32,260.48C109.6,263.19 107.65,266.12 106.55,269.17C105.34,272.53 105.27,275.61 106.34,278.26C107.16,280.44 108.78,282.39 111.15,284.04C113.57,285.73 117.18,286.55 122.19,286.55C129.52,286.55 136.83,284.53 143.94,280.55C148.63,277.92 155.9,272.69 155.9,272.69C155.9,272.69 164.32,277.31 176.39,278.92C192.16,281.02 216.52,278.42 218.98,278.42C220.91,278.42 222.64,277.72 223.97,276.39C225.31,275.06 226.01,273.35 226.01,271.43C226.01,269.55 225.33,267.83 224.04,266.47C222.7,265.04 220.94,264.13 218.98,264.29C201.24,265.77 174.91,267.25 167.53,262.62C175.83,256.58 216.15,206.34 219.9,201.46L225.35,194.65C229.98,197.34 235.04,198.9 240.62,198.88C247.16,198.86 251.12,198.02 254.96,195.28C258.92,192.46 261.73,186.66 260.94,181.59ZM137.51,268.96C133.14,271.93 120.56,274.9 119.9,272.72C119.52,271.45 124.67,268.4 126.3,267.44C127.92,266.48 129.65,265.73 131.44,265.21C134.82,264.22 138.83,264.11 142,265.45C142.07,265.49 142.15,265.52 142.22,265.55C141.23,266.58 138.77,268.1 137.51,268.96ZM245.73,184.19C244.17,184.73 241.43,185.09 238.47,184.24C241.04,182.11 242.88,181.22 245.26,181.64C247.62,182.06 247.29,183.65 245.73,184.19Z" style="fill:rgb(230,27,114);fill-rule:nonzero;"/>
                <path d="M223.16,178.8C223.16,178.8 218.27,175.93 216.99,175.29C215.09,174.24 212.36,172.91 208.56,171.17C204.79,169.45 186.46,162.14 181.84,160.92C177.19,159.7 172.33,159.03 167.42,158.93C162.31,158.8 157.74,159.92 153.5,162.3C149.89,164.41 147.01,167.38 144.98,171.1C142.97,174.78 141.85,179.28 141.65,184.46C141.5,186.09 141.94,187.43 142.96,188.5C143.9,189.5 145.1,190.14 146.54,190.39L147.08,190.42C148.38,190.42 149.67,189.87 150.71,188.84C151.73,187.82 152.3,186.56 152.29,185.3C152.48,181.68 153.17,178.79 154.36,176.61C155.51,174.5 157.01,172.79 158.71,171.64C161.01,170.39 163.67,169.78 166.76,169.73C169.92,169.68 173.35,170.04 176.92,170.81C180.48,171.59 198.15,178.54 201.7,179.99C205.28,181.45 208.15,182.81 211.2,184.61L226.73,193.16C226.73,193.16 233.72,197.35 240.87,197.21C248.02,197.07 250.75,196.05 254.05,194.05C257.35,192.05 260.01,185.73 259.35,181.95C258.69,178.17 256.59,174.77 253.05,172.14C248.71,168.95 244.05,168.03 239.16,169.41C236.42,170.18 233.58,171.49 230.69,173.32C233.67,175.35 237.82,178.33 241.31,180.72C244.1,179.51 245.49,179.92 246.77,180.53C248.31,181.27 248.98,182.39 248.42,184.22C247.85,186.05 244.47,187.21 237.86,185.52C231.24,183.83 222.46,178.45 222.46,178.45C222.46,178.45 217.41,175.46 216.09,174.8" style="fill:rgb(235,156,195);fill-rule:nonzero;"/>
                <g>
                    <g>
                        <path d="M246.65,170.03C245.69,169.72 244.64,169.59 243.63,169.65C242.62,169.7 241.67,169.97 240.75,170.38C240.46,170.51 240.67,171.21 240.72,171.36C240.9,171.88 241.29,172.42 241.66,172.82C242.05,173.24 242.49,173.68 243.01,173.91C243.14,173.96 243.27,174.01 243.41,174.06C243.62,174.13 243.81,174.11 243.99,173.99C244.02,173.98 244.05,173.97 244.07,173.95C243.99,173.98 243.91,174.02 243.82,174.05C244.96,173.57 246.2,173.38 247.43,173.48C247.32,173.47 247.21,173.46 247.1,173.45C247.65,173.5 248.2,173.61 248.72,173.78C249.01,173.87 249.33,173.79 249.43,173.47C249.54,173.11 249.27,172.54 249.11,172.26C248.58,171.34 247.71,170.37 246.65,170.03Z" style="fill:white;fill-rule:nonzero;"/>
                    </g>
                </g>
                <g>
                    <path d="M216.72,266C199.21,267.24 183.77,268.3 171.51,265.84C168.09,268.95 162.39,273.87 162.39,273.87C174.86,279.37 200.86,278.06 217.62,276.94L216.72,266ZM145.27,265.24C145.27,265.24 140.56,269.22 139.3,269.97C133.56,273.39 128.45,275.12 122.85,275.12C121.83,275.12 118.74,275.07 117.92,273.87C116.56,271.88 123.07,267.32 125.5,266.19C127.89,265.09 129.08,264.36 131,263.8C135.03,262.62 139.45,262.48 142.68,264.12L150.76,256.22C148.95,255.13 148.01,254.91 147.09,254.41C144.12,253.09 140.93,252.37 137.72,252.31L137.19,252.31C134.22,252.31 131.33,252.68 128.58,253.41C125.67,254.18 122.87,255.31 120.25,256.77C117.65,258.22 115.35,259.87 113.41,261.69C110.88,264.21 109.07,266.94 108.04,269.77C106.96,272.76 106.88,275.45 107.81,277.76C108.53,279.68 109.96,281.38 112.07,282.85C114.21,284.35 117.53,285.07 122.21,285.07C129.26,285.07 136.32,283.12 143.19,279.27C147.79,276.69 152.43,273.55 156.98,269.93L158.71,268.55L164.78,263.18L166.46,261.57C171.82,256.44 177.13,250.74 182.24,244.63C188.39,237.27 199.58,223.79 205.34,216.58C209.86,211.09 217.79,201.6 222.2,196.37L210.18,193.33C205.59,198.83 201.74,203.83 196.92,209.96C191.42,216.82 180.54,229.92 174.72,236.88C168.91,243.84 162.96,250.17 157.04,255.71C155.64,257.02 154.23,258.28 152.83,259.48L145.27,265.24Z" style="fill:rgb(235,156,195);fill-rule:nonzero;"/>
                    <g>
                        <g>
                            <path d="M164.52,160.3C161.75,160.61 159.13,161.54 156.73,162.95C155.77,163.51 155.29,165.08 156,166C156.34,166.44 156.83,166.77 157.4,166.82C158.03,166.87 158.56,166.69 159.11,166.37C159.31,166.25 159.52,166.14 159.73,166.02C159.55,166.12 159.36,166.22 159.18,166.31C160.36,165.68 161.61,165.2 162.9,164.87C162.71,164.92 162.51,164.97 162.32,165.02C163.08,164.83 163.85,164.69 164.64,164.6C165.23,164.53 165.85,164.18 166.24,163.74C166.59,163.34 166.88,162.7 166.84,162.15C166.75,160.94 165.73,160.17 164.52,160.3Z" style="fill:white;fill-rule:nonzero;"/>
                        </g>
                    </g>
                    <path d="M133.7,254.49C130.61,254.18 127.51,254.91 124.86,256.49C124.47,256.72 124.33,257.32 124.33,257.73C124.34,258.28 124.59,258.92 124.93,259.34C125.57,260.14 126.65,260.84 127.65,260.24C128.01,260.03 128.37,259.83 128.75,259.65C128.62,259.71 128.48,259.78 128.35,259.84C129.4,259.35 130.5,258.99 131.64,258.79C131.91,258.74 132.19,258.7 132.46,258.67C132.92,258.61 132.09,258.69 132.56,258.66C132.7,258.65 132.84,258.64 132.98,258.64C133.58,258.62 134.18,258.64 134.78,258.7C135.89,258.81 136.35,257.59 136.09,256.69C135.77,255.63 134.87,254.61 133.7,254.49Z" style="fill:white;fill-rule:nonzero;"/>
                </g>
            </g>
        </g>
        <g id="Lag_1">
            <path d="M544.39,399.7C542.37,399.7 540.5,399.46 538.85,398.93C535.1,397.73 532.35,395.25 530.9,391.76C529.01,387.23 528.91,382.14 530.56,376.85C526.82,376.71 523.15,376.44 519.68,376.03C517.81,378.59 515.76,381 513.8,383.12C496.08,402.25 483.35,401.26 475.78,397.06C472.12,395.03 469.77,391.72 468.97,387.5C467.69,380.68 469.1,367.84 496.09,335.3C531.38,292.74 547.03,283.42 553.94,283.1C556.69,283 559.15,283.89 560.94,285.69C562.13,286.88 563.98,289.53 563.08,293.98C560.51,306.6 531.8,336.64 511.32,344.91C510.87,345.09 510.4,345.22 509.94,345.29C512.74,345.31 516.11,346.02 520.02,348.18C523.53,350.12 525.81,353.29 526.43,357.11C526.79,359.33 526.57,361.65 525.93,363.99C529.56,364.24 533.48,364.38 537.45,364.41C544.98,354.84 556.35,346.86 564.74,344.34C574.13,341.52 581.07,346.62 583.06,353.11C585.37,360.66 581.36,370.46 570.65,373.81C565.97,375.27 555.67,376.53 544.22,376.89C543.98,377.32 543.76,377.76 543.56,378.19C541.92,381.66 541.58,384.59 542.54,386.91C546.13,389.3 567.01,382.45 588.07,368.37C590.96,366.44 594.88,367.21 596.82,370.11C598.76,373.01 597.98,376.92 595.08,378.86C589.22,382.78 561.32,399.7 544.39,399.7ZM496.96,354.53C481.28,375.44 481,383.14 481.38,385.17C481.5,385.8 481.66,385.89 481.92,386.03C489.07,390 500.13,379.33 504.56,374.55C505.02,374.05 505.46,373.57 505.88,373.09C502.66,371.92 500.17,370.44 498.75,368.62C495.75,364.77 495.19,359.26 496.96,354.53ZM569.89,356.15C569.52,356.15 569.03,356.23 568.37,356.42C565.19,357.37 560.53,360.05 556.01,363.66C560.42,363.22 564.22,362.6 566.89,361.76C570.64,360.59 571.4,358.09 571,356.8C570.94,356.61 570.8,356.15 569.89,356.15ZM508.66,360.76C509.56,361.37 511.12,361.91 513.18,362.37C513.82,360.89 514.05,359.83 514,359.27C511.69,358 509.81,357.6 509.22,358.19C508.59,358.83 508.48,360.17 508.66,360.76ZM505.19,344.1C504.19,345.31 503.23,346.5 502.31,347.64C503.86,346.59 505.98,345.61 508.66,345.35C507.4,345.29 506.19,344.85 505.19,344.1ZM548,298.23C546.49,296.77 530.19,315.4 523.24,322.89C529.61,317.55 549.51,299.69 548,298.23Z" style="fill:rgb(230,27,114);fill-rule:nonzero;"/>
            <path d="M502.41,344.75C501.78,345.57 497.78,350.93 494.81,354.87C479.53,375.35 479.34,382.69 479.86,385.46C480.07,386.57 480.53,387.03 481.16,387.38C488.97,391.72 499.87,381.86 505.68,375.6L515.94,378.33C514.79,379.73 513.67,381 512.67,382.08C495.63,400.47 483.61,399.65 476.53,395.72C473.28,393.92 471.19,390.98 470.49,387.22C468.57,377 477.33,360.34 497.28,336.29C513.07,317.25 541.43,285.23 554.02,284.65C556.96,284.49 558.81,285.74 559.86,286.78C560.83,287.75 562.34,289.93 561.58,293.67C559.11,305.79 530.58,336.24 510.75,343.48C504.69,345.69 500.68,337.86 508.76,334C513.19,331.89 512.67,332.43 519.24,327.72C533.65,317.39 552.77,298.68 550.23,296.13C547.64,293.52 535.54,306.7 519.24,325.33L517.86,326.74C517.86,326.74 511.51,331.28 507.4,332.85C503.03,334.49 500.1,339.98 502.41,344.75ZM529.07,375.26C525.56,375.1 522.13,374.83 518.91,374.43C514.62,373.9 512.35,373.45 508.48,372.39C504.53,371.22 501.51,369.67 499.95,367.66C496.43,363.13 496.79,355.69 500.74,351.06C502.34,349.18 508.42,343.52 519.28,349.51C522.41,351.24 524.36,353.95 524.91,357.34C525.15,358.85 525.09,360.42 524.79,362.02L515.2,361.31C515.5,360.29 515.6,359.47 515.5,358.86C515.45,358.57 515.4,358.26 514.68,357.86C513.49,357.21 511.68,356.38 510.13,356.38C509.29,356.38 508.54,356.62 507.99,357.26C506.82,358.63 506.84,361 507.48,361.82C508.41,362.74 510.77,363.52 514.05,364.14L523.86,365.37C527.05,365.63 530.5,365.8 534.04,365.88L529.07,375.26ZM555.75,365.01C559.6,364.57 564.91,364 567.35,363.24C572.16,361.74 573.05,358.22 572.48,356.35C572.07,355.03 571.06,354.61 569.93,354.61C569.27,354.61 568.57,354.75 567.93,354.95C563.65,356.23 557.07,360.28 551.39,365.59C548.48,368.69 543.71,374.08 542.16,377.54C540.41,381.46 539.97,384.77 541.11,387.51C541.22,387.76 541.36,388.12 542.23,388.39C548.91,390.53 568.59,381.73 583.23,373.5L580.88,385.68C569.97,391.35 554.52,398.19 544.51,398.19C542.61,398.19 540.86,397.97 539.32,397.47C536.01,396.41 533.59,394.23 532.32,391.18C530.35,386.46 530.49,381.04 532.71,375.4C534.39,370.49 535.91,369.45 538.23,365.96C545.56,356.44 557.04,348.27 565.19,345.83C574.03,343.19 579.88,347.99 581.59,353.57C583.68,360.4 579.99,369.28 570.19,372.35C566.82,373.4 558.66,374.45 550.8,375.02L555.75,365.01Z" style="fill:rgb(236,157,196);fill-rule:nonzero;"/>
            <path d="M189.82,411.55C185.53,411.62 181.36,410.9 177.64,409.17C170.75,405.96 166.69,399.72 166.2,391.6C165.46,379.2 174.83,368.48 189,365.53C200.56,363.12 214.38,366.53 220.56,379.23C233.32,362.83 256.5,324.77 264.5,309.71C263.91,309.54 263.32,309.32 262.74,309.02C261.11,308.18 258.96,306.43 258.01,302.85C256.97,298.93 258.62,294.73 262.45,291.61C265.85,288.83 271.62,286.47 276.65,288.97C277.65,289.47 279.44,290.61 280.68,292.82C286.26,291.15 293.11,289.81 301,290.28C315.27,291.14 324.65,298.01 327.71,309.13C331.07,321.32 323.97,337.57 312.43,345.43C306.33,349.59 294.31,355.63 282.44,357.52C282.09,358.94 281.76,360.38 281.5,361.82C279.62,372.11 280.35,382.25 283.09,385.91C285.83,389.57 290.65,391.04 298.67,389.17C303.67,388.01 307.97,386.77 311.76,385.45C310.6,380.82 310.8,375.64 312.45,370.5C315.59,360.72 323.7,351.16 332.64,347.55C338.34,345.25 344.04,345.36 348.69,347.87C353.18,350.29 355.9,354.94 356.35,359.95C356.97,366.74 353.24,373.68 346.63,378.98C342.23,382.5 338.07,386.26 333.36,389.17C334.76,389.2 336.09,389.07 337.3,388.88C354.05,386.17 363.07,378.2 363.16,378.12C365.74,375.8 369.72,375.99 372.06,378.55C374.39,381.11 374.24,385.07 371.69,387.42C371.22,387.85 360.04,397.98 339.32,401.33C330.87,402.69 323.56,400.97 318.39,396.47C313.59,398.28 308.07,399.93 301.52,401.46C288.56,404.47 280.07,401.03 274.38,395.61C267.01,388.58 267.59,367.77 269.09,359.56C269.16,359.19 269.23,358.82 269.3,358.45C264.25,358.23 260.06,357.17 257.61,354.92C256.51,353.91 255.57,352.78 254.82,351.57C246.58,363.96 226.41,394.04 215.87,401.89C208.97,407.01 199.13,411.41 189.82,411.55ZM195.65,377.42C194.25,377.44 192.87,377.6 191.58,377.87C185.13,379.22 178.38,383.85 178.8,390.84C179.07,395.35 181.17,396.89 182.97,397.72C189.01,400.54 200.63,398.06 208.35,392.32C209.48,391.48 210.7,390.4 212,389.11C211.05,388.4 210.29,387.42 209.86,386.23C207.39,379.55 201.32,377.34 195.65,377.42ZM340.72,358.27C339.53,358.27 338.32,358.64 337.35,359.04C331.89,361.3 326.52,367.45 324.58,373.68C323.95,375.69 323.72,377.7 323.85,379.54C329.34,376.47 333.85,372.97 338.83,368.91C342.37,366.02 344.01,362.37 343.8,360.26C343.73,359.6 343.54,359.16 342.7,358.72C342.09,358.4 341.41,358.27 340.72,358.27ZM265.86,345.24C267.1,346.5 269.17,346.16 272.13,345.7C273.64,340.58 267.14,338.87 265.51,341.31C265.01,342.05 264.62,343.97 265.86,345.24ZM269.34,327.7C271.2,327.9 273.17,328.43 275.2,329.36C282.82,332.82 284.87,338.32 284.85,343.96C292.58,342.34 300.2,338.56 305.21,335.08C312.15,330.26 317.19,318.81 315.22,311.9C313.15,304.64 305.97,302.74 299.83,302.43C291.79,302.03 284.98,304.09 279.61,306.07C277.51,311.33 272.89,321.39 269.34,327.7Z" style="fill:rgb(230,27,114);fill-rule:nonzero;"/>
            <path d="M286.54,345.12C294.07,343.44 301.25,339.7 306.1,336.33C313.55,331.16 318.85,318.96 316.71,311.47C314.87,305.03 309.44,301.37 299.91,300.88C291.26,300.44 282.58,303.63 278.45,304.85C274.32,306.07 270.73,308.04 266.51,308.34C265.31,308.32 264.18,308.07 263.08,307.52C261.72,306.84 259.92,305.39 259.09,302.36C258.18,299.05 259.61,295.43 262.93,292.67C266.19,289.96 271.3,288.16 275.45,290.11C277.96,291.28 271.15,296.67 272.81,296.26C274.47,295.85 279.38,294.42 279.38,294.42C285.05,292.57 292.13,290.93 300.41,291.36C313.99,292.06 322.91,298.43 325.89,308.85C329.18,320.4 322.49,336.56 311.55,344.16C305.83,348.13 295.88,353.05 285.54,355.11L286.54,345.12ZM359.94,392.87C354.76,395.56 348.41,398.04 339.42,399.58C331.08,401.01 323.35,398.68 318.46,394.07C315.88,391.48 314.82,389.92 313.3,385.85C311.76,381.18 312.34,375.79 314.01,370.4C316.93,361 324.61,352.33 333.12,348.81C338.45,346.61 343.55,346.65 347.87,348.93C351.91,351.06 354.37,354.69 354.82,359.17C355.45,365.45 352,372.47 345.84,377.5C341.17,381.31 338.43,383.78 333.32,386.87C333.32,386.87 330.66,386.32 328.4,383.71C326.14,381.1 326.17,379.98 326.17,379.98C331.5,376.93 334.92,374.1 339.81,370.11C343.95,366.73 345.58,362.56 345.33,360.11C345.2,358.84 344.61,357.99 343.42,357.36C342.57,356.91 341.64,356.73 340.72,356.73C339.29,356.73 337.87,357.15 336.76,357.62C330.91,360.04 325.17,366.6 323.11,373.23C322.16,376.28 322.04,379.32 322.67,381.94C324.3,387.13 327.02,388.18 329.18,389.26C331.55,390.06 334.46,390.19 337.82,389.62C348.43,387.81 354.26,384.54 358.77,382.23M252.15,353.12C240.06,371.19 223.07,394.59 214.94,400.65C208.4,405.52 198.71,409.83 189.66,409.97C185.62,410.03 181.72,409.37 178.28,407.77C171.93,404.81 168.18,399.04 167.73,391.5C167.04,379.89 175.91,369.83 189.3,367.03C198.71,365.07 209.67,367.15 216.28,375.34C216.56,375.69 216.83,376.04 217.09,376.41L211.29,385.7C208.55,378.24 201.85,375.77 195.63,375.87C194.12,375.89 192.64,376.07 191.25,376.36C184.17,377.84 176.77,383.03 177.24,390.93C177.48,394.97 179.14,397.65 182.3,399.12C188.9,402.19 201,399.7 209.25,393.56C210.85,392.37 212.63,390.71 214.55,388.67L220.14,382.18C232.96,366.22 255.47,329.42 264.08,313.44L277.49,308.48C275.49,313.05 271.55,321.37 267.98,327.6C264.16,327.93 256.92,329.61 253.22,334.78C246.32,344.46 252.15,353.12 252.15,353.12ZM315.64,395.91C311.52,397.38 306.87,398.76 301.51,400.06C289.12,403.05 281.08,399.82 275.75,394.83C268.86,388.38 269.32,367.52 270.68,359.64C270.85,358.65 271.04,357.68 271.25,356.74L273.44,347.14C275.94,341.1 270.47,338.27 267.54,338.67C265.7,338.92 264.98,339.27 264.21,340.46C263.14,342.1 263.34,345.32 265.04,346.6C266.74,347.88 268.47,347.88 271.65,347.25L268.19,356.67C264.02,356.41 260.65,355.46 258.67,353.69L258.68,353.71C253.38,348.95 252.36,341.19 256.24,335.26C259.45,330.34 266.36,327.05 274.56,330.77L274.55,330.75C282.22,334.24 283.69,339.94 283.22,345.8L281.24,355.87C280.81,357.63 280.4,359.43 280.08,361.26C278.55,370.07 279.01,383.39 282.27,387.3C285.52,391.2 290.5,392.35 299.27,390.22C303.71,389.15 304.91,388.56 308.64,387.52L315.64,395.91Z" style="fill:rgb(236,157,196);fill-rule:nonzero;"/>
            <path d="M397.42,397.57C399.67,397.58 401.66,397.13 404.19,396.27C412.72,393.36 420.92,387.97 429.63,381.3C429.35,383.04 429.22,384.74 429.46,386.35C429.8,388.65 430.7,390.69 432.14,392.4C433.01,393.7 434.3,394.84 436.05,395.89C437.88,396.98 440.22,397.61 443.41,397.83L444.49,397.83C450.53,397.83 455.5,395.92 459.26,392.16C464.11,387.31 466.47,380.38 466.27,371.61C466.27,370.84 465.8,362.91 465.93,360.53C466.05,358.4 466.58,356.21 467.45,354.16C468.26,352.55 468.34,350.82 467.68,349.17C467.05,347.61 465.86,346.39 464.42,345.75C462.85,344.88 460.31,344.81 458.66,346.07C456.85,347.45 450.26,352.69 446.72,355.01C446.72,355.01 429.25,366.92 420.55,372.94C420.55,372.94 401.57,386.29 399.61,384.77C397.65,383.25 401.3,379.04 403.37,376.86C406.12,373.97 421.4,356.2 423.42,353.42C424.44,352.15 424.94,350.63 424.87,349.02C424.8,347.27 424.03,345.76 422.79,344.76C420.2,342.39 415.86,342.54 413.95,345.17C411.14,349.07 378.13,385.95 374.49,385.16C373.04,384.85 374.74,377.76 375.97,372.39C377.2,367.02 377.32,366.04 378.13,362.88C378.95,359.68 379.54,357.46 379.89,355.16C380.29,352.54 380.27,350.41 379.83,348.65C379.33,346.63 378.24,344.98 376.51,343.68C375.11,342.71 373.65,342.22 372.17,342.22C370.97,342.22 369.79,342.41 368.66,342.78C367.57,343.13 366.53,343.5 365.63,344.08C365.08,344.44 365.09,344.43 364.02,345.19C362.67,346.21 361.79,347.6 361.48,349.22C361.15,350.95 361.55,352.62 362.63,354.05C363.67,355.44 365.1,356.3 366.74,356.55C366.76,356.55 366.79,356.56 366.81,356.56C366.49,357.84 364.45,366.38 363.33,372.7C362.31,378.43 360.2,390.32 362.9,395.81C365.6,401.3 372.99,399.97 378.9,397.19C382.32,395.58 387.72,391.76 387.98,391.58C389.93,395.49 391.43,397.54 397.36,397.57C399.61,397.58 401.6,397.13 404.13,396.27M450.34,383.31C448.94,384.83 446.79,385.5 443.9,385.37C442.9,385.28 442.39,385.13 442.18,385.05L442,384.84C441.77,384.58 441.75,384.41 441.75,384.26C441.75,383.59 441.81,383.01 441.97,382.34C442.26,380.73 442.03,379.19 441.29,377.77C440.69,376.63 439.8,375.77 438.68,375.25L453.31,365.62C453.31,366.67 453.5,372 453.5,372C453.75,377.25 452.72,381.01 450.34,383.31Z" style="fill:rgb(230,27,114);fill-rule:nonzero;"/>
            <path d="M193.58,368.28C190.81,368.04 188.05,368.74 185.69,370.2C185.34,370.41 185.22,370.96 185.23,371.32C185.24,371.81 185.48,372.39 185.79,372.76C186.37,373.48 187.35,374.09 188.24,373.54C188.56,373.34 188.88,373.16 189.22,373C189.1,373.06 188.98,373.12 188.86,373.18C189.79,372.73 190.78,372.39 191.79,372.19C192.03,372.14 192.28,372.11 192.53,372.07C192.94,372.01 192.2,372.09 192.62,372.06C192.74,372.05 192.87,372.04 192.99,372.03C193.53,372 194.07,372.02 194.6,372.06C195.59,372.15 195.99,371.04 195.75,370.24C195.45,369.27 194.63,368.37 193.58,368.28Z" style="fill:white;fill-rule:nonzero;"/>
            <path d="M308.89,294.78C306.62,294.3 306.58,297.42 308.47,297.7C308.84,297.75 309.62,297.95 309.99,298.03C309.86,298 309.73,297.98 309.6,297.95C310.61,298.17 311.59,298.51 312.52,298.99C312.74,299.1 312.96,299.23 313.17,299.35C313.53,299.56 312.9,299.16 313.24,299.4C313.34,299.47 313.45,299.54 313.55,299.61C313.99,299.92 314.4,300.26 314.8,300.63C315.53,301.31 318.4,299.89 316.29,298.16C314.18,296.43 311.6,295.36 308.89,294.78Z" style="fill:white;fill-rule:nonzero;"/>
            <path d="M556.36,287.77C556.03,287.65 555.71,287.51 555.37,287.42C555.02,287.32 554.66,287.26 554.3,287.2C553.74,287.1 553.19,287.09 552.61,287.11C551.51,287.13 550.46,287.43 549.46,287.85C549.12,287.99 548.79,288.42 548.76,288.79C548.73,289.19 548.98,289.6 549.29,289.84C549.7,290.15 550.22,290.35 550.74,290.38L551.3,290.38C551.64,290.35 551.96,290.26 552.26,290.1C552.28,290.09 552.31,290.08 552.33,290.07C552.18,290.13 552.03,290.19 551.89,290.25C552.24,290.11 552.6,290 552.97,289.93C552.8,289.96 552.63,290 552.46,290.03C552.83,289.96 553.21,289.92 553.58,289.92L553.02,289.92C553.37,289.92 553.72,289.95 554.07,290.02C553.89,289.99 553.7,289.95 553.52,289.92C553.84,289.98 554.16,290.07 554.46,290.18C554.3,290.12 554.13,290.06 553.97,289.99C553.99,290 554.02,290.01 554.04,290.02C554.57,290.22 555.06,290.36 555.64,290.3C556.06,290.26 556.65,290.09 556.95,289.76C557.21,289.47 557.4,289.09 557.26,288.7C557.11,288.3 556.76,287.92 556.36,287.77Z" style="fill:white;fill-rule:nonzero;"/>
            <path d="M573.66,347.41C573.33,347.29 573.01,347.15 572.67,347.06C572.32,346.96 571.96,346.9 571.6,346.84C571.04,346.74 570.49,346.73 569.91,346.75C568.81,346.77 567.76,347.07 566.76,347.49C566.42,347.63 566.09,348.06 566.06,348.43C566.03,348.83 566.28,349.24 566.59,349.48C567,349.79 567.52,349.99 568.04,350.02L568.6,350.02C568.94,349.99 569.26,349.9 569.56,349.74C569.58,349.73 569.61,349.72 569.63,349.71C569.48,349.77 569.33,349.83 569.19,349.89C569.54,349.75 569.9,349.64 570.27,349.57C570.1,349.6 569.93,349.64 569.76,349.67C570.13,349.6 570.51,349.56 570.88,349.56L570.32,349.56C570.67,349.56 571.02,349.59 571.37,349.66C571.19,349.63 571,349.59 570.82,349.56C571.14,349.62 571.46,349.71 571.76,349.82C571.6,349.76 571.43,349.7 571.27,349.63C571.29,349.64 571.32,349.65 571.34,349.66C571.87,349.86 572.36,350 572.94,349.94C573.36,349.9 573.95,349.73 574.25,349.4C574.51,349.11 574.7,348.73 574.56,348.34C574.4,347.93 574.05,347.56 573.66,347.41Z" style="fill:white;fill-rule:nonzero;"/>
            <path d="M454.72,363.13C454.69,364.55 454.73,365.72 454.73,365.72C454.73,366.75 454.92,372.1 454.92,372.1C455.17,377.75 454.01,381.79 451.35,384.38C449.81,386.04 447.53,386.88 444.56,386.88C444.33,386.88 444.09,386.88 443.85,386.86C442.67,386.76 442.03,386.58 441.68,386.44L441.36,386.32L441.14,386.07C440.55,385.4 440.36,384.92 440.36,384.36C440.36,383.55 440.44,382.86 440.62,382.11C440.84,380.89 440.88,379.49 440.28,378.36C439.82,377.49 438.45,375.98 436.55,375.47C435.04,375.06 433.19,375.59 432.44,376.5C431.69,377.41 431.6,377.9 431.33,378.91C431.06,379.92 430.84,381.62 430.84,381.62C430.59,383.22 430.62,384.78 430.84,386.25C431.14,388.29 431.94,390.09 433.2,391.61C434.05,392.86 435.18,393.86 436.75,394.79C438.41,395.78 440.56,396.34 443.49,396.54L444.47,396.54C450.12,396.54 454.76,394.77 458.25,391.28C462.82,386.71 465.04,380.14 464.85,371.75C464.85,371.07 464.38,362.99 464.51,360.56C464.63,358.31 465.2,355.94 466.14,353.72L466.18,353.64C466.81,352.38 466.87,351.08 466.36,349.79C465.88,348.61 464.96,347.64 463.83,347.13C462.53,346.41 461.33,346.55 460.06,346.89C457,347.69 455.83,350.4 455.38,352.9C454.93,355.4 454.75,361.71 454.72,363.13Z" style="fill:rgb(235,156,195);fill-rule:nonzero;"/>
            <path d="M391.48,394.51C394.62,396.93 398.49,396.78 403.65,395.04" style="fill:rgb(235,156,195);fill-rule:nonzero;"/>
            <path d="M422.38,352.56C426,348.12 419.78,340.87 414.29,346.78C412.38,348.83 377.4,390.13 373.14,386.47C371.62,385.16 373.64,376.03 374.64,372.12C375.64,368.21 376,365.74 376.8,362.62C377.61,359.48 378.19,357.3 378.53,355.03C378.9,352.6 378.89,350.65 378.5,349.07C378.07,347.35 377.16,345.98 375.7,344.89C374.58,344.11 373.39,343.71 372.2,343.71C371.15,343.71 370.11,343.88 369.12,344.2C368.15,344.52 367.21,344.83 366.42,345.35C365.81,345.74 365.83,345.73 364.78,346.48C363.82,347.21 363.12,348.31 362.88,349.58C362.62,350.93 362.76,352.56 364.21,353.5C365.24,354.16 369.37,352.15 369.37,352.15C369.37,352.15 367.51,359.11 367.1,360.58C366.62,362.32 365.56,368.57 364.52,373.18C363.49,377.79 361.99,390.92 363.9,394.88C366.59,400.48 373.55,397.96 378.21,395.89C392.95,389.36 421,354.68 422.38,352.56Z" style="fill:rgb(236,157,196);fill-rule:nonzero;"/>
            <path d="M391.56,394.51C394.7,396.93 398.57,396.78 403.73,395.04C413.55,391.73 426.56,382.01 429.92,379.75C429.92,379.75 430.47,376.64 432.06,375.05C435.27,371.84 438.51,372.57 440.14,372.91L450.01,366.4L453.05,352.24C453.05,352.24 429.73,367.9 421.06,374.1C421.06,374.1 401.69,387.94 399.07,386.21L391.56,394.51Z" style="fill:rgb(235,156,195);fill-rule:nonzero;"/>
            <g>
                <g>
                    <path d="M437.93,377.28C437.58,377.06 437.2,376.88 436.79,376.79C436.35,376.69 435.87,376.63 435.42,376.68C434.96,376.72 434.65,376.8 434.22,376.96C434,377.04 433.8,377.18 433.61,377.31C433.43,377.43 433.28,377.62 433.14,377.78C433.07,377.87 433,377.96 432.94,378.05C432.82,378.25 432.72,378.47 432.63,378.69C432.53,378.84 432.5,379 432.55,379.16C432.55,379.34 432.62,379.49 432.76,379.62C432.9,379.79 433.07,379.91 433.27,380C433.48,380.13 433.71,380.22 433.96,380.28C434.14,380.31 434.33,380.34 434.51,380.37C434.87,380.4 435.23,380.38 435.58,380.3C435.73,380.25 435.87,380.2 436.02,380.15C436.26,380.05 436.46,379.89 436.6,379.67C436.74,379.35 436.88,379.03 437.11,378.76C437.03,378.85 436.95,378.94 436.87,379.03C436.95,378.94 437.05,378.86 437.15,378.79C437.03,378.86 436.92,378.93 436.8,379C436.87,378.96 436.95,378.92 437.03,378.89C436.88,378.94 436.74,378.99 436.59,379.04C436.65,379.02 436.7,379.01 436.76,379C436.59,379.03 436.42,379.05 436.25,379.08C436.3,379.07 436.35,379.07 436.4,379.07C436.21,379.07 436.03,379.07 435.84,379.06C435.88,379.06 435.92,379.06 435.96,379.07C435.78,379.04 435.59,379.01 435.41,378.98C435.45,378.99 435.49,379 435.53,379.01C435.37,378.96 435.2,378.9 435.04,378.85C435.08,378.86 435.12,378.88 435.15,378.9C435.01,378.83 434.88,378.75 434.74,378.68C434.75,378.69 434.77,378.7 434.78,378.71C435.21,378.99 435.72,379.14 436.23,379.19C436.5,379.22 436.78,379.21 437.05,379.16C437.29,379.14 437.52,379.08 437.75,378.97C438.05,378.81 438.43,378.57 438.44,378.18C438.42,378.07 438.41,377.96 438.39,377.86C438.31,377.61 438.15,377.42 437.93,377.28Z" style="fill:white;fill-rule:nonzero;"/>
                </g>
            </g>
            <g>
                <g>
                    <path d="M462.96,348.38C461.66,348.15 460.23,348.19 459.07,348.9C458.42,349.3 457.96,349.9 457.76,350.63C457.75,350.78 457.8,350.91 457.91,351.01C458.01,351.16 458.15,351.27 458.32,351.35C458.53,351.47 458.75,351.55 458.98,351.6C459.24,351.68 459.51,351.73 459.78,351.75C460.27,351.78 460.82,351.79 461.29,351.6C461.4,351.55 461.52,351.49 461.63,351.44C461.81,351.34 461.92,351.19 461.96,350.99C461.98,350.91 462,350.84 462.03,350.76C462,350.84 461.97,350.92 461.93,351C462.05,350.69 462.24,350.43 462.49,350.21C462.41,350.28 462.34,350.35 462.26,350.42C462.43,350.27 462.62,350.14 462.82,350.04C462.71,350.09 462.59,350.15 462.48,350.2C462.61,350.14 462.75,350.09 462.89,350.05C462.74,350.09 462.6,350.12 462.45,350.16C462.55,350.14 462.65,350.12 462.75,350.11C462.58,350.13 462.41,350.14 462.24,350.16C462.33,350.15 462.42,350.15 462.51,350.15C462.32,350.14 462.14,350.14 461.95,350.13C462.03,350.13 462.11,350.14 462.19,350.15C462.01,350.12 461.82,350.1 461.64,350.07C461.66,350.07 461.68,350.08 461.71,350.08C462.24,350.18 462.8,350.22 463.33,350.13C463.55,350.1 463.75,350.04 463.94,349.94C464.1,349.88 464.24,349.79 464.34,349.65C464.37,349.57 464.4,349.49 464.44,349.41C464.44,349.21 464.36,349.04 464.2,348.91C463.85,348.63 463.39,348.45 462.96,348.38Z" style="fill:white;fill-rule:nonzero;"/>
                </g>
            </g>
            <path d="M704.67,377.59C699.12,382.31 683.07,389.47 681.7,388.15C680.83,387.31 686.72,380.1 690.6,375.62C693.13,372.7 698.75,366.32 699.42,360.77C700.37,352.93 697.83,348.28 692.58,343.54C691.4,342.47 690.78,341.77 689.32,340.87C698.37,333.13 718.95,308.91 718.93,298.65C718.92,294.64 716.81,291.4 713.13,289.75C704.05,285.67 686.74,305.45 655.46,346.15C642.02,363.63 637.97,372.28 625.35,382.68C615.36,390.91 603.21,392.09 597.98,386.25C594.58,382.46 597.32,374.07 605.64,365.88C611.73,359.89 619.38,355.51 620.71,356.84C622.04,358.17 617,360.97 613.36,364.35C610.81,366.72 610.66,370.71 613.03,373.26C615.4,375.81 619.39,375.96 621.94,373.59C630.54,365.6 634.11,360.27 634.26,355.17C634.34,352.51 633.39,350.01 631.59,348.12C629.32,345.74 626.02,344.45 622.04,344.38C614.25,344.27 604.99,348.81 596.78,356.88C579.72,373.66 583.44,388.6 588.63,394.77C593.31,400.34 598.65,402.44 607.19,402.68C617.58,402.32 626.13,398.44 633.25,392.82C637.39,389.55 644.34,381.62 650.6,373.65C658.88,363.1 666.14,352.48 666.14,352.48C669.05,354.25 673.42,354.73 677.79,349.58C679.68,350.2 682.45,351.15 684.6,353.32C686.44,355.18 686.98,356.63 686.92,360.05C686.88,362.26 679.68,369.84 675.97,374.23C671.42,379.61 665.18,387.11 668.81,394.78C672.38,402.33 683.71,400.81 688.46,399.74C699.58,397.25 710.66,389.42 712.52,387.58C715.23,384.89 716.28,382.41 713.49,378.72C711.41,375.97 707.32,375.33 704.67,377.59ZM683.79,327.63C690.05,320.18 704.66,301.69 706.17,303.01C707.68,304.33 689.61,322.25 683.79,327.63Z" style="fill:rgb(230,27,114);fill-rule:nonzero;"/>
            <path d="M632.11,391.78C624.91,397.61 616.64,400.82 607.29,401.14C599.02,401.46 593.95,398.73 589.57,393.49C580.86,383.07 587.88,367.98 598.04,357.99C605.96,350.21 614.75,345.81 622.2,345.93C625.75,345.99 628.68,347.12 630.66,349.19C632.19,350.8 632.97,352.85 632.9,355.13C632.76,359.71 629.22,364.89 621.07,372.47C619.14,374.26 616.12,374.15 614.33,372.22C612.54,370.29 612.65,367.28 614.58,365.48C620.83,359.68 624.07,357.65 622.57,355.81C621.07,353.98 613.59,356.06 604.73,364.78C595.61,373.74 592.67,382.38 596.79,387.63C601.53,393.67 614.79,393.51 625.89,384.15C641.16,371.28 643.37,364.06 656.63,347.08C684.55,311.31 703.73,286.96 712.74,291C715.89,292.42 717.71,295.2 717.71,298.63C717.73,306.79 701.51,327.52 690.29,337.41C686.66,336.28 682.79,335.38 678.56,334.53C679.12,334.12 679.69,333.66 680.28,333.16C682.88,330.94 689.76,324.74 692.41,321.85C695.99,317.95 711.19,302.98 708.4,300.75C705.87,298.73 695.88,310.6 691.44,315.58C686.99,320.56 677.2,334.63 673.67,336.53C665.79,337.14 662.98,340.97 663.17,346.38C663.23,348.25 664.34,350.18 665.14,351.43C656.97,363.1 642.96,382.98 632.11,391.78Z" style="fill:rgb(236,157,196);fill-rule:nonzero;"/>
            <path d="M680.23,389.37C682.27,391.18 694.94,385.5 701.95,381.17C704.57,379.51 708.78,374.79 712.61,379.56C716.58,384.52 711.18,387.88 701.47,393C697.57,395.12 685.47,401.41 675.06,398.22C669.66,396.57 667.55,390.66 670.59,384.75C675.99,374.24 687.51,365.65 688.32,360.53C688.92,356.76 687.89,354.49 685.76,352.33C683.41,349.96 679.59,348.67 676.98,347.91C675.33,351.53 671.87,352.73 668.45,351.65C665.2,350.62 664.24,346.14 665.1,343.21C665.82,340.76 667.08,339.84 669.49,338.87C672.76,337.56 679.31,337.15 686.07,340.79C689.34,342.55 689.89,343.21 691.54,344.7C696.38,349.07 698.4,351.42 698.05,359.25C697.77,365.47 692.62,371.32 689.34,374.98C685.28,379.53 678.3,387.66 680.23,389.37Z" style="fill:rgb(235,156,195);fill-rule:nonzero;"/>
            <g>
                <g>
                    <path d="M266.62,331.62C264.18,331.89 261.84,332.62 259.71,333.87C258.82,334.4 258.73,335.63 259.39,336.38C260.08,337.17 261.31,337.56 262.27,336.99C262.85,336.65 263.44,336.35 264.06,336.09C263.91,336.15 263.76,336.22 263.61,336.28C264.75,335.8 265.93,335.47 267.15,335.28C266.98,335.31 266.82,335.33 266.65,335.36C266.86,335.33 267.07,335.3 267.28,335.28C267.77,335.22 268.25,335.1 268.6,334.72C268.91,334.38 269.07,333.84 268.97,333.39C268.76,332.4 267.69,331.5 266.62,331.62Z" style="fill:white;fill-rule:nonzero;"/>
                </g>
            </g>
            <g>
                <g>
                    <path d="M342.38,349.84C341.34,349.44 340.23,349.34 339.13,349.36C338.21,349.38 337.27,349.56 336.42,349.92C336.01,350.09 335.59,350.28 335.38,350.7C335.21,351.05 335.25,351.52 335.49,351.83C335.78,352.21 336.22,352.49 336.68,352.61C337.18,352.74 337.82,352.81 338.31,352.61C338.68,352.45 339.06,352.34 339.46,352.26C339.29,352.29 339.12,352.33 338.95,352.36C339.3,352.29 339.65,352.26 340,352.25L339.44,352.25C339.82,352.25 340.19,352.28 340.56,352.35C340.38,352.32 340.19,352.28 340.01,352.25C340.36,352.32 340.69,352.41 341.02,352.54C341.48,352.71 342.19,352.68 342.65,352.54C343.02,352.42 343.53,352.15 343.69,351.76C343.85,351.38 343.83,350.96 343.58,350.63C343.27,350.21 342.85,350.02 342.38,349.84Z" style="fill:white;fill-rule:nonzero;"/>
                </g>
            </g>
            <g>
                <g>
                    <path d="M269.99,292.14C268.59,291.96 267.13,292.15 265.8,292.63C264.68,293.04 263.72,293.73 262.93,294.61C262.71,294.86 262.89,295.27 263.07,295.46C263.35,295.77 263.88,295.98 264.28,296.07C265.16,296.26 266.28,296.26 266.92,295.54C266.97,295.48 267.02,295.43 267.08,295.37C267,295.45 266.92,295.53 266.85,295.61C267.24,295.21 267.69,294.87 268.19,294.59C268.07,294.65 267.96,294.72 267.84,294.78C268.09,294.65 268.34,294.53 268.61,294.43C268.68,294.4 268.75,294.38 268.83,294.35C269.09,294.26 268.45,294.46 268.65,294.4C268.79,294.36 268.92,294.33 269.06,294.3C269.12,294.29 269.19,294.28 269.25,294.27C269.56,294.22 269.05,294.29 269.01,294.3C269.16,294.29 269.31,294.27 269.47,294.26L269.66,294.26C269.9,294.26 269.06,294.24 269.37,294.26C269.52,294.27 269.68,294.28 269.83,294.3C270.29,294.36 270.9,294.3 271.34,294.11C271.6,294 272.02,293.74 272.02,293.4C271.99,292.5 270.65,292.23 269.99,292.14Z" style="fill:white;fill-rule:nonzero;"/>
                </g>
            </g>
            <path d="M373.61,346.97C373.47,346.76 373.28,346.57 373.09,346.41C373.05,346.37 373,346.34 372.96,346.31C372.78,346.19 372.6,346.07 372.41,345.98C372.21,345.88 372,345.82 371.8,345.74C371.74,345.72 371.68,345.7 371.61,345.69C371.32,345.63 371.02,345.56 370.72,345.55C370.43,345.54 370.12,345.53 369.83,345.57C369.55,345.61 369.26,345.65 368.99,345.75C368.74,345.84 368.47,345.93 368.24,346.07C368.03,346.2 367.81,346.35 367.62,346.52C367.23,346.9 367.02,347.32 366.92,347.85C366.85,348.23 367.18,348.66 367.45,348.87C367.65,349.03 367.86,349.14 368.1,349.21C368.35,349.32 368.62,349.38 368.9,349.4C369.4,349.43 369.97,349.4 370.42,349.13C370.54,349.05 370.65,348.96 370.77,348.88C370.97,348.7 371.08,348.48 371.12,348.21C371.13,348.16 371.14,348.12 371.15,348.07C371.11,348.19 371.08,348.31 371.04,348.43C371.09,348.29 371.15,348.16 371.24,348.04C371.16,348.14 371.08,348.25 371,348.35C371.09,348.24 371.19,348.15 371.3,348.07C371.18,348.15 371.07,348.24 370.95,348.32C371.06,348.25 371.17,348.18 371.3,348.13C371.15,348.19 371,348.25 370.86,348.31C370.97,348.27 371.08,348.24 371.19,348.22C371.02,348.25 370.85,348.28 370.68,348.31C370.79,348.29 370.91,348.28 371.02,348.28L370.46,348.28C370.55,348.28 370.65,348.29 370.74,348.3C370.56,348.27 370.37,348.23 370.19,348.2C370.28,348.22 370.37,348.24 370.46,348.27C370.3,348.21 370.13,348.15 369.97,348.09C370.06,348.12 370.14,348.16 370.22,348.21C370.08,348.13 369.95,348.04 369.81,347.96C369.89,348.01 369.96,348.07 370.03,348.13C369.93,348.03 369.83,347.93 369.73,347.82C369.79,347.88 369.84,347.95 369.89,348.02C370.03,348.2 370.19,348.35 370.4,348.45C370.61,348.6 370.84,348.7 371.09,348.76C371.36,348.84 371.64,348.87 371.92,348.86C372.19,348.88 372.45,348.85 372.71,348.77C373.1,348.64 373.57,348.44 373.74,348.04C373.78,347.92 373.81,347.8 373.85,347.68C373.85,347.42 373.77,347.18 373.61,346.97Z" style="fill:white;fill-rule:nonzero;"/>
            <path d="M710.79,379.92C710.61,379.74 710.38,379.6 710.16,379.48C710.11,379.45 710.06,379.43 710.01,379.41C709.81,379.33 709.61,379.25 709.4,379.21C709.19,379.16 708.96,379.14 708.75,379.11C708.69,379.1 708.62,379.1 708.56,379.1C708.26,379.1 707.96,379.1 707.66,379.16C707.37,379.22 707.07,379.27 706.8,379.38C706.54,379.48 706.26,379.59 706.02,379.74C705.8,379.88 705.55,380.03 705.36,380.22C705.18,380.39 705,380.58 704.86,380.8C704.56,381.25 704.44,381.71 704.46,382.25C704.47,382.64 704.89,382.98 705.2,383.13C705.42,383.24 705.66,383.31 705.91,383.32C706.18,383.37 706.45,383.38 706.73,383.33C707.23,383.25 707.78,383.09 708.15,382.73C708.25,382.62 708.34,382.52 708.44,382.41C708.6,382.19 708.66,381.95 708.63,381.68L708.63,381.54C708.62,381.66 708.61,381.79 708.6,381.91C708.61,381.76 708.65,381.62 708.71,381.48C708.65,381.6 708.6,381.72 708.54,381.83C708.6,381.7 708.68,381.59 708.77,381.49C708.67,381.6 708.58,381.7 708.48,381.81C708.57,381.71 708.67,381.63 708.78,381.55C708.65,381.64 708.52,381.73 708.39,381.82C708.49,381.76 708.59,381.7 708.69,381.66C708.53,381.73 708.37,381.8 708.21,381.86C708.32,381.82 708.42,381.78 708.54,381.75C708.36,381.79 708.17,381.83 707.99,381.87C708.08,381.85 708.18,381.84 708.27,381.83C708.08,381.84 707.9,381.85 707.71,381.86C707.8,381.86 707.9,381.86 707.99,381.87C707.82,381.85 707.65,381.82 707.47,381.8C707.56,381.81 707.65,381.83 707.74,381.86C707.59,381.81 707.44,381.76 707.29,381.7C707.38,381.73 707.46,381.77 707.54,381.82C707.42,381.74 707.3,381.67 707.18,381.59C707.25,381.64 707.32,381.69 707.38,381.75C707.55,381.9 707.75,382 707.97,382.06C708.21,382.16 708.45,382.21 708.71,382.21C708.99,382.23 709.27,382.2 709.54,382.12C709.81,382.08 710.06,381.99 710.29,381.85C710.64,381.64 711.06,381.34 711.14,380.91C711.15,380.79 711.16,380.66 711.17,380.54C711.13,380.3 711,380.09 710.79,379.92Z" style="fill:white;fill-rule:nonzero;"/>
            <path d="M421.38,347.74C421.24,347.53 421.05,347.34 420.86,347.18C420.82,347.14 420.77,347.11 420.73,347.08C420.55,346.96 420.37,346.84 420.18,346.75C419.98,346.65 419.77,346.59 419.57,346.51C419.51,346.49 419.45,346.47 419.38,346.46C419.09,346.4 418.79,346.33 418.49,346.32C418.2,346.31 417.89,346.3 417.6,346.34C417.32,346.38 417.03,346.42 416.76,346.52C416.51,346.61 416.24,346.7 416.01,346.84C415.8,346.97 415.58,347.12 415.39,347.29C415,347.67 414.79,348.09 414.69,348.62C414.62,349 414.95,349.43 415.22,349.64C415.41,349.8 415.63,349.91 415.87,349.98C416.12,350.09 416.39,350.15 416.67,350.17C417.17,350.2 417.74,350.17 418.19,349.9C418.31,349.82 418.42,349.73 418.54,349.65C418.74,349.47 418.85,349.25 418.89,348.98C418.9,348.93 418.91,348.89 418.92,348.84C418.88,348.96 418.85,349.08 418.81,349.2C418.86,349.06 418.92,348.93 419.01,348.81C418.93,348.91 418.85,349.02 418.77,349.12C418.86,349.01 418.96,348.92 419.07,348.84C418.95,348.92 418.84,349.01 418.72,349.09C418.83,349.02 418.94,348.95 419.07,348.9C418.92,348.96 418.77,349.02 418.63,349.08C418.74,349.04 418.85,349.01 418.96,348.99C418.79,349.02 418.62,349.05 418.45,349.08C418.56,349.06 418.68,349.05 418.79,349.05L418.23,349.05C418.32,349.05 418.42,349.06 418.51,349.07C418.33,349.04 418.14,349 417.96,348.97C418.05,348.99 418.14,349.01 418.23,349.04C418.07,348.98 417.9,348.92 417.74,348.86C417.83,348.89 417.91,348.93 417.99,348.98C417.85,348.9 417.72,348.81 417.58,348.73C417.66,348.78 417.73,348.84 417.8,348.9C417.7,348.8 417.6,348.7 417.5,348.59C417.56,348.65 417.61,348.72 417.66,348.79C417.8,348.97 417.96,349.12 418.17,349.22C418.38,349.37 418.61,349.47 418.86,349.53C419.13,349.61 419.41,349.64 419.69,349.63C419.96,349.65 420.22,349.62 420.48,349.54C420.87,349.41 421.34,349.21 421.51,348.81C421.55,348.69 421.58,348.57 421.62,348.45C421.62,348.19 421.55,347.95 421.38,347.74Z" style="fill:white;fill-rule:nonzero;"/>
            <path d="M712.12,292.98C711.79,292.87 711.46,292.75 711.12,292.66C710.77,292.57 710.41,292.53 710.05,292.48C709.48,292.4 708.93,292.41 708.36,292.44C707.26,292.5 706.23,292.83 705.23,293.29C704.89,293.45 704.58,293.88 704.56,294.25C704.54,294.65 704.81,295.06 705.12,295.28C705.54,295.58 706.07,295.76 706.58,295.77C706.77,295.76 706.95,295.76 707.14,295.75C707.48,295.71 707.79,295.61 708.09,295.44C708.11,295.43 708.14,295.42 708.16,295.41C708.01,295.48 707.87,295.54 707.72,295.61C708.07,295.46 708.42,295.34 708.79,295.25C708.62,295.29 708.45,295.33 708.28,295.37C708.65,295.29 709.02,295.24 709.4,295.22C709.21,295.23 709.03,295.23 708.84,295.24C709.19,295.23 709.54,295.25 709.89,295.3C709.7,295.27 709.52,295.25 709.33,295.22C709.65,295.27 709.97,295.35 710.28,295.45C710.12,295.39 709.95,295.34 709.79,295.28C709.81,295.29 709.84,295.3 709.86,295.3C710.4,295.48 710.89,295.6 711.47,295.53C711.89,295.47 712.47,295.29 712.76,294.95C713.01,294.66 713.19,294.27 713.03,293.88C712.88,293.48 712.52,293.12 712.12,292.98Z" style="fill:white;fill-rule:nonzero;"/>
            <path d="M679.6,339.37C677.01,338.8 674.23,338.9 671.72,339.76C671.36,339.88 670.9,340.07 670.72,340.44C670.56,340.76 670.64,341.14 670.88,341.39C671.54,342.08 672.85,342.28 673.73,341.98C674.21,341.82 674.69,341.71 675.18,341.58C674.62,341.73 674.98,341.62 675.13,341.59C675.26,341.57 675.4,341.55 675.53,341.53C675.78,341.5 676.03,341.47 676.28,341.46C676.4,341.45 676.51,341.45 676.63,341.44C675.97,341.48 676.37,341.45 676.53,341.45C676.8,341.45 677.07,341.46 677.34,341.49C677.46,341.5 677.57,341.51 677.68,341.52C678.11,341.56 677.15,341.43 677.58,341.51C677.85,341.56 678.11,341.6 678.37,341.66C678.88,341.77 679.49,341.77 679.99,341.62C680.32,341.52 680.84,341.29 680.99,340.94C681.37,340.06 680.3,339.52 679.6,339.37Z" style="fill:white;fill-rule:nonzero;"/>
            <path d="M624.92,348.95C624.77,348.74 624.57,348.56 624.38,348.41C624.34,348.38 624.29,348.34 624.25,348.31C624.07,348.2 623.88,348.08 623.69,348C623.49,347.91 623.28,347.85 623.07,347.79C623.01,347.77 622.95,347.75 622.88,347.74C622.59,347.69 622.29,347.63 621.99,347.63C621.7,347.63 621.39,347.63 621.1,347.69C620.82,347.74 620.53,347.79 620.26,347.9C620.01,348 619.75,348.1 619.52,348.25C619.31,348.39 619.1,348.54 618.92,348.72C618.55,349.11 618.34,349.54 618.26,350.07C618.2,350.46 618.55,350.87 618.82,351.07C619.02,351.22 619.24,351.33 619.48,351.39C619.74,351.49 620,351.55 620.28,351.55C620.78,351.56 621.35,351.51 621.79,351.23C621.9,351.14 622.02,351.06 622.13,350.97C622.32,350.78 622.43,350.56 622.45,350.29C622.46,350.24 622.47,350.2 622.48,350.15C622.45,350.27 622.42,350.39 622.39,350.51C622.43,350.37 622.49,350.23 622.58,350.11C622.5,350.22 622.43,350.32 622.35,350.43C622.43,350.32 622.53,350.22 622.64,350.14C622.53,350.23 622.41,350.31 622.3,350.4C622.41,350.32 622.52,350.26 622.64,350.2C622.49,350.26 622.35,350.33 622.2,350.39C622.31,350.35 622.41,350.31 622.53,350.28C622.36,350.32 622.19,350.35 622.02,350.39C622.13,350.37 622.25,350.35 622.36,350.35C622.17,350.36 621.99,350.36 621.8,350.37C621.89,350.37 621.99,350.37 622.08,350.38C621.89,350.35 621.71,350.33 621.52,350.3C621.61,350.31 621.7,350.33 621.79,350.36C621.63,350.31 621.46,350.25 621.3,350.2C621.39,350.23 621.47,350.27 621.55,350.31C621.41,350.23 621.27,350.15 621.14,350.07C621.22,350.12 621.29,350.17 621.36,350.23C621.26,350.13 621.15,350.03 621.05,349.93C621.11,349.99 621.17,350.05 621.22,350.12C621.36,350.3 621.54,350.44 621.74,350.53C621.95,350.67 622.19,350.76 622.44,350.81C622.72,350.88 622.99,350.9 623.28,350.88C623.55,350.89 623.81,350.85 624.07,350.76C624.45,350.62 624.92,350.4 625.08,349.99C625.11,349.87 625.14,349.75 625.17,349.63C625.18,349.39 625.09,349.15 624.92,348.95Z" style="fill:white;fill-rule:nonzero;"/>
            <path d="M507.93,348.88C507.31,348.77 506.69,348.86 506.09,349C505.95,349.03 505.81,349.08 505.67,349.13C505.41,349.24 505.13,349.35 504.88,349.5C504.53,349.72 504.19,349.98 503.93,350.31C503.77,350.52 503.6,350.73 503.49,350.97C503.37,351.21 503.31,351.47 503.24,351.73C503.22,351.94 503.26,352.13 503.37,352.31C503.45,352.51 503.58,352.68 503.76,352.82C503.95,352.99 504.17,353.11 504.41,353.18C504.66,353.3 504.93,353.36 505.21,353.38C505.72,353.41 506.29,353.37 506.73,353.08C506.85,352.99 506.97,352.9 507.08,352.81C507.28,352.62 507.4,352.38 507.43,352.1C507.44,352.08 507.44,352.06 507.45,352.03C507.41,352.16 507.38,352.28 507.34,352.41C507.41,352.18 507.52,351.97 507.66,351.78C507.58,351.89 507.5,352 507.42,352.11C507.55,351.94 507.7,351.79 507.87,351.66C507.75,351.75 507.63,351.84 507.52,351.93C507.67,351.81 507.84,351.72 508.02,351.64C507.87,351.7 507.72,351.77 507.58,351.83C507.72,351.77 507.85,351.73 508,351.7C507.83,351.73 507.66,351.77 507.49,351.8C507.62,351.77 507.76,351.76 507.89,351.76L507.33,351.76C507.45,351.76 507.58,351.77 507.7,351.79C507.98,351.82 508.25,351.81 508.52,351.74C508.77,351.71 509,351.63 509.22,351.5C509.42,351.4 509.58,351.26 509.69,351.07C509.83,350.92 509.91,350.74 509.92,350.53C509.93,350.1 509.73,349.71 509.4,349.45C509.27,349.36 509.13,349.27 509,349.19C508.65,349.01 508.3,348.91 507.93,348.88Z" style="fill:white;fill-rule:nonzero;"/>
            <path d="M512.16,335.01C511.93,334.91 511.66,334.86 511.42,334.82C511.37,334.81 511.31,334.81 511.26,334.81C511.05,334.81 510.83,334.8 510.62,334.83C510.4,334.86 510.19,334.91 509.98,334.97C509.92,334.99 509.85,335 509.79,335.03C509.51,335.13 509.22,335.24 508.97,335.4C508.72,335.55 508.46,335.71 508.24,335.9C508.03,336.09 507.8,336.28 507.63,336.51C507.47,336.72 507.29,336.95 507.18,337.19C507.07,337.42 506.97,337.66 506.91,337.9C506.79,338.43 506.84,338.9 507.04,339.4C507.19,339.76 507.7,339.94 508.04,339.97C508.29,340 508.53,339.97 508.77,339.9C509.04,339.86 509.3,339.76 509.54,339.63C509.98,339.38 510.44,339.04 510.67,338.58C510.72,338.45 510.78,338.31 510.83,338.18C510.9,337.92 510.88,337.67 510.76,337.43C510.74,337.39 510.73,337.34 510.71,337.29C510.74,337.41 510.78,337.53 510.81,337.65C510.77,337.51 510.76,337.36 510.77,337.21C510.76,337.34 510.75,337.47 510.74,337.6C510.75,337.46 510.79,337.33 510.84,337.2C510.79,337.33 510.73,337.47 510.68,337.6C510.73,337.48 510.8,337.36 510.87,337.26C510.78,337.39 510.69,337.52 510.59,337.65C510.66,337.56 510.73,337.47 510.82,337.39C510.69,337.51 510.57,337.63 510.44,337.75C510.52,337.67 510.61,337.6 510.71,337.54C510.55,337.64 510.4,337.74 510.24,337.84C510.32,337.79 510.4,337.74 510.49,337.71C510.32,337.78 510.15,337.86 509.97,337.93C510.06,337.89 510.14,337.86 510.23,337.84C510.06,337.88 509.89,337.91 509.72,337.95C509.81,337.93 509.9,337.92 509.99,337.92C509.83,337.92 509.67,337.93 509.51,337.93C509.6,337.93 509.69,337.94 509.78,337.96C509.64,337.93 509.5,337.9 509.36,337.87C509.44,337.89 509.52,337.92 509.6,337.95C509.81,338.03 510.03,338.06 510.26,338.04C510.51,338.05 510.76,338.01 511.01,337.92C511.28,337.84 511.53,337.72 511.76,337.55C511.99,337.42 512.2,337.25 512.37,337.04C512.63,336.72 512.91,336.29 512.84,335.86C512.81,335.74 512.77,335.62 512.74,335.5C512.61,335.26 512.41,335.1 512.16,335.01Z" style="fill:white;fill-rule:nonzero;"/>
            <path d="M250.89,222.37C248.93,224.38 249.06,229.31 251.06,231.13C252.74,232.66 253.79,232.73 255.21,232.89L255.55,232.91C256.27,232.91 256.99,232.8 257.7,232.59C258.68,232.3 259.7,231.82 260.37,231.01L265.72,225.24C266.92,223.89 267.51,222.29 267.43,220.62C267.33,218.55 266.45,217.27 265.74,216.55C264.02,214.83 262.2,214.56 261,214.59C259.29,214.67 257.84,215.36 256.96,216.39C256.96,216.39 252.85,220.36 250.89,222.37Z" style="fill:rgb(230,27,114);fill-rule:nonzero;"/>
            <path d="M255.38,231.59L255.64,231.6C256.14,231.6 256.73,231.51 257.3,231.34C257.98,231.14 258.89,230.78 259.4,230.17L264.72,224.36C265.63,223.34 266.1,222.08 266.04,220.79C265.96,219.17 265.3,218.19 264.76,217.65C263.69,216.58 262.42,216.05 261.04,216.1C259.79,216.16 258.69,216.64 258.03,217.41C258.03,217.41 253.6,221.69 251.98,223.35C250.36,225.01 250.94,229.2 252.19,230.31C253.44,231.41 254.49,231.48 255.38,231.59Z" style="fill:rgb(235,156,195);fill-rule:nonzero;"/>
            <path d="M397.25,183.83C397.38,179.83 395.38,176.51 391.76,174.73C383.04,170.45 368.74,182.38 336.29,221.7C322.32,238.62 315.76,247.26 305.76,258.96C300.23,265.43 293.17,269.2 292.56,268.48C292.24,268.1 295.61,265.33 297.18,263.61C298.36,262.32 299.3,261.11 300.03,259.77C300.79,258.37 301.42,256.92 301.8,255.42C302.22,253.75 302.2,251.87 301.72,249.71C301.29,248.09 300.63,246.58 299.76,245.22C298.79,243.72 295.5,240.27 293.67,238.89C295.56,235.44 295.42,233.41 294.76,229.7C293.96,225.72 291.82,222.8 288.57,221.26C285.6,219.86 282.6,219.38 279.61,219.81C278.14,220.04 276.74,220.5 275.45,221.17C273.98,221.94 272.78,223.04 272.01,224.26C270.95,225.67 270.24,227.3 269.89,229.11C269.56,230.8 269.51,232.48 269.73,234.12C269.96,235.84 270.2,237.12 271.06,238.55C272,240.11 273.84,241.5 274.99,242.36C272.91,244.12 270.46,245.99 267.67,247.93C266.14,249 246.29,261.18 244.38,262.16C242.11,263.33 234.89,268.07 233.33,266.62C231.77,265.17 237.57,257.89 239.75,255.22C241.84,252.67 242.15,252.44 243.76,250.4C245.4,248.32 246.77,246.61 247.88,245.28C248.71,244.29 249.26,243.63 249.62,243.1C250.8,241.89 251.31,240.3 251.06,238.59C250.85,237.11 250.24,235.79 249.25,234.65L248.98,234.38C247.69,233.25 246.08,232.73 244.33,232.89C242.56,233.05 241.1,233.88 240.09,235.3C239.78,235.65 239.18,236.33 238.3,237.35C237.11,238.72 237.71,238.19 235.93,240.42C234.15,242.66 232.22,245.23 230.19,248.07C228.12,250.97 226.19,253.96 224.51,256.89C224.01,257.68 223.4,258.82 222.63,260.35C221.83,261.94 221.18,263.65 220.69,265.43C220.15,267.35 219.96,269.33 220.13,271.32C220.32,273.73 221.39,275.79 223.3,277.44C224.36,278.37 225.51,278.99 226.72,279.27C227.69,279.5 228.77,279.61 229.99,279.61C232.2,279.61 234.65,279.12 237.28,278.16C246.67,274.73 267.27,263.25 274.7,258.03C278.69,255.23 285.47,249.78 285.47,249.78C285.47,249.78 288.37,251 288.84,252.4C289.31,253.81 289.02,254.55 288.47,255.32C286.94,257.49 286.18,258.01 284.07,260.68C281.85,263.49 280.29,266.09 279.12,268.28C277.2,271.9 277.76,274.8 278.57,276.6L278.71,276.87C279.88,278.85 282.34,281.21 287.45,281.21C289.85,281.21 293.54,280.57 296.54,279.42C299.29,278.36 301.54,277.22 304.39,275.56C311.45,271.45 321.98,259.04 332.39,245.52C333.94,249.9 337.45,253.74 342.23,256.25C337.92,263.45 333,272.7 341.09,278.06C344.32,280.2 348.51,281.29 353.55,281.29C364.94,281.29 377.16,275.85 379.49,274.75C382.64,273.28 384.01,269.52 382.54,266.37C381.08,263.22 377.24,261.69 374.16,263.31C367.71,266.71 349.82,270.35 349.82,267.91C349.82,266.93 352.64,263.4 353.91,261.3C354.3,260.66 354.69,260.01 355.09,259.35L355.3,259.35C368.17,259.35 377.74,251.02 379.69,238.12C380.72,231.31 378.58,225.11 373.5,220.2C372.36,219.09 371.06,218.06 369.64,217.11C378.93,209.72 396.91,194.08 397.25,183.83ZM348.35,245.21C346.08,244.1 344.17,242.49 344.17,240.98C344.17,239.47 347.88,237.46 349.16,238.6C350.44,239.74 349.71,242 348.35,245.21ZM367.2,236.27C366.55,240.57 364.68,243.58 361.63,245.25C363.06,239.5 362.18,234.71 358.98,230.66C357.93,229.33 356.64,228.27 355.17,227.49C356.13,226.94 357.3,226.18 358.34,225.48C360.21,226.16 363.09,227.49 365.16,229.74C366.93,231.67 367.58,233.74 367.2,236.27Z" style="fill:rgb(230,27,114);fill-rule:nonzero;"/>
            <path d="M486.8,237.82C487.61,236.21 487.69,234.48 487.03,232.83C486.4,231.27 485.21,230.05 483.77,229.41C482.2,228.54 480.45,228.45 478.85,229.16C477.4,229.8 476.18,230.95 475.44,232.57C474.45,234.73 473.83,236.87 473.37,238.96C472.65,238.42 471.8,238.03 470.87,237.81C469.17,237.41 467.5,237.71 466.07,238.66C466.07,238.66 448.6,250.57 439.9,256.59C430.84,262.86 421.79,270.49 419.03,268.41C417.21,267.04 422.13,261.99 423.41,260.39C425.16,258.2 433.89,247.63 435.72,245.45C437.59,243.23 439.27,241.27 440.76,239.55C442.24,237.85 443.92,235.98 445.91,233.8C446.93,232.53 447.43,231.01 447.36,229.4C447.29,227.65 446.52,226.14 445.28,225.14C442.69,222.77 438.9,222.89 436.44,225.55C434.38,227.89 432.53,229.99 430.9,231.85C429.27,233.72 427.42,235.88 425.35,238.31C423.27,240.76 421.36,243.21 419.23,245.75C414.57,251.31 408.39,259.63 404.12,262.92C398.9,266.94 392.35,270.7 388.65,269.13C385.23,267.68 389.06,263.35 389.68,262.65C390.59,261.49 395.33,256.67 396.78,255.31C399.74,252.18 402.32,249.34 404.46,246.88C406.63,244.39 408.41,242.16 409.75,240.27C411.28,238.11 412.22,236.2 412.62,234.42C413.08,232.39 412.84,230.43 411.88,228.49C411.06,226.99 409.98,225.9 408.65,225.24C407.58,224.71 406.44,224.34 405.26,224.17C404.13,224 403.03,223.86 401.97,223.98C401.31,224.05 401.33,224.05 400.03,224.25C398.36,224.56 396.95,225.41 395.95,226.72C394.88,228.12 394.49,229.79 394.81,231.55C395.12,233.26 396.01,234.67 397.36,235.63C397.38,235.64 397.4,235.66 397.42,235.67C396.56,236.67 395.63,237.74 394.61,238.87C393.41,240.2 392.19,241.54 390.94,242.87L380.15,254.47C376.49,258.5 365.37,270.78 372.43,278.36C376.97,283.66 388.84,282.81 396.34,280.12C398.21,279.45 400.06,278.62 401.84,277.66C403.58,276.72 406.56,274.86 406.82,274.67C408.77,278.58 410.83,281.19 416.76,281.22C419.01,281.23 421,280.78 423.53,279.92C432.06,277.01 440.26,271.62 448.97,264.95C448.69,266.69 448.56,268.39 448.8,270C449.14,272.3 450.04,274.34 451.48,276.05C452.35,277.35 453.64,278.49 455.39,279.54C457.22,280.63 459.56,281.26 462.75,281.48L463.83,281.48C469.87,281.48 474.84,279.57 478.6,275.81C483.45,270.96 485.81,264.03 485.61,255.26C485.61,254.49 485.14,246.56 485.27,244.18C485.39,242.06 485.93,239.87 486.8,237.82ZM469.71,266.97C468.31,268.49 466.16,269.16 463.27,269.03C462.27,268.94 461.76,268.79 461.55,268.71L461.37,268.5C461.14,268.24 461.12,268.07 461.12,267.92C461.12,267.25 461.18,266.67 461.34,266C461.63,264.39 461.4,262.85 460.66,261.43C460.06,260.29 459.17,259.43 458.05,258.91L472.68,249.28C472.68,250.33 472.87,255.66 472.87,255.66C473.11,260.9 472.08,264.66 469.71,266.97Z" style="fill:rgb(230,27,114);fill-rule:nonzero;"/>
            <path d="M272.4,246.16C270.14,247.92 262.74,253.01 258.29,255.68L253.12,258.74C248.83,261.3 234.49,270.6 232.23,267.88C229.97,265.16 236.61,256.6 238.77,254.11C240.97,251.56 240.67,251.46 242.42,249.5C244.19,247.51 245.69,245.81 246.81,244.47C247.6,243.53 248.12,242.9 248.46,242.4C249.49,241.3 249.86,240.15 249.68,238.87C249.51,237.66 249.01,236.58 248.2,235.66L248,235.46C247.07,234.65 245.82,234.25 244.47,234.38C243.1,234.5 242.01,235.12 241.24,236.2C240.83,236.67 240.24,237.35 239.37,238.35C238.19,239.71 238.8,239.16 237.03,241.38C235.27,243.59 233.36,246.14 231.34,248.97C229.29,251.85 227.4,254.77 225.74,257.67C225.24,258.48 224.64,259.57 223.9,261.06C223.14,262.57 222.52,264.19 222.05,265.89C221.56,267.65 221.38,269.47 221.53,271.29C221.69,273.32 222.6,275.07 224.22,276.47C225.12,277.25 226.06,277.76 227.04,277.99C229.5,278.58 232.97,278.33 236.79,276.93C237.5,276.67 238.2,276.44 238.91,276.21C240.66,275.63 248.04,272.03 251.44,270.34C255.04,268.54 270.83,259.1 273.19,257.47C275.55,255.84 280.29,252.45 283.28,249.64L272.4,246.16Z" style="fill:rgb(235,156,195);fill-rule:nonzero;"/>
            <path d="M474.08,246.79C474.05,248.21 474.09,249.38 474.09,249.38C474.09,250.41 474.28,255.76 474.28,255.76C474.53,261.41 473.37,265.45 470.71,268.04C469.17,269.7 466.89,270.54 463.92,270.54C463.69,270.54 463.45,270.54 463.21,270.52C462.03,270.42 461.39,270.24 461.04,270.1L460.72,269.98L460.5,269.73C459.91,269.06 459.72,268.58 459.72,268.02C459.72,267.21 459.8,266.52 459.98,265.77C460.2,264.55 460.24,263.15 459.64,262.02C459.18,261.15 457.81,259.64 455.91,259.13C454.4,258.72 452.55,259.25 451.8,260.16C451.05,261.07 450.96,261.56 450.69,262.57C450.42,263.58 450.2,265.28 450.2,265.28C449.95,266.88 449.98,268.44 450.2,269.91C450.5,271.95 451.3,273.75 452.56,275.27C453.41,276.52 454.54,277.52 456.11,278.45C457.77,279.44 459.92,280 462.85,280.2L463.83,280.2C469.48,280.2 474.12,278.43 477.61,274.94C482.18,270.37 484.4,263.8 484.21,255.41C484.21,254.73 483.74,246.65 483.87,244.22C483.99,241.97 484.56,239.6 485.5,237.38L485.54,237.3C486.17,236.04 486.23,234.74 485.72,233.45C485.24,232.27 484.32,231.3 483.19,230.79C481.89,230.07 480.62,230.01 479.42,230.55C478.29,231.05 477.25,231.96 476.66,233.26C475.71,235.32 475.19,236.87 474.74,239.37C474.29,241.87 474.11,245.37 474.08,246.79ZM403.74,264.95C398.59,268.56 389.54,273.15 387.01,269.76C384.2,265.98 388.02,262.54 388.64,261.83C389.54,260.68 394.38,255.76 395.83,254.39C398.73,251.32 401.3,248.5 403.41,246.07C405.54,243.62 407.29,241.43 408.61,239.56C410.03,237.55 410.9,235.81 411.25,234.22C411.64,232.49 411.43,230.86 410.62,229.22C409.97,228.02 409.09,227.13 408.02,226.6C407.08,226.13 406.08,225.82 405.05,225.66C404.04,225.51 403.06,225.37 402.12,225.47C401.4,225.55 401.42,225.55 400.15,225.75C398.96,225.97 397.85,226.64 397.06,227.67C396.22,228.76 395.62,230.28 396.49,231.77C397.11,232.82 401.71,232.88 401.71,232.88L398.48,236.68C397.62,237.69 396.67,238.76 395.65,239.9C394.44,241.24 393.21,242.58 391.97,243.92L381.18,255.52C377.75,259.31 367.27,270.86 373.46,277.5C377.69,282.43 389.05,281.34 395.87,278.89C397.67,278.25 399.46,277.45 401.18,276.52C402.41,275.85 403.6,275.15 404.73,274.43C404.5,270.43 404.53,269.24 403.74,264.95ZM407.54,272.3C407.91,274.77 408.93,276.62 410.92,278.16C414.06,280.58 417.93,280.43 423.09,278.69C432.91,275.38 445.92,265.66 449.28,263.4C449.28,263.4 449.83,260.29 451.42,258.7C454.63,255.49 457.87,256.22 459.5,256.56L470.41,249.48C470.41,249.48 471.19,243.18 471.81,239.73C471.41,239.53 470.99,239.37 470.53,239.26C469.22,238.95 467.94,239.18 466.83,239.92C466.25,240.39 449.08,251.55 440.42,257.75C431,264.5 421.31,271.61 418.5,269.85C415.69,268.09 418.9,263.93 418.9,263.93C419.89,262.65 421.02,261.2 422.31,259.59C424.09,257.37 432.8,246.81 434.65,244.62C436.52,242.4 438.21,240.42 439.71,238.7C441.2,236.99 442.88,235.11 444.89,232.92C445.63,231.99 446.03,230.79 445.97,229.53C445.91,228.21 445.36,227.07 444.41,226.31C442.28,224.36 439.4,224.5 437.48,226.58C435.44,228.89 433.6,230.99 431.97,232.86C430.34,234.73 428.49,236.88 426.43,239.3C424.37,241.73 422.45,244.24 420.3,246.75C417.34,250.13 413.43,254.84 410.17,258.94C407.12,262.82 407.17,269.83 407.54,272.3Z" style="fill:rgb(235,156,195);fill-rule:nonzero;"/>
            <g>
                <g>
                    <path d="M260.74,221.91C260.76,221.75 260.79,221.6 260.85,221.45C260.81,221.56 260.76,221.67 260.72,221.78C260.82,221.55 260.96,221.34 261.13,221.16C261.05,221.24 260.98,221.32 260.9,221.39C261.12,221.17 261.39,221 261.68,220.9C261.58,220.94 261.47,220.97 261.37,221.01C261.6,220.93 261.83,220.9 262.07,220.92C261.95,220.91 261.83,220.9 261.71,220.89C261.78,220.9 261.85,220.91 261.92,220.92C262.1,220.98 262.27,220.97 262.43,220.89C262.6,220.86 262.73,220.76 262.82,220.6C262.92,220.43 262.97,220.26 262.97,220.06C263,219.84 262.99,219.62 262.92,219.4C262.78,218.88 262.53,218.36 262.16,217.96C261.86,217.63 261.48,217.28 261.02,217.19C260.66,217.12 260.26,217.09 259.9,217.18C259.55,217.27 259.2,217.4 258.9,217.62C258.61,217.83 258.34,218.11 258.15,218.41C258.03,218.61 257.94,218.84 257.86,219.06C257.81,219.19 257.78,219.33 257.77,219.47C257.72,219.68 257.72,219.9 257.77,220.11C257.79,220.36 257.86,220.6 257.97,220.83C258.08,221.09 258.22,221.33 258.4,221.55C258.55,221.77 258.72,221.97 258.94,222.14C259.07,222.23 259.2,222.31 259.33,222.4C259.56,222.53 259.8,222.59 260.07,222.58C260.17,222.54 260.28,222.51 260.38,222.47C260.57,222.33 260.69,222.14 260.74,221.91Z" style="fill:white;fill-rule:nonzero;"/>
                </g>
            </g>
            <path d="M354.3,257.94C356.28,254.64 357.97,251.45 359.45,247.6C361.44,242.04 361.77,236.42 357.89,231.52C355.74,228.79 352.46,227.37 348.79,227.37C347.8,227.37 346.77,227.47 345.74,227.69C343.19,228.14 338.02,229.14 335.67,232.02C332.87,235.45 332.7,238.61 333.09,242.59C333.81,246.99 336.71,251.91 341.73,254.37C341.73,254.37 343.62,252.38 344.98,250.12C346.34,247.86 346.78,245.95 346.78,245.95C344.05,244.6 342.87,243 342.68,241.1C342.43,238.71 348.01,235.72 350.2,237.62C352.39,239.51 350.9,243.19 349.08,247.04C348.04,249.6 346.22,252.33 344.24,255.68C339.84,262.97 334.46,272 341.89,276.91C345.19,279.1 349.3,279.9 353.57,279.9C358.32,279.9 363.27,278.9 367.53,277.69C368.92,274.31 369.66,271.82 370.58,266.25C362.79,268.95 350.32,271.82 348.74,269.14C347.55,267.12 351.09,263.3 352.72,260.6C353.23,259.73 353.76,258.85 354.3,257.94Z" style="fill:rgb(235,156,195);fill-rule:nonzero;"/>
            <path d="M371.23,214.02C382.78,204.53 395.59,191.91 395.85,183.76C395.96,180.33 394.25,177.49 391.14,175.97C382.27,171.62 365.9,187.35 337.25,222.53C323.39,239.54 316.32,248.52 306.83,259.93C300.59,267.44 292.03,270.88 290.77,269.78C289.79,268.92 293.88,265.17 295.98,262.93C297.12,261.71 298.11,260.39 298.82,259.16C299.55,257.89 300.1,256.55 300.45,255.17C300.82,253.69 300.79,252.03 300.36,250.11C299.98,248.69 299.38,247.31 298.58,246.07C297.75,244.78 296.18,242.89 295.14,241.85C294.36,241.33 292.02,239.36 292.02,239.36C292.02,239.36 284.03,232.27 284.28,231.51C284.3,231.44 285.43,229.91 285.88,230.1C286.33,230.3 286.11,232.22 286.81,232.58C289.49,233.94 293.34,236.04 293.4,235.76C293.8,233.93 293.75,232.09 293.39,230.04C292.69,226.54 290.82,223.96 287.98,222.62C285.28,221.34 282.52,220.9 279.82,221.29C278.51,221.49 277.26,221.9 276.1,222.51C274.88,223.14 273.85,224.07 273.2,225.11C272.2,226.45 271.57,227.89 271.26,229.48C270.96,231.01 270.92,232.55 271.11,234.03C271.32,235.57 271.81,236.99 272.57,238.26C273.36,239.58 274.16,240.1 275.62,241.21C277.07,242.32 280.95,245.09 284.5,247.49C288.05,249.88 289.2,250.03 290.04,252.04C290.88,254.06 290.01,255.25 289.19,256.26C287.49,258.37 287.06,259 285.07,261.45C282.85,264.18 281.49,266.91 280.35,269.05C278.69,272.16 279.16,274.62 279.84,276.14L279.95,276.34C280.9,278.22 283.11,279.43 287.45,279.93C290.25,280.25 298.12,278.01 303.81,274.38C311.07,269.75 322.41,255.59 331.92,243.94C331.92,243.94 331.04,239.37 331.81,236.05C332.59,232.73 335.56,229.3 339.76,227.71C341.71,226.97 343.53,226.69 344.73,226.47C344.31,225.24 343.73,225.28 343.36,222.07C343.04,219.31 345.2,215.84 346.55,215.03C348.39,213.91 350.37,212.9 354.62,212.59C358.22,210.81 366.59,204.23 369.56,199.83C378.23,189.67 382.42,183.98 384.88,186.09C387.59,188.41 379.33,193.9 369.88,202.29C366.95,204.89 364.03,207.32 361.35,209.45C360.74,209.94 360.15,210.37 359.58,210.76C363.8,211.73 367.64,212.77 371.23,214.02Z" style="fill:rgb(235,156,195);fill-rule:nonzero;"/>
            <path d="M367.46,217.13C362.83,214.09 360.24,212.28 352.54,213.97L350.62,214.39C348.16,215.1 346.58,215.98 345.36,218.97C344.71,220.56 344.8,221.8 345.23,222.91C345.23,222.91 348.78,222.62 352.1,223.76C355.42,224.89 355.71,225.53 355.71,225.53C356.51,225.04 357,224.71 358.14,223.93C360.72,224.78 363.93,226.34 366.2,228.79C368.26,231.02 369.04,233.53 368.6,236.47C367.78,241.92 365.19,244.86 362.38,246.43C361.38,251.06 360.97,252.86 359.26,257.68C369.37,256.16 376.67,248.76 378.3,237.94C379.26,231.6 377.26,225.82 372.52,221.23C370.91,219.68 370.56,219.16 367.46,217.13Z" style="fill:rgb(235,156,195);fill-rule:nonzero;"/>
            <g>
                <g>
                    <path d="M284.08,222.8C282.68,222.62 281.22,222.81 279.89,223.29C278.77,223.7 277.81,224.39 277.02,225.27C276.8,225.52 276.98,225.93 277.16,226.12C277.44,226.43 277.97,226.64 278.37,226.73C279.25,226.92 280.37,226.92 281.01,226.2C281.06,226.14 281.11,226.09 281.17,226.03C281.09,226.11 281.01,226.19 280.94,226.27C281.33,225.87 281.78,225.53 282.28,225.25C282.16,225.31 282.05,225.38 281.93,225.44C282.18,225.31 282.43,225.19 282.7,225.09C282.77,225.06 282.84,225.04 282.92,225.01C283.18,224.92 282.54,225.12 282.74,225.06C282.88,225.02 283.01,224.99 283.15,224.96C283.21,224.95 283.28,224.94 283.34,224.93C283.65,224.88 283.14,224.95 283.1,224.96C283.25,224.95 283.4,224.93 283.56,224.92L283.75,224.92C283.99,224.92 283.15,224.9 283.46,224.92C283.61,224.93 283.77,224.94 283.92,224.96C284.38,225.02 284.99,224.96 285.43,224.77C285.69,224.66 286.11,224.4 286.11,224.06C286.08,223.16 284.74,222.89 284.08,222.8Z" style="fill:white;fill-rule:nonzero;"/>
                </g>
            </g>
            <path d="M362.1,215.19C360.61,214.26 354.99,213.96 352.78,215.52C351.79,216.22 352.39,216.91 352.52,217.14C352.67,217.39 353.21,217.55 353.45,217.61C353.97,217.75 354.52,217.83 355.06,217.82C355.49,217.81 355.94,217.8 356.34,217.63C356.58,217.53 356.83,217.44 357.08,217.35C357.35,217.25 356.87,217.4 357.17,217.32C357.28,217.29 357.39,217.26 357.5,217.23C357.61,217.2 357.72,217.18 357.83,217.16C357.88,217.15 358.34,217.06 358.06,217.11C357.78,217.17 358.24,217.09 358.29,217.08C358.4,217.07 358.52,217.06 358.63,217.05C359.04,217.01 358.16,217.05 358.58,217.05L358.92,217.05C359.33,217.05 358.37,217.01 358.87,217.05C359,217.06 359.14,217.06 359.27,217.09C359.16,217.08 359.05,217.06 358.94,217.05C359.01,217.06 359.09,217.07 359.16,217.08C359.27,217.1 359.38,217.13 359.49,217.14C358.93,217.06 359.3,217.1 359.44,217.13C359.59,217.17 359.73,217.21 359.88,217.25C360.38,217.4 360.97,217.46 361.49,217.46C361.86,217.46 362.42,217.45 362.77,217.27C363.58,216.86 363.6,216.12 362.1,215.19Z" style="fill:white;fill-rule:nonzero;"/>
            <path d="M390.72,178.06C390.39,177.94 390.07,177.8 389.73,177.71C389.38,177.61 389.02,177.55 388.66,177.49C388.1,177.39 387.55,177.38 386.97,177.4C385.87,177.42 384.82,177.72 383.82,178.14C383.48,178.28 383.15,178.71 383.12,179.08C383.09,179.48 383.34,179.89 383.65,180.13C384.06,180.44 384.58,180.64 385.1,180.67L385.66,180.67C386,180.64 386.32,180.55 386.62,180.39C386.64,180.38 386.67,180.37 386.69,180.36C386.54,180.42 386.39,180.48 386.25,180.54C386.6,180.4 386.96,180.29 387.33,180.22C387.16,180.25 386.99,180.29 386.82,180.32C387.19,180.25 387.57,180.21 387.94,180.21L387.38,180.21C387.73,180.21 388.08,180.24 388.43,180.31C388.25,180.28 388.06,180.24 387.88,180.21C388.2,180.27 388.52,180.36 388.82,180.47C388.66,180.41 388.49,180.35 388.33,180.28C388.35,180.29 388.38,180.3 388.4,180.31C388.93,180.51 389.42,180.65 390,180.59C390.42,180.55 391.01,180.38 391.31,180.05C391.57,179.76 391.76,179.38 391.62,178.99C391.46,178.58 391.11,178.21 390.72,178.06Z" style="fill:white;fill-rule:nonzero;"/>
            <path d="M350.49,229.97C347.93,229.31 345.14,229.32 342.6,230.09C342.23,230.2 341.77,230.37 341.57,230.74C341.4,231.05 341.47,231.44 341.7,231.7C342.33,232.41 343.64,232.66 344.53,232.39C345.01,232.24 345.5,232.15 345.99,232.04C345.42,232.17 345.79,232.07 345.94,232.05C346.07,232.03 346.21,232.02 346.34,232.01C346.59,231.99 346.84,231.97 347.09,231.97L347.44,231.97C346.78,231.98 347.18,231.97 347.34,231.98C347.61,231.99 347.88,232.01 348.15,232.04C348.26,232.05 348.38,232.07 348.49,232.08C348.92,232.13 347.97,231.98 348.39,232.06C348.65,232.11 348.92,232.17 349.18,232.24C349.69,232.37 350.3,232.39 350.8,232.26C351.13,232.18 351.66,231.96 351.83,231.61C352.23,230.73 351.18,230.15 350.49,229.97Z" style="fill:white;fill-rule:nonzero;"/>
            <g>
                <g>
                    <path d="M406.88,228.42C406.26,227.96 405.53,227.63 404.79,227.43C404.68,227.4 404.57,227.38 404.46,227.36C404.17,227.31 403.89,227.25 403.6,227.23C403.19,227.2 402.76,227.19 402.35,227.24C401.91,227.29 401.39,227.41 401.05,227.72C400.79,227.95 400.61,228.35 400.75,228.7C400.91,229.09 401.26,229.39 401.65,229.56C402.14,229.77 402.71,229.89 403.25,229.83C403.39,229.81 403.53,229.81 403.67,229.81L403.11,229.81C403.31,229.81 403.5,229.83 403.69,229.86C403.51,229.83 403.32,229.8 403.14,229.77C403.35,229.81 403.55,229.86 403.75,229.93C403.59,229.87 403.42,229.81 403.26,229.76C403.47,229.84 403.67,229.93 403.86,230.04C403.72,229.96 403.59,229.88 403.45,229.8C403.56,229.86 403.66,229.93 403.76,230.01C404.17,230.31 404.71,230.47 405.21,230.52C405.49,230.55 405.76,230.54 406.03,230.48C406.27,230.46 406.51,230.39 406.73,230.27C407.04,230.09 407.42,229.82 407.42,229.41C407.42,228.99 407.2,228.66 406.88,228.42Z" style="fill:white;fill-rule:nonzero;"/>
                </g>
            </g>
            <g>
                <g>
                    <path d="M457.28,261.08C456.96,260.87 456.51,260.73 456.14,260.64C455.71,260.55 455.2,260.49 454.77,260.53C454.34,260.56 453.98,260.62 453.58,260.76C453.42,260.82 453.27,260.9 453.12,260.98C453.07,261.01 453.02,261.03 452.98,261.06C452.72,261.24 452.49,261.49 452.32,261.75C452.2,261.95 452.1,262.17 452.01,262.39C451.91,262.51 451.89,262.64 451.94,262.78C451.95,262.94 452.02,263.07 452.16,263.17C452.31,263.31 452.48,263.42 452.68,263.49C452.9,263.6 453.13,263.68 453.38,263.73C453.91,263.84 454.48,263.89 455,263.77C455.15,263.73 455.29,263.69 455.44,263.65C455.67,263.58 455.86,263.45 456.02,263.26C456.17,262.9 456.34,262.53 456.63,262.25C456.55,262.32 456.48,262.39 456.4,262.47C456.48,262.39 456.57,262.33 456.68,262.28C456.57,262.34 456.45,262.39 456.33,262.45C456.39,262.42 456.46,262.4 456.52,262.38C456.37,262.42 456.23,262.46 456.08,262.5C456.13,262.49 456.18,262.48 456.23,262.47C456.06,262.49 455.89,262.51 455.72,262.53C455.76,262.53 455.8,262.52 455.84,262.52C455.65,262.52 455.47,262.51 455.28,262.51C455.31,262.51 455.35,262.51 455.38,262.52C455.2,262.49 455.01,262.46 454.83,262.44C454.86,262.45 454.89,262.45 454.93,262.46C454.77,262.41 454.6,262.36 454.44,262.32C454.48,262.33 454.52,262.35 454.56,262.36C454.42,262.3 454.29,262.23 454.15,262.17C454.18,262.18 454.21,262.2 454.24,262.22C454.45,262.34 454.66,262.43 454.9,262.48C455.16,262.57 455.43,262.62 455.7,262.64C455.97,262.67 456.24,262.67 456.51,262.63C456.75,262.62 456.98,262.57 457.2,262.48C457.31,262.42 457.43,262.37 457.55,262.31C457.73,262.2 457.84,262.04 457.88,261.84C457.86,261.75 457.85,261.66 457.83,261.57C457.66,261.35 457.49,261.19 457.28,261.08Z" style="fill:white;fill-rule:nonzero;"/>
                </g>
            </g>
            <path d="M481.82,231.43C481.2,231.32 480.58,231.41 479.98,231.55C479.84,231.58 479.7,231.63 479.56,231.68C479.3,231.79 479.02,231.9 478.77,232.05C478.42,232.27 478.08,232.53 477.82,232.86C477.66,233.07 477.49,233.28 477.38,233.52C477.26,233.76 477.2,234.02 477.13,234.28C477.11,234.49 477.15,234.68 477.26,234.86C477.34,235.06 477.47,235.23 477.65,235.37C477.84,235.54 478.06,235.66 478.3,235.73C478.55,235.85 478.82,235.91 479.1,235.93C479.61,235.96 480.18,235.92 480.62,235.63C480.74,235.54 480.86,235.45 480.97,235.36C481.17,235.17 481.29,234.93 481.32,234.65C481.33,234.63 481.33,234.61 481.34,234.58C481.3,234.71 481.27,234.83 481.23,234.96C481.3,234.73 481.41,234.52 481.55,234.33C481.47,234.44 481.39,234.55 481.31,234.66C481.44,234.49 481.59,234.34 481.76,234.21C481.64,234.3 481.52,234.39 481.41,234.48C481.56,234.36 481.73,234.27 481.91,234.19C481.76,234.25 481.61,234.32 481.47,234.38C481.61,234.32 481.74,234.28 481.89,234.25C481.72,234.28 481.55,234.32 481.38,234.35C481.51,234.32 481.65,234.31 481.78,234.31L481.22,234.31C481.34,234.31 481.47,234.32 481.59,234.34C481.87,234.37 482.14,234.36 482.41,234.29C482.66,234.26 482.89,234.18 483.11,234.05C483.31,233.95 483.47,233.81 483.58,233.62C483.72,233.47 483.8,233.29 483.81,233.08C483.82,232.65 483.62,232.26 483.29,232C483.16,231.91 483.02,231.82 482.89,231.74C482.53,231.56 482.19,231.46 481.82,231.43Z" style="fill:white;fill-rule:nonzero;"/>
            <path d="M443.6,228.69C443.46,228.48 443.27,228.29 443.08,228.13C443.04,228.09 442.99,228.06 442.95,228.03C442.77,227.91 442.59,227.79 442.4,227.7C442.2,227.6 441.99,227.54 441.79,227.46C441.73,227.44 441.67,227.42 441.6,227.41C441.31,227.35 441.01,227.28 440.71,227.27C440.42,227.26 440.11,227.25 439.82,227.29C439.54,227.33 439.25,227.37 438.98,227.47C438.73,227.56 438.46,227.65 438.23,227.79C438.02,227.92 437.8,228.07 437.61,228.24C437.22,228.62 437.01,229.04 436.91,229.57C436.84,229.95 437.17,230.38 437.44,230.59C437.64,230.75 437.85,230.86 438.09,230.93C438.34,231.04 438.61,231.1 438.89,231.12C439.39,231.15 439.96,231.12 440.41,230.85C440.53,230.77 440.64,230.68 440.76,230.6C440.96,230.42 441.07,230.2 441.11,229.93C441.12,229.88 441.13,229.84 441.14,229.79C441.1,229.91 441.07,230.03 441.03,230.15C441.08,230.01 441.14,229.88 441.23,229.76C441.15,229.86 441.07,229.97 440.99,230.07C441.08,229.96 441.18,229.87 441.29,229.79C441.17,229.87 441.06,229.96 440.94,230.04C441.05,229.97 441.16,229.9 441.29,229.85C441.14,229.91 440.99,229.97 440.85,230.03C440.96,229.99 441.07,229.96 441.18,229.94C441.01,229.97 440.84,230 440.67,230.03C440.78,230.01 440.9,230 441.01,230L440.45,230C440.54,230 440.64,230.01 440.73,230.02C440.55,229.99 440.36,229.95 440.18,229.92C440.27,229.94 440.36,229.96 440.45,229.99C440.29,229.93 440.12,229.87 439.96,229.81C440.05,229.84 440.13,229.88 440.21,229.93C440.07,229.85 439.94,229.76 439.8,229.68C439.88,229.73 439.95,229.79 440.02,229.85C439.92,229.75 439.82,229.65 439.72,229.54C439.78,229.6 439.83,229.67 439.88,229.74C440.02,229.92 440.18,230.07 440.39,230.17C440.6,230.32 440.83,230.42 441.08,230.48C441.35,230.56 441.63,230.59 441.91,230.58C442.18,230.6 442.44,230.57 442.7,230.49C443.09,230.36 443.56,230.16 443.73,229.76C443.77,229.64 443.8,229.52 443.84,229.4C443.84,229.14 443.77,228.9 443.6,228.69Z" style="fill:white;fill-rule:nonzero;"/>
            <path d="M248.01,237.34C247.87,237.13 247.68,236.94 247.49,236.78C247.45,236.74 247.4,236.71 247.36,236.68C247.18,236.56 247,236.44 246.81,236.35C246.61,236.25 246.4,236.19 246.2,236.11C246.14,236.09 246.08,236.07 246.01,236.06C245.72,236 245.42,235.93 245.12,235.92C244.83,235.91 244.52,235.9 244.23,235.94C243.95,235.98 243.66,236.02 243.39,236.12C243.14,236.21 242.87,236.3 242.64,236.44C242.43,236.57 242.21,236.72 242.02,236.89C241.63,237.27 241.42,237.69 241.32,238.22C241.25,238.6 241.58,239.03 241.85,239.24C242.05,239.4 242.26,239.51 242.5,239.58C242.75,239.69 243.02,239.75 243.3,239.77C243.8,239.8 244.37,239.77 244.82,239.5C244.94,239.42 245.05,239.33 245.17,239.25C245.37,239.07 245.48,238.85 245.52,238.58C245.53,238.53 245.54,238.49 245.55,238.44C245.51,238.56 245.48,238.68 245.44,238.8C245.49,238.66 245.55,238.53 245.64,238.41C245.56,238.51 245.48,238.62 245.4,238.72C245.49,238.61 245.59,238.52 245.7,238.44C245.58,238.52 245.47,238.61 245.35,238.69C245.46,238.62 245.57,238.55 245.7,238.5C245.55,238.56 245.4,238.62 245.26,238.68C245.37,238.64 245.48,238.61 245.59,238.59C245.42,238.62 245.25,238.65 245.08,238.68C245.19,238.66 245.31,238.65 245.42,238.65L244.86,238.65C244.95,238.65 245.05,238.66 245.14,238.67C244.96,238.64 244.77,238.6 244.59,238.57C244.68,238.59 244.77,238.61 244.86,238.64C244.7,238.58 244.53,238.52 244.37,238.46C244.46,238.49 244.54,238.53 244.62,238.58C244.48,238.5 244.35,238.41 244.21,238.33C244.29,238.38 244.36,238.44 244.43,238.5C244.33,238.4 244.23,238.3 244.13,238.19C244.19,238.25 244.24,238.32 244.29,238.39C244.43,238.57 244.59,238.72 244.8,238.82C245.01,238.97 245.24,239.07 245.49,239.13C245.76,239.21 246.04,239.24 246.32,239.23C246.59,239.25 246.85,239.22 247.11,239.14C247.5,239.01 247.97,238.81 248.14,238.41C248.18,238.29 248.21,238.17 248.25,238.05C248.25,237.79 248.18,237.55 248.01,237.34Z" style="fill:white;fill-rule:nonzero;"/>
            <g>
                <g>
                    <path d="M298.46,247.96C298.07,246.64 297.14,245.53 295.99,244.8C295.71,244.62 295.24,244.63 294.94,244.69C294.57,244.76 294.13,244.97 293.88,245.26C293.67,245.49 293.44,245.81 293.48,246.15C293.51,246.48 293.67,246.7 293.95,246.88C294.06,246.95 294.16,247.02 294.26,247.09C294.18,247.03 294.1,246.97 294.01,246.91C294.46,247.25 294.85,247.66 295.16,248.13C295.11,248.05 295.05,247.96 295,247.88C295.26,248.28 295.46,248.72 295.6,249.17C295.68,249.46 296.06,249.65 296.32,249.72C296.67,249.8 297.13,249.74 297.46,249.59C297.8,249.43 298.16,249.21 298.35,248.87C298.4,248.77 298.44,248.67 298.49,248.57C298.54,248.35 298.53,248.15 298.46,247.96Z" style="fill:white;fill-rule:nonzero;"/>
                </g>
            </g>
        </g>
    </g>
</svg>
