<?xml version="1.0" encoding="utf-8"?>
<!-- Generator: Adobe Illustrator 25.0.1, SVG Export Plug-In . SVG Version: 6.00 Build 0)  -->
<svg version="1.1" xmlns="http://www.w3.org/2000/svg" xmlns:xlink="http://www.w3.org/1999/xlink" x="0px" y="0px"
	 viewBox="0 0 841.89 595.28" style="enable-background:new 0 0 841.89 595.28;" xml:space="preserve">
<style type="text/css">
	.st0{fill:#FFEC00;}
	.st1{fill:#E61B72;}
	.st2{fill:#EB9CC3;}
	.st3{fill:#FFFFFF;}
	.st4{fill:#EC9DC4;}
</style>
<g id="Lag_4">
	<path class="st0" d="M219.72,283c7.84,5.17,16.56,2.97,19.95,1.73c7.95-2.9,22.21-10.55,31.87-16.39
		c-1.15,3.77-0.94,7.62,0.64,11.13l0.5,0.96c0.1,0.17,0.21,0.34,0.32,0.52c-5.82-0.29-11.36,2.28-14.98,5.23
		c-5.92,4.84-8.51,11.92-6.77,18.46c0.76,2.85,2.13,5.36,4,7.35c-8.06,14.32-23.29,39.26-34.66,55.38
		c-8.95-8.83-22.11-10.98-33.02-8.7c-17.65,3.68-29.31,17.39-28.35,33.34c0.64,10.65,6.28,19.22,15.47,23.5
		c4.33,2.02,9.24,3.04,14.6,3.04c0.21,0,0.43,0,0.65-0.01c9.76-0.15,21.02-4.28,30.12-11.05c9.34-6.95,24.15-27.65,35.99-45.18
		c1.58,0.87,3.38,1.56,5.4,2.08c-0.87,10.58-0.37,28.18,8.11,36.27c5.93,5.65,16.56,11.55,33.56,7.6c5.18-1.21,9.85-2.51,14.15-3.97
		c6.36,3.95,14.43,5.35,23.18,3.93c6.69-1.08,13.05-2.9,19-5.42c4.25,4.06,11.67,5.76,22.4,0.71c1.37-0.64,2.92-1.53,4.44-2.46
		c2.4,2.04,5.81,3.47,11.05,3.5l0.3,0c3.47-0.02,6.28-0.81,8.81-1.67c6.46-2.2,12.54-5.6,18.09-9.29c0.56,1.06,1.23,2.08,2,3.03
		c1.45,2.05,3.39,3.78,5.92,5.28c2.84,1.69,6.16,2.61,10.45,2.91l1.56,0.02c7.85,0,14.67-2.67,19.71-7.71
		c0.28-0.28,0.55-0.57,0.82-0.87c1.81,2.85,4.31,5.22,7.38,6.92c18.6,10.33,37.15-5.15,46.55-15.3c1.22-1.32,2.38-2.64,3.46-3.95
		c-0.02,3.66,0.65,7.21,2.03,10.52c2.23,5.36,6.59,9.31,12.28,11.14c2.28,0.73,4.87,1.1,7.68,1.1c10.81,0,24.63-5.58,36.18-11.45
		c0.78,1.46,1.7,2.82,2.72,4.04c5.88,6.99,12.97,10.1,23.72,10.41l0.22,0.01l0.22-0.01c10.94-0.38,21.09-4.2,30.15-11.36
		c6.06-4.78,14.97-15.82,18.52-20.35c5.2-6.63,9.96-13.21,12.87-17.32c3.22,0.31,6.74-0.42,10.16-2.83c0.18,0.13,0.35,0.28,0.5,0.43
		c0.12,0.12,0.2,0.21,0.25,0.27c0.01,0.05,0.01,0.11,0.02,0.19c-1.26,1.85-4.5,5.54-6.35,7.64c-1.07,1.22-2.08,2.37-2.92,3.36
		c-4.8,5.68-13.73,16.25-8.14,28.07c4,8.47,14.28,11.75,27.5,8.8c13.06-2.92,25.19-11.77,27.46-14.02
		c7.61-7.53,4.28-14.55,1.62-18.06c-2.21-2.92-5.57-4.82-9.22-5.21c-2.31-0.25-4.58,0.1-6.62,1c1.53-2.71,2.76-5.68,3.12-8.69
		c1.02-8.43-1-14.85-6.71-20.94c4.39-4.53,9.29-10.24,13.45-15.75c12.83-16.99,12.82-23.99,12.82-26.29
		c-0.01-6.78-3.72-12.49-9.93-15.28c-9.58-4.3-19.72,4.09-28.37,12.88c-8.57,8.71-19.5,21.93-37.72,45.64
		c-3.4,4.42-6.2,8.28-8.68,11.73c-0.28-3.88-1.86-7.49-4.56-10.32c-3.59-3.77-8.61-5.81-14.52-5.91c-0.12,0-0.24,0-0.35,0
		c-9.63,0-20.51,5.27-29.91,14.52c-0.53,0.52-1.04,1.04-1.54,1.56c-0.15-0.82-0.34-1.62-0.58-2.41
		c-3.92-12.81-16.85-16.47-27.02-13.42c-9.37,2.81-20.47,10.55-28.52,19.72c-0.24-0.01-0.47-0.01-0.71-0.02
		c-0.04-0.45-0.1-0.9-0.17-1.34c-0.74-4.56-3.06-8.63-6.56-11.61c19.31-12.86,40.52-36.02,43.17-49.01
		c1.14-5.59-0.34-10.92-4.05-14.63c-3.15-3.16-7.49-4.8-12.28-4.63c-7.83,0.37-22.87,6.44-62.91,54.73
		c-6.52,7.86-11.62,14.67-15.62,20.63c0-1.65-0.29-3.3-0.93-4.9c-1.26-3.14-3.61-5.64-6.63-7.08c-4.14-2.15-9.49-1.75-13.12,1.01
		c-0.39,0.3-1,0.77-1.75,1.35c-2.53,1.96-7.23,5.62-9.79,7.31l-0.1,0.07c-0.12,0.08-7.81,5.32-15.51,10.6
		c0.76-0.93,1.35-1.67,1.71-2.16c2-2.55,3.02-5.72,2.88-8.94c-0.15-3.65-1.79-7.01-4.52-9.28c-2.8-2.48-6.56-3.68-10.33-3.3
		c-3.56,0.36-6.75,2.16-8.75,4.93c-2.09,2.89-14.28,16.46-24.08,26.52c0.21-0.95,0.41-1.8,0.71-2.98l0.18-0.71
		c0.75-2.92,1.34-5.23,1.72-7.7c0.54-3.54,0.48-6.57-0.18-9.25c-0.9-3.63-2.89-6.62-5.92-8.88l-0.21-0.15
		c-2.55-1.77-5.43-2.71-8.31-2.71c-0.01,0-0.02,0-0.03,0c-1.93,0-3.85,0.31-5.66,0.9c-1.41,0.46-3.05,1.04-4.69,2.09
		c-0.63,0.41-0.63,0.4-1.86,1.28l-0.15,0.11c-1.69,1.27-3.04,2.89-3.98,4.73c-1.16-1-2.43-1.89-3.8-2.62
		c-6.52-3.52-14.33-3.75-21.99-0.65c-1.89,0.76-3.74,1.73-5.54,2.88c8.95-10.37,13.22-24.88,9.97-36.66
		c-3.68-13.37-14.56-21.89-30.05-23.71c1.09-0.56,2.24-1.2,3.49-1.93c5.88-3.42,13.44-11.01,24.06-24.23
		c0.35,0.34,0.71,0.68,1.09,1.01c-3.61,7.45-6.58,18.39,4.17,25.51c7.86,5.21,19.33,5.73,33.02,1.75c3.29,2.21,7.66,3.43,12.87,3.56
		c5.08,0.13,10.77-0.79,15.6-2.52c2.1-0.75,4.17-1.67,6.18-2.74c2.59,2.46,6.26,4.22,11.84,4.25c3.59,0.02,6.49-0.79,9.07-1.67
		c6.46-2.2,12.54-5.6,18.09-9.29c0.56,1.06,1.23,2.07,2,3.03c1.45,2.05,3.39,3.78,5.92,5.28c2.84,1.69,6.16,2.61,10.45,2.91
		l1.56,0.02c7.85,0,14.67-2.67,19.72-7.72c6.25-6.25,9.3-14.88,9.06-25.66c-0.01-0.37-0.04-1.17-0.09-2.21
		c-0.1-2.09-0.33-6.97-0.26-8.33c0.07-1.24,0.38-2.57,0.91-3.86c1.59-3.34,1.72-7.05,0.34-10.49c-1.26-3.14-3.6-5.64-6.62-7.07
		c-3.42-1.8-7.38-1.94-10.89-0.38c-3.06,1.36-5.53,3.81-6.93,6.88c-0.15,0.33-0.3,0.67-0.45,1.01c-2.29,0.14-4.51,0.89-6.51,2.22
		c-0.12,0.08-7.8,5.31-15.48,10.57c1.26-1.44,2.69-3.03,4.43-4.93l0.3-0.35c2.06-2.57,3.12-5.79,2.98-9.07
		c-0.15-3.64-1.79-7.01-4.51-9.28c-5.46-4.84-13.56-4.43-18.55,0.98l-0.1,0.11c-2.07,2.35-3.93,4.46-5.56,6.33
		c-1.65,1.89-3.52,4.07-5.61,6.53c-0.09,0.1-0.17,0.2-0.26,0.3c0.32-2.99-0.22-5.92-1.62-8.72l-0.12-0.23
		c-1.5-2.74-3.66-4.87-6.24-6.16c-1.73-0.86-3.58-1.45-5.47-1.73c-1.47-0.22-3.2-0.44-5.13-0.23c-0.74,0.08-0.74,0.08-2.23,0.31
		l-0.18,0.03c-3.36,0.62-6.34,2.43-8.37,5.1c-1.14,1.48-1.92,3.14-2.34,4.89c-0.62,0.06-1.19,0.08-2.2,0.07
		c-1.06-3.64-2.91-7.05-5.5-10.09c15.57-13.39,23.6-24.57,23.88-33.28c0.22-6.78-3.29-12.61-9.4-15.61
		c-4.58-2.25-12.3-3.87-26.44,8.06c-8.91,7.52-20.48,20.08-37.52,40.73c-5.99,7.25-10.63,13.01-14.73,18.08
		c-2.92,3.62-5.62,6.96-8.39,10.33c-0.56-1.48-1.27-2.9-2.12-4.23c-0.81-1.26-2.26-2.94-3.78-4.5c0.63-2.96,0.3-5.58-0.21-8.45
		l-0.03-0.16c-1.23-6.15-4.81-10.91-10.08-13.4c-4.23-1.99-8.58-2.68-13.02-2.03c-1.97,0.31-3.86,0.9-5.63,1.75
		c-0.59-1.12-1.32-2.14-2.21-3.03c-1.7-1.7-3.67-2.87-5.82-3.5c-9.62,0.04-16.74,5.91-15.5,5.9c-1.21,1.18-2.57,2.52-3.49,3.47
		c-2.06,2.11-3.25,5.2-3.37,8.59c-3.15,0.57-5.89,2.24-7.84,4.78c-0.35,0.4-0.91,1.03-1.65,1.89c-0.78,0.9-1.07,1.3-1.42,1.8
		c-0.18,0.25-0.39,0.57-1.14,1.5c-1.85,2.33-3.85,5-5.95,7.94c-2.19,3.06-4.2,6.19-5.99,9.29c-0.6,0.98-1.28,2.23-2.13,3.92
		C216.14,257.67,213.65,278.99,219.72,283z M129.74,276.21c0.01,0,0.01,0,0.02,0.01c0,0,0,0,0.01,0
		C129.76,276.22,129.75,276.21,129.74,276.21z M129.88,276.27C129.88,276.26,129.88,276.26,129.88,276.27
		c0.02,0,0.04,0.01,0.07,0.03C129.93,276.28,129.91,276.28,129.88,276.27z M158.76,247.03c-0.02,0.02,0.02-0.02,0.07-0.07
		C158.81,246.98,158.78,247,158.76,247.03z M263.69,242.17c-0.7,0.48-4.42,2.79-8.65,5.39c0.02-0.03,0.04-0.05,0.06-0.08
		c1.91-2.18,2.95-4.93,3.02-7.81c0.54-0.1,1.08-0.22,1.61-0.38c1.33-0.4,2.5-0.95,3.54-1.62c0.28,1.21,0.71,2.47,1.42,3.8
		C264.35,241.7,264.02,241.94,263.69,242.17z M185.91,391.38c-0.05-0.18-0.1-0.48-0.13-0.95c-0.17-2.86,4.12-5.05,7.23-5.7
		c0.91-0.19,1.83-0.29,2.75-0.31c3.46-0.04,5.82,1.03,7.06,3.22C196.63,391.59,188.68,392.67,185.91,391.38z M279.37,323.59
		c2.01-4.08,4-8.42,5.51-11.96c4.21-1.38,9.08-2.49,14.59-2.22c7.88,0.4,8.74,3.41,9.02,4.4c1.04,3.65-2.43,12.15-7.27,15.51
		c-2.69,1.87-6.6,4.05-10.96,5.73C288.33,330.18,284.66,326.3,279.37,323.59z M305.79,368.35c-1.3,4.05-1.88,8.18-1.74,12.19
		c-2.17,0.62-4.48,1.22-6.97,1.8c-3.08,0.72-7.03,1.19-8.36-0.59c-1.03-1.63-2.02-9.09-0.41-18.27c10.55-2.49,20.57-7.4,26.88-11.49
		C311.03,356.74,307.7,362.42,305.79,368.35z M509.32,350.96l-0.02-0.83c0.13-0.16,0.27-0.33,0.4-0.49l0.1,1.29
		C509.63,350.94,509.47,350.95,509.32,350.96z M603.55,381.92c0.06-0.88,0.63-3.03,2.72-6.04c0.46,0.76,1.01,1.49,1.63,2.16
		c1.56,1.68,3.48,2.9,5.61,3.59C609.07,383.31,605.22,383.19,603.55,381.92z M709.2,382.92C709.2,382.92,709.2,382.92,709.2,382.92
		L709.2,382.92C709.2,382.92,709.2,382.92,709.2,382.92z"/>
	<g>
		<path class="st0" d="M122.22,294.32c-6.68,0-11.76-1.28-15.54-3.92c-3.68-2.57-6.25-5.74-7.64-9.41
			c-1.72-4.27-1.69-9.33,0.17-14.46c1.49-4.14,4.05-8.03,7.6-11.56c2.66-2.5,5.59-4.61,8.86-6.43c3.3-1.83,6.82-3.26,10.49-4.23
			c3.75-1,7.67-1.48,11.72-1.41c4.42,0.08,8.77,1.04,12.95,2.87c0.64,0.24,1.37,0.53,2.12,0.88c5.44-4.12,44.82-51.68,48.07-56.76
			c-1.1-0.55-2.1-1.02-2.9-1.35c-3.04-1.24-20.2-8.03-23.23-8.7c-2.84-0.62-5.53-0.91-7.98-0.87c-1.3,0.02-2.41,0.2-3.21,0.52
			c-0.27,0.24-0.67,0.7-1.09,1.47c-0.23,0.42-0.77,1.69-0.94,4.49c-0.06,3.67-1.59,7.18-4.33,9.9c-2.79,2.78-6.48,4.31-10.38,4.31
			l-2.1-0.17c-3.43-0.62-6.46-2.25-8.78-4.71c-2.78-2.95-4.13-6.84-3.81-10.95c0.28-6.55,1.77-12.37,4.46-17.28
			c2.86-5.23,6.91-9.4,12.04-12.4c5.8-3.25,12.06-4.79,18.87-4.64c5.65,0.12,11.24,0.89,16.61,2.3c5.15,1.35,23.98,8.84,28.24,10.79
			c3.99,1.83,6.82,3.21,8.89,4.34c0.3,0.15,0.63,0.33,0.97,0.53c5.52-4.48,11.06-7.52,16.49-9.04c7.54-2.12,15-0.7,21.57,4.1
			c5.41,3.99,8.79,9.33,9.8,15.44c1,6.1-0.47,12.23-4.26,17.71c-1.83,2.64-4.08,4.92-6.7,6.79c-2.7,1.93-5.73,3.33-9.01,4.17
			c-3.31,0.84-6.83,1.03-10.48,0.54c-2.66-0.35-7.07-1.72-11.51-3.5c-0.22,0.26-0.46,0.55-0.74,0.89l-1.57,1.87
			c-4.39,5.2-40.58,48.91-42.69,51.23c1.83,0.01,3.94,0.01,5.39,0.01c2.6,0,4.84,0.01,5.46,0.05c0,0,0,0,0.01,0
			c0.91,0,6.95-0.33,10.95-0.55c5.59-0.31,8.15-0.44,9.15-0.44c4.13,0,7.96,1.65,10.78,4.65c2.63,2.78,4.08,6.44,4.08,10.28
			c0,3.97-0.91,8.5-4.34,10.46c-13.61,7.81-51.47,6.94-67.64-0.73c-2.66,1.83-6.36,4.29-9.27,5.93
			C139.52,291.96,130.91,294.32,122.22,294.32z M146.64,258.87c0,0.01,0,0.01,0.01,0.02L146.64,258.87z M242.59,178.79
			c0.03,0.02,0.07,0.04,0.1,0.06C242.66,178.83,242.62,178.81,242.59,178.79z"/>
		<path class="st1" d="M260.94,181.59c-0.69-4.43-3.04-7.95-6.94-10.85c-4.76-3.51-9.91-4.51-15.29-2.99
			c-4.82,1.36-10.81,4.64-15.96,9.02l-5.05-2.97c-1.89-1.04-4.66-2.39-8.48-4.14c-3.86-1.76-22.27-9.1-26.97-10.34
			c-4.78-1.25-9.75-1.94-14.79-2.04c-5.41-0.12-10.29,1.08-14.73,3.57c-3.89,2.28-6.96,5.44-9.13,9.41
			c-2.13,3.89-3.32,8.67-3.52,14.05c-0.18,1.98,0.42,3.77,1.73,5.16c1.17,1.25,2.66,2.04,4.44,2.36l0.7,0.05
			c1.83,0,3.51-0.7,4.84-2.03c1.34-1.33,2.05-2.99,2.04-4.65c0.17-3.3,0.81-5.97,1.88-7.94c1.06-1.95,2.4-3.45,3.85-4.42
			c1.94-1.05,4.36-1.6,7.2-1.64c3.1-0.05,6.4,0.31,9.8,1.05c3.47,0.76,21.06,7.69,24.52,9.1c3.55,1.45,9.16,4.62,11.99,6.29
			c-0.82,0.94-0.85,0.88-1.63,1.91c-6.17,8.1-48.17,59.62-55.46,64.97c-0.84,0.68-1.71,1.22-2.33,1.65
			c-1.39-0.95-4.17-2.58-5.82-3.19c-3.28-1.46-6.67-2.23-10.1-2.29c-3.27-0.05-6.51,0.33-9.58,1.15c-3.04,0.81-5.96,1.99-8.68,3.5
			c-2.71,1.51-5.1,3.22-7.15,5.14c-2.72,2.71-4.67,5.64-5.77,8.69c-1.21,3.36-1.28,6.44-0.21,9.09c0.82,2.18,2.44,4.13,4.81,5.78
			c2.42,1.69,6.03,2.51,11.04,2.51c7.33,0,14.64-2.02,21.75-6c4.69-2.63,11.96-7.86,11.96-7.86s8.42,4.62,20.49,6.23
			c15.77,2.1,40.13-0.5,42.59-0.5c1.93,0,3.66-0.7,4.99-2.03c1.34-1.33,2.04-3.04,2.04-4.96c0-1.88-0.68-3.6-1.97-4.96
			c-1.34-1.43-3.1-2.34-5.06-2.18c-17.74,1.48-44.07,2.96-51.45-1.67c8.3-6.04,48.62-56.28,52.37-61.16l5.45-6.81
			c4.63,2.69,9.69,4.25,15.27,4.23c6.54-0.02,10.5-0.86,14.34-3.6C258.92,192.46,261.73,186.66,260.94,181.59z M137.51,268.96
			c-4.37,2.97-16.95,5.94-17.61,3.76c-0.38-1.27,4.77-4.32,6.4-5.28c1.62-0.96,3.35-1.71,5.14-2.23c3.38-0.99,7.39-1.1,10.56,0.24
			c0.07,0.04,0.15,0.07,0.22,0.1C141.23,266.58,138.77,268.1,137.51,268.96z M245.73,184.19c-1.56,0.54-4.3,0.9-7.26,0.05
			c2.57-2.13,4.41-3.02,6.79-2.6C247.62,182.06,247.29,183.65,245.73,184.19z"/>
		<path class="st2" d="M223.16,178.8c0,0-4.89-2.87-6.17-3.51c-1.9-1.05-4.63-2.38-8.43-4.12c-3.77-1.72-22.1-9.03-26.72-10.25
			c-4.65-1.22-9.51-1.89-14.42-1.99c-5.11-0.13-9.68,0.99-13.92,3.37c-3.61,2.11-6.49,5.08-8.52,8.8
			c-2.01,3.68-3.13,8.18-3.33,13.36c-0.15,1.63,0.29,2.97,1.31,4.04c0.94,1,2.14,1.64,3.58,1.89l0.54,0.03
			c1.3,0,2.59-0.55,3.63-1.58c1.02-1.02,1.59-2.28,1.58-3.54c0.19-3.62,0.88-6.51,2.07-8.69c1.15-2.11,2.65-3.82,4.35-4.97
			c2.3-1.25,4.96-1.86,8.05-1.91c3.16-0.05,6.59,0.31,10.16,1.08c3.56,0.78,21.23,7.73,24.78,9.18c3.58,1.46,6.45,2.82,9.5,4.62
			l15.53,8.55c0,0,6.99,4.19,14.14,4.05c7.15-0.14,9.88-1.16,13.18-3.16c3.3-2,5.96-8.32,5.3-12.1c-0.66-3.78-2.76-7.18-6.3-9.81
			c-4.34-3.19-9-4.11-13.89-2.73c-2.74,0.77-5.58,2.08-8.47,3.91c2.98,2.03,7.13,5.01,10.62,7.4c2.79-1.21,4.18-0.8,5.46-0.19
			c1.54,0.74,2.21,1.86,1.65,3.69c-0.57,1.83-3.95,2.99-10.56,1.3c-6.62-1.69-15.4-7.07-15.4-7.07s-5.05-2.99-6.37-3.65"/>
		<g>
			<g>
				<path class="st3" d="M246.65,170.03c-0.96-0.31-2.01-0.44-3.02-0.38c-1.01,0.05-1.96,0.32-2.88,0.73
					c-0.29,0.13-0.08,0.83-0.03,0.98c0.18,0.52,0.57,1.06,0.94,1.46c0.39,0.42,0.83,0.86,1.35,1.09c0.13,0.05,0.26,0.1,0.4,0.15
					c0.21,0.07,0.4,0.05,0.58-0.07c0.03-0.01,0.06-0.02,0.08-0.04c-0.08,0.03-0.16,0.07-0.25,0.1c1.14-0.48,2.38-0.67,3.61-0.57
					c-0.11-0.01-0.22-0.02-0.33-0.03c0.55,0.05,1.1,0.16,1.62,0.33c0.29,0.09,0.61,0.01,0.71-0.31c0.11-0.36-0.16-0.93-0.32-1.21
					C248.58,171.34,247.71,170.37,246.65,170.03L246.65,170.03z"/>
			</g>
		</g>
		<g>
			<path class="st2" d="M216.72,266c-17.51,1.24-32.95,2.3-45.21-0.16c-3.42,3.11-9.12,8.03-9.12,8.03
				c12.47,5.5,38.47,4.19,55.23,3.07L216.72,266z M145.27,265.24c0,0-4.71,3.98-5.97,4.73c-5.74,3.42-10.85,5.15-16.45,5.15
				c-1.02,0-4.11-0.05-4.93-1.25c-1.36-1.99,5.15-6.55,7.58-7.68c2.39-1.1,3.58-1.83,5.5-2.39c4.03-1.18,8.45-1.32,11.68,0.32
				l8.08-7.9c-1.81-1.09-2.75-1.31-3.67-1.81c-2.97-1.32-6.16-2.04-9.37-2.1c-0.18,0-0.35,0-0.53,0c-2.97,0-5.86,0.37-8.61,1.1
				c-2.91,0.77-5.71,1.9-8.33,3.36c-2.6,1.45-4.9,3.1-6.84,4.92c-2.53,2.52-4.34,5.25-5.37,8.08c-1.08,2.99-1.16,5.68-0.23,7.99
				c0.72,1.92,2.15,3.62,4.26,5.09c2.14,1.5,5.46,2.22,10.14,2.22c7.05,0,14.11-1.95,20.98-5.8c4.6-2.58,9.24-5.72,13.79-9.34
				l1.73-1.38l6.07-5.37l1.68-1.61c5.36-5.13,10.67-10.83,15.78-16.94c6.15-7.36,17.34-20.84,23.1-28.05
				c4.52-5.49,12.45-14.98,16.86-20.21l-12.02-3.04c-4.59,5.5-8.44,10.5-13.26,16.63c-5.5,6.86-16.38,19.96-22.2,26.92
				c-5.81,6.96-11.76,13.29-17.68,18.83c-1.4,1.31-2.81,2.57-4.21,3.77L145.27,265.24z"/>
			<g>
				<g>
					<path class="st3" d="M164.52,160.3c-2.77,0.31-5.39,1.24-7.79,2.65c-0.96,0.56-1.44,2.13-0.73,3.05
						c0.34,0.44,0.83,0.77,1.4,0.82c0.63,0.05,1.16-0.13,1.71-0.45c0.2-0.12,0.41-0.23,0.62-0.35c-0.18,0.1-0.37,0.2-0.55,0.29
						c1.18-0.63,2.43-1.11,3.72-1.44c-0.19,0.05-0.39,0.1-0.58,0.15c0.76-0.19,1.53-0.33,2.32-0.42c0.59-0.07,1.21-0.42,1.6-0.86
						c0.35-0.4,0.64-1.04,0.6-1.59C166.75,160.94,165.73,160.17,164.52,160.3L164.52,160.3z"/>
				</g>
			</g>
			<path class="st3" d="M133.7,254.49c-3.09-0.31-6.19,0.42-8.84,2c-0.39,0.23-0.53,0.83-0.53,1.24c0.01,0.55,0.26,1.19,0.6,1.61
				c0.64,0.8,1.72,1.5,2.72,0.9c0.36-0.21,0.72-0.41,1.1-0.59c-0.13,0.06-0.27,0.13-0.4,0.19c1.05-0.49,2.15-0.85,3.29-1.05
				c0.27-0.05,0.55-0.09,0.82-0.12c0.46-0.06-0.37,0.02,0.1-0.01c0.14-0.01,0.28-0.02,0.42-0.02c0.6-0.02,1.2,0,1.8,0.06
				c1.11,0.11,1.57-1.11,1.31-2.01C135.77,255.63,134.87,254.61,133.7,254.49L133.7,254.49z"/>
		</g>
	</g>
</g>
<g id="Lag_1">
	<path class="st1" d="M623.03,357.14L623.03,357.14L623.03,357.14z"/>
	<path class="st1" d="M544.39,399.7c-2.02,0-3.89-0.24-5.54-0.77c-3.75-1.2-6.5-3.68-7.95-7.17c-1.89-4.53-1.99-9.62-0.34-14.91
		c-3.74-0.14-7.41-0.41-10.88-0.82c-1.87,2.56-3.92,4.97-5.88,7.09c-17.72,19.13-30.45,18.14-38.02,13.94
		c-3.66-2.03-6.01-5.34-6.81-9.56c-1.28-6.82,0.13-19.66,27.12-52.2c35.29-42.56,50.94-51.88,57.85-52.2c2.75-0.1,5.21,0.79,7,2.59
		c1.19,1.19,3.04,3.84,2.14,8.29c-2.57,12.62-31.28,42.66-51.76,50.93c-0.45,0.18-0.92,0.31-1.38,0.38
		c2.8,0.02,6.17,0.73,10.08,2.89c3.51,1.94,5.79,5.11,6.41,8.93c0.36,2.22,0.14,4.54-0.5,6.88c3.63,0.25,7.55,0.39,11.52,0.42
		c7.53-9.57,18.9-17.55,27.29-20.07c9.39-2.82,16.33,2.28,18.32,8.77c2.31,7.55-1.7,17.35-12.41,20.7
		c-4.68,1.46-14.98,2.72-26.43,3.08c-0.24,0.43-0.46,0.87-0.66,1.3c-1.64,3.47-1.98,6.4-1.02,8.72c3.59,2.39,24.47-4.46,45.53-18.54
		c2.89-1.93,6.81-1.16,8.75,1.74c1.94,2.9,1.16,6.81-1.74,8.75C589.22,382.78,561.32,399.7,544.39,399.7z M496.96,354.53
		c-15.68,20.91-15.96,28.61-15.58,30.64c0.12,0.63,0.28,0.72,0.54,0.86c7.15,3.97,18.21-6.7,22.64-11.48
		c0.46-0.5,0.9-0.98,1.32-1.46c-3.22-1.17-5.71-2.65-7.13-4.47C495.75,364.77,495.19,359.26,496.96,354.53z M569.89,356.15
		c-0.37,0-0.86,0.08-1.52,0.27c-3.18,0.95-7.84,3.63-12.36,7.24c4.41-0.44,8.21-1.06,10.88-1.9c3.75-1.17,4.51-3.67,4.11-4.96
		C570.94,356.61,570.8,356.15,569.89,356.15z M508.66,360.76c0.9,0.61,2.46,1.15,4.52,1.61c0.64-1.48,0.87-2.54,0.82-3.1
		c-2.31-1.27-4.19-1.67-4.78-1.08C508.59,358.83,508.48,360.17,508.66,360.76z M505.19,344.1c-1,1.21-1.96,2.4-2.88,3.54
		c1.55-1.05,3.67-2.03,6.35-2.29C507.4,345.29,506.19,344.85,505.19,344.1z M548,298.23c-1.51-1.46-17.81,17.17-24.76,24.66
		C529.61,317.55,549.51,299.69,548,298.23z"/>
	<path class="st4" d="M502.41,344.75c-0.63,0.82-4.63,6.18-7.6,10.12c-15.28,20.48-15.47,27.82-14.95,30.59
		c0.21,1.11,0.67,1.57,1.3,1.92c7.81,4.34,18.71-5.52,24.52-11.78l10.26,2.73c-1.15,1.4-2.27,2.67-3.27,3.75
		c-17.04,18.39-29.06,17.57-36.14,13.64c-3.25-1.8-5.34-4.74-6.04-8.5c-1.92-10.22,6.84-26.88,26.79-50.93
		c15.79-19.04,44.15-51.06,56.74-51.64c2.94-0.16,4.79,1.09,5.84,2.13c0.97,0.97,2.48,3.15,1.72,6.89
		c-2.47,12.12-31,42.57-50.83,49.81c-6.06,2.21-10.07-5.62-1.99-9.48c4.43-2.11,3.91-1.57,10.48-6.28
		c14.41-10.33,33.53-29.04,30.99-31.59c-2.59-2.61-14.69,10.57-30.99,29.2l-1.38,1.41c0,0-6.35,4.54-10.46,6.11
		C503.03,334.49,500.1,339.98,502.41,344.75z M529.07,375.26c-3.51-0.16-6.94-0.43-10.16-0.83c-4.29-0.53-6.56-0.98-10.43-2.04
		c-3.95-1.17-6.97-2.72-8.53-4.73c-3.52-4.53-3.16-11.97,0.79-16.6c1.6-1.88,7.68-7.54,18.54-1.55c3.13,1.73,5.08,4.44,5.63,7.83
		c0.24,1.51,0.18,3.08-0.12,4.68l-9.59-0.71c0.3-1.02,0.4-1.84,0.3-2.45c-0.05-0.29-0.1-0.6-0.82-1c-1.19-0.65-3-1.48-4.55-1.48
		c-0.84,0-1.59,0.24-2.14,0.88c-1.17,1.37-1.15,3.74-0.51,4.56c0.93,0.92,3.29,1.7,6.57,2.32l9.81,1.23
		c3.19,0.26,6.64,0.43,10.18,0.51L529.07,375.26z M555.75,365.01c3.85-0.44,9.16-1.01,11.6-1.77c4.81-1.5,5.7-5.02,5.13-6.89
		c-0.41-1.32-1.42-1.74-2.55-1.74c-0.66,0-1.36,0.14-2,0.34c-4.28,1.28-10.86,5.33-16.54,10.64c-2.91,3.1-7.68,8.49-9.23,11.95
		c-1.75,3.92-2.19,7.23-1.05,9.97c0.11,0.25,0.25,0.61,1.12,0.88c6.68,2.14,26.36-6.66,41-14.89l-2.35,12.18
		c-10.91,5.67-26.36,12.51-36.37,12.51c-1.9,0-3.65-0.22-5.19-0.72c-3.31-1.06-5.73-3.24-7-6.29c-1.97-4.72-1.83-10.14,0.39-15.78
		c1.68-4.91,3.2-5.95,5.52-9.44c7.33-9.52,18.81-17.69,26.96-20.13c8.84-2.64,14.69,2.16,16.4,7.74c2.09,6.83-1.6,15.71-11.4,18.78
		c-3.37,1.05-11.53,2.1-19.39,2.67L555.75,365.01z"/>
	<path class="st1" d="M189.82,411.55c-4.29,0.07-8.46-0.65-12.18-2.38c-6.89-3.21-10.95-9.45-11.44-17.57
		c-0.74-12.4,8.63-23.12,22.8-26.07c11.56-2.41,25.38,1,31.56,13.7c12.76-16.4,35.94-54.46,43.94-69.52
		c-0.59-0.17-1.18-0.39-1.76-0.69c-1.63-0.84-3.78-2.59-4.73-6.17c-1.04-3.92,0.61-8.12,4.44-11.24c3.4-2.78,9.17-5.14,14.2-2.64
		c1,0.5,2.79,1.64,4.03,3.85c5.58-1.67,12.43-3.01,20.32-2.54c14.27,0.86,23.65,7.73,26.71,18.85c3.36,12.19-3.74,28.44-15.28,36.3
		c-6.1,4.16-18.12,10.2-29.99,12.09c-0.35,1.42-0.68,2.86-0.94,4.3c-1.88,10.29-1.15,20.43,1.59,24.09
		c2.74,3.66,7.56,5.13,15.58,3.26c5-1.16,9.3-2.4,13.09-3.72c-1.16-4.63-0.96-9.81,0.69-14.95c3.14-9.78,11.25-19.34,20.19-22.95
		c5.7-2.3,11.4-2.19,16.05,0.32c4.49,2.42,7.21,7.07,7.66,12.08c0.62,6.79-3.11,13.73-9.72,19.03c-4.4,3.52-8.56,7.28-13.27,10.19
		c1.4,0.03,2.73-0.1,3.94-0.29c16.75-2.71,25.77-10.68,25.86-10.76c2.58-2.32,6.56-2.13,8.9,0.43c2.33,2.56,2.18,6.52-0.37,8.87
		c-0.47,0.43-11.65,10.56-32.37,13.91c-8.45,1.36-15.76-0.36-20.93-4.86c-4.8,1.81-10.32,3.46-16.87,4.99
		c-12.96,3.01-21.45-0.43-27.14-5.85c-7.37-7.03-6.79-27.84-5.29-36.05c0.07-0.37,0.14-0.74,0.21-1.11
		c-5.05-0.22-9.24-1.28-11.69-3.53c-1.1-1.01-2.04-2.14-2.79-3.35c-8.24,12.39-28.41,42.47-38.95,50.32
		C208.97,407.01,199.13,411.41,189.82,411.55z M195.65,377.42c-1.4,0.02-2.78,0.18-4.07,0.45c-6.45,1.35-13.2,5.98-12.78,12.97
		c0.27,4.51,2.37,6.05,4.17,6.88c6.04,2.82,17.66,0.34,25.38-5.4c1.13-0.84,2.35-1.92,3.65-3.21c-0.95-0.71-1.71-1.69-2.14-2.88
		C207.39,379.55,201.32,377.34,195.65,377.42z M340.72,358.27c-1.19,0-2.4,0.37-3.37,0.77c-5.46,2.26-10.83,8.41-12.77,14.64
		c-0.63,2.01-0.86,4.02-0.73,5.86c5.49-3.07,10-6.57,14.98-10.63c3.54-2.89,5.18-6.54,4.97-8.65c-0.07-0.66-0.26-1.1-1.1-1.54
		C342.09,358.4,341.41,358.27,340.72,358.27z M265.86,345.24c1.24,1.26,3.31,0.92,6.27,0.46c1.51-5.12-4.99-6.83-6.62-4.39
		C265.01,342.05,264.62,343.97,265.86,345.24z M269.34,327.7c1.86,0.2,3.83,0.73,5.86,1.66c7.62,3.46,9.67,8.96,9.65,14.6
		c7.73-1.62,15.35-5.4,20.36-8.88c6.94-4.82,11.98-16.27,10.01-23.18c-2.07-7.26-9.25-9.16-15.39-9.47
		c-8.04-0.4-14.85,1.66-20.22,3.64C277.51,311.33,272.89,321.39,269.34,327.7z"/>
	<path class="st4" d="M286.54,345.12c7.53-1.68,14.71-5.42,19.56-8.79c7.45-5.17,12.75-17.37,10.61-24.86
		c-1.84-6.44-7.27-10.1-16.8-10.59c-8.65-0.44-17.33,2.75-21.46,3.97s-7.72,3.19-11.94,3.49c-1.2-0.02-2.33-0.27-3.43-0.82
		c-1.36-0.68-3.16-2.13-3.99-5.16c-0.91-3.31,0.52-6.93,3.84-9.69c3.26-2.71,8.37-4.51,12.52-2.56c2.51,1.17-4.3,6.56-2.64,6.15
		c1.66-0.41,6.57-1.84,6.57-1.84c5.67-1.85,12.75-3.49,21.03-3.06c13.58,0.7,22.5,7.07,25.48,17.49
		c3.29,11.55-3.4,27.71-14.34,35.31c-5.72,3.97-15.67,8.89-26.01,10.95L286.54,345.12z M359.94,392.87
		c-5.18,2.69-11.53,5.17-20.52,6.71c-8.34,1.43-16.07-0.9-20.96-5.51c-2.58-2.59-3.64-4.15-5.16-8.22
		c-1.54-4.67-0.96-10.06,0.71-15.45c2.92-9.4,10.6-18.07,19.11-21.59c5.33-2.2,10.43-2.16,14.75,0.12c4.04,2.13,6.5,5.76,6.95,10.24
		c0.63,6.28-2.82,13.3-8.98,18.33c-4.67,3.81-7.41,6.28-12.52,9.37c0,0-2.66-0.55-4.92-3.16c-2.26-2.61-2.23-3.73-2.23-3.73
		c5.33-3.05,8.75-5.88,13.64-9.87c4.14-3.38,5.77-7.55,5.52-10c-0.13-1.27-0.72-2.12-1.91-2.75c-0.85-0.45-1.78-0.63-2.7-0.63
		c-1.43,0-2.85,0.42-3.96,0.89c-5.85,2.42-11.59,8.98-13.65,15.61c-0.95,3.05-1.07,6.09-0.44,8.71c1.63,5.19,4.35,6.24,6.51,7.32
		c2.37,0.8,5.28,0.93,8.64,0.36c10.61-1.81,16.44-5.08,20.95-7.39 M252.15,353.12c-12.09,18.07-29.08,41.47-37.21,47.53
		c-6.54,4.87-16.23,9.18-25.28,9.32c-4.04,0.06-7.94-0.6-11.38-2.2c-6.35-2.96-10.1-8.73-10.55-16.27
		c-0.69-11.61,8.18-21.67,21.57-24.47c9.41-1.96,20.37,0.12,26.98,8.31c0.28,0.35,0.55,0.7,0.81,1.07l-5.8,9.29
		c-2.74-7.46-9.44-9.93-15.66-9.83c-1.51,0.02-2.99,0.2-4.38,0.49c-7.08,1.48-14.48,6.67-14.01,14.57c0.24,4.04,1.9,6.72,5.06,8.19
		c6.6,3.07,18.7,0.58,26.95-5.56c1.6-1.19,3.38-2.85,5.3-4.89l5.59-6.49c12.82-15.96,35.33-52.76,43.94-68.74l13.41-4.96
		c-2,4.57-5.94,12.89-9.51,19.12c-3.82,0.33-11.06,2.01-14.76,7.18C246.32,344.46,252.15,353.12,252.15,353.12z M315.64,395.91
		c-4.12,1.47-8.77,2.85-14.13,4.15c-12.39,2.99-20.43-0.24-25.76-5.23c-6.89-6.45-6.43-27.31-5.07-35.19
		c0.17-0.99,0.36-1.96,0.57-2.9l2.19-9.6c2.5-6.04-2.97-8.87-5.9-8.47c-1.84,0.25-2.56,0.6-3.33,1.79
		c-1.07,1.64-0.87,4.86,0.83,6.14c1.7,1.28,3.43,1.28,6.61,0.65l-3.46,9.42c-4.17-0.26-7.54-1.21-9.52-2.98l0.01,0.02
		c-5.3-4.76-6.32-12.52-2.44-18.45c3.21-4.92,10.12-8.21,18.32-4.49l-0.01-0.02c7.67,3.49,9.14,9.19,8.67,15.05l-1.98,10.07
		c-0.43,1.76-0.84,3.56-1.16,5.39c-1.53,8.81-1.07,22.13,2.19,26.04c3.25,3.9,8.23,5.05,17,2.92c4.44-1.07,5.64-1.66,9.37-2.7
		L315.64,395.91z"/>
	<path class="st1" d="M397.42,397.57c2.25,0.01,4.24-0.44,6.77-1.3c8.53-2.91,16.73-8.3,25.44-14.97c-0.28,1.74-0.41,3.44-0.17,5.05
		c0.34,2.3,1.24,4.34,2.68,6.05c0.87,1.3,2.16,2.44,3.91,3.49c1.83,1.09,4.17,1.72,7.36,1.94h1.08c6.04,0,11.01-1.91,14.77-5.67
		c4.85-4.85,7.21-11.78,7.01-20.55c0-0.77-0.47-8.7-0.34-11.08c0.12-2.13,0.65-4.32,1.52-6.37c0.81-1.61,0.89-3.34,0.23-4.99
		c-0.63-1.56-1.82-2.78-3.26-3.42c-1.57-0.87-4.11-0.94-5.76,0.32c-1.81,1.38-8.4,6.62-11.94,8.94c0,0-17.47,11.91-26.17,17.93
		c0,0-18.98,13.35-20.94,11.83s1.69-5.73,3.76-7.91c2.75-2.89,18.03-20.66,20.05-23.44c1.02-1.27,1.52-2.79,1.45-4.4
		c-0.07-1.75-0.84-3.26-2.08-4.26c-2.59-2.37-6.93-2.22-8.84,0.41c-2.81,3.9-35.82,40.78-39.46,39.99
		c-1.45-0.31,0.25-7.4,1.48-12.77s1.35-6.35,2.16-9.51c0.82-3.2,1.41-5.42,1.76-7.72c0.4-2.62,0.38-4.75-0.06-6.51
		c-0.5-2.02-1.59-3.67-3.32-4.97c-1.4-0.97-2.86-1.46-4.34-1.46c-1.2,0-2.38,0.19-3.51,0.56c-1.09,0.35-2.13,0.72-3.03,1.3
		c-0.55,0.36-0.54,0.35-1.61,1.11c-1.35,1.02-2.23,2.41-2.54,4.03c-0.33,1.73,0.07,3.4,1.15,4.83c1.04,1.39,2.47,2.25,4.11,2.5
		c0.02,0,0.05,0.01,0.07,0.01c-0.32,1.28-2.36,9.82-3.48,16.14c-1.02,5.73-3.13,17.62-0.43,23.11s10.09,4.16,16,1.38
		c3.42-1.61,8.82-5.43,9.08-5.61c1.95,3.91,3.45,5.96,9.38,5.99c2.25,0.01,4.24-0.44,6.77-1.3 M450.34,383.31
		c-1.4,1.52-3.55,2.19-6.44,2.06c-1-0.09-1.51-0.24-1.72-0.32l-0.18-0.21c-0.23-0.26-0.25-0.43-0.25-0.58
		c0-0.67,0.06-1.25,0.22-1.92c0.29-1.61,0.06-3.15-0.68-4.57c-0.6-1.14-1.49-2-2.61-2.52l14.63-9.63c0,1.05,0.19,6.38,0.19,6.38
		C453.75,377.25,452.72,381.01,450.34,383.31z"/>
	<path class="st3" d="M193.58,368.28c-2.77-0.24-5.53,0.46-7.89,1.92c-0.35,0.21-0.47,0.76-0.46,1.12c0.01,0.49,0.25,1.07,0.56,1.44
		c0.58,0.72,1.56,1.33,2.45,0.78c0.32-0.2,0.64-0.38,0.98-0.54c-0.12,0.06-0.24,0.12-0.36,0.18c0.93-0.45,1.92-0.79,2.93-0.99
		c0.24-0.05,0.49-0.08,0.74-0.12c0.41-0.06-0.33,0.02,0.09-0.01c0.12-0.01,0.25-0.02,0.37-0.03c0.54-0.03,1.08-0.01,1.61,0.03
		c0.99,0.09,1.39-1.02,1.15-1.82C195.45,369.27,194.63,368.37,193.58,368.28L193.58,368.28z"/>
	<path class="st3" d="M308.89,294.78c-2.27-0.48-2.31,2.64-0.42,2.92c0.37,0.05,1.15,0.25,1.52,0.33c-0.13-0.03-0.26-0.05-0.39-0.08
		c1.01,0.22,1.99,0.56,2.92,1.04c0.22,0.11,0.44,0.24,0.65,0.36c0.36,0.21-0.27-0.19,0.07,0.05c0.1,0.07,0.21,0.14,0.31,0.21
		c0.44,0.31,0.85,0.65,1.25,1.02c0.73,0.68,3.6-0.74,1.49-2.47S311.6,295.36,308.89,294.78z"/>
	<path class="st3" d="M556.36,287.77c-0.33-0.12-0.65-0.26-0.99-0.35c-0.35-0.1-0.71-0.16-1.07-0.22c-0.56-0.1-1.11-0.11-1.69-0.09
		c-1.1,0.02-2.15,0.32-3.15,0.74c-0.34,0.14-0.67,0.57-0.7,0.94c-0.03,0.4,0.22,0.81,0.53,1.05c0.41,0.31,0.93,0.51,1.45,0.54
		c0.19,0,0.37,0,0.56,0c0.34-0.03,0.66-0.12,0.96-0.28c0.02-0.01,0.05-0.02,0.07-0.03c-0.15,0.06-0.3,0.12-0.44,0.18
		c0.35-0.14,0.71-0.25,1.08-0.32c-0.17,0.03-0.34,0.07-0.51,0.1c0.37-0.07,0.75-0.11,1.12-0.11c-0.19,0-0.37,0-0.56,0
		c0.35,0,0.7,0.03,1.05,0.1c-0.18-0.03-0.37-0.07-0.55-0.1c0.32,0.06,0.64,0.15,0.94,0.26c-0.16-0.06-0.33-0.12-0.49-0.19
		c0.02,0.01,0.05,0.02,0.07,0.03c0.53,0.2,1.02,0.34,1.6,0.28c0.42-0.04,1.01-0.21,1.31-0.54c0.26-0.29,0.45-0.67,0.31-1.06
		C557.11,288.3,556.76,287.92,556.36,287.77L556.36,287.77z"/>
	<path class="st3" d="M573.66,347.41c-0.33-0.12-0.65-0.26-0.99-0.35c-0.35-0.1-0.71-0.16-1.07-0.22c-0.56-0.1-1.11-0.11-1.69-0.09
		c-1.1,0.02-2.15,0.32-3.15,0.74c-0.34,0.14-0.67,0.57-0.7,0.94c-0.03,0.4,0.22,0.81,0.53,1.05c0.41,0.31,0.93,0.51,1.45,0.54
		c0.19,0,0.37,0,0.56,0c0.34-0.03,0.66-0.12,0.96-0.28c0.02-0.01,0.05-0.02,0.07-0.03c-0.15,0.06-0.3,0.12-0.44,0.18
		c0.35-0.14,0.71-0.25,1.08-0.32c-0.17,0.03-0.34,0.07-0.51,0.1c0.37-0.07,0.75-0.11,1.12-0.11c-0.19,0-0.37,0-0.56,0
		c0.35,0,0.7,0.03,1.05,0.1c-0.18-0.03-0.37-0.07-0.55-0.1c0.32,0.06,0.64,0.15,0.94,0.26c-0.16-0.06-0.33-0.12-0.49-0.19
		c0.02,0.01,0.05,0.02,0.07,0.03c0.53,0.2,1.02,0.34,1.6,0.28c0.42-0.04,1.01-0.21,1.31-0.54c0.26-0.29,0.45-0.67,0.31-1.06
		C574.4,347.93,574.05,347.56,573.66,347.41L573.66,347.41z"/>
	<path class="st2" d="M454.72,363.13c-0.03,1.42,0.01,2.59,0.01,2.59c0,1.03,0.19,6.38,0.19,6.38c0.25,5.65-0.91,9.69-3.57,12.28
		c-1.54,1.66-3.82,2.5-6.79,2.5c-0.23,0-0.47,0-0.71-0.02c-1.18-0.1-1.82-0.28-2.17-0.42l-0.32-0.12l-0.22-0.25
		c-0.59-0.67-0.78-1.15-0.78-1.71c0-0.81,0.08-1.5,0.26-2.25c0.22-1.22,0.26-2.62-0.34-3.75c-0.46-0.87-1.83-2.38-3.73-2.89
		c-1.51-0.41-3.36,0.12-4.11,1.03c-0.75,0.91-0.84,1.4-1.11,2.41c-0.27,1.01-0.49,2.71-0.49,2.71c-0.25,1.6-0.22,3.16,0,4.63
		c0.3,2.04,1.1,3.84,2.36,5.36c0.85,1.25,1.98,2.25,3.55,3.18c1.66,0.99,3.81,1.55,6.74,1.75l0.98,0c5.65,0,10.29-1.77,13.78-5.26
		c4.57-4.57,6.79-11.14,6.6-19.53c0-0.68-0.47-8.76-0.34-11.19c0.12-2.25,0.69-4.62,1.63-6.84l0.04-0.08
		c0.63-1.26,0.69-2.56,0.18-3.85c-0.48-1.18-1.4-2.15-2.53-2.66c-1.3-0.72-2.5-0.58-3.77-0.24c-3.06,0.8-4.23,3.51-4.68,6.01
		C454.93,355.4,454.75,361.71,454.72,363.13z"/>
	<path class="st2" d="M391.48,394.51c3.14,2.42,7.01,2.27,12.17,0.53"/>
	<path class="st4" d="M422.38,352.56c3.62-4.44-2.6-11.69-8.09-5.78c-1.91,2.05-36.89,43.35-41.15,39.69
		c-1.52-1.31,0.5-10.44,1.5-14.35c1-3.91,1.36-6.38,2.16-9.5c0.81-3.14,1.39-5.32,1.73-7.59c0.37-2.43,0.36-4.38-0.03-5.96
		c-0.43-1.72-1.34-3.09-2.8-4.18c-1.12-0.78-2.31-1.18-3.5-1.18c-1.05,0-2.09,0.17-3.08,0.49c-0.97,0.32-1.91,0.63-2.7,1.15
		c-0.61,0.39-0.59,0.38-1.64,1.13c-0.96,0.73-1.66,1.83-1.9,3.1c-0.26,1.35-0.12,2.98,1.33,3.92c1.03,0.66,5.16-1.35,5.16-1.35
		s-1.86,6.96-2.27,8.43c-0.48,1.74-1.54,7.99-2.58,12.6c-1.03,4.61-2.53,17.74-0.62,21.7c2.69,5.6,9.65,3.08,14.31,1.01
		C392.95,389.36,421,354.68,422.38,352.56z"/>
	<path class="st2" d="M391.56,394.51c3.14,2.42,7.01,2.27,12.17,0.53c9.82-3.31,22.83-13.03,26.19-15.29c0,0,0.55-3.11,2.14-4.7
		c3.21-3.21,6.45-2.48,8.08-2.14l9.87-6.51l3.04-14.16c0,0-23.32,15.66-31.99,21.86c0,0-19.37,13.84-21.99,12.11L391.56,394.51z"/>
	<g>
		<g>
			<path class="st3" d="M437.93,377.28c-0.35-0.22-0.73-0.4-1.14-0.49c-0.44-0.1-0.92-0.16-1.37-0.11c-0.46,0.04-0.77,0.12-1.2,0.28
				c-0.22,0.08-0.42,0.22-0.61,0.35c-0.18,0.12-0.33,0.31-0.47,0.47c-0.07,0.09-0.14,0.18-0.2,0.27c-0.12,0.2-0.22,0.42-0.31,0.64
				c-0.1,0.15-0.13,0.31-0.08,0.47c0,0.18,0.07,0.33,0.21,0.46c0.14,0.17,0.31,0.29,0.51,0.38c0.21,0.13,0.44,0.22,0.69,0.28
				c0.18,0.03,0.37,0.06,0.55,0.09c0.36,0.03,0.72,0.01,1.07-0.07c0.15-0.05,0.29-0.1,0.44-0.15c0.24-0.1,0.44-0.26,0.58-0.48
				c0.14-0.32,0.28-0.64,0.51-0.91c-0.08,0.09-0.16,0.18-0.24,0.27c0.08-0.09,0.18-0.17,0.28-0.24c-0.12,0.07-0.23,0.14-0.35,0.21
				c0.07-0.04,0.15-0.08,0.23-0.11c-0.15,0.05-0.29,0.1-0.44,0.15c0.06-0.02,0.11-0.03,0.17-0.04c-0.17,0.03-0.34,0.05-0.51,0.08
				c0.05-0.01,0.1-0.01,0.15-0.01c-0.19,0-0.37,0-0.56-0.01c0.04,0,0.08,0,0.12,0.01c-0.18-0.03-0.37-0.06-0.55-0.09
				c0.04,0.01,0.08,0.02,0.12,0.03c-0.16-0.05-0.33-0.11-0.49-0.16c0.04,0.01,0.08,0.03,0.11,0.05c-0.14-0.07-0.27-0.15-0.41-0.22
				c0.01,0.01,0.03,0.02,0.04,0.03c0.43,0.28,0.94,0.43,1.45,0.48c0.27,0.03,0.55,0.02,0.82-0.03c0.24-0.02,0.47-0.08,0.7-0.19
				c0.3-0.16,0.68-0.4,0.69-0.79c-0.02-0.11-0.03-0.22-0.05-0.32C438.31,377.61,438.15,377.42,437.93,377.28L437.93,377.28z"/>
		</g>
	</g>
	<g>
		<g>
			<path class="st3" d="M462.96,348.38c-1.3-0.23-2.73-0.19-3.89,0.52c-0.65,0.4-1.11,1-1.31,1.73c-0.01,0.15,0.04,0.28,0.15,0.38
				c0.1,0.15,0.24,0.26,0.41,0.34c0.21,0.12,0.43,0.2,0.66,0.25c0.26,0.08,0.53,0.13,0.8,0.15c0.49,0.03,1.04,0.04,1.51-0.15
				c0.11-0.05,0.23-0.11,0.34-0.16c0.18-0.1,0.29-0.25,0.33-0.45c0.02-0.08,0.04-0.15,0.07-0.23c-0.03,0.08-0.06,0.16-0.1,0.24
				c0.12-0.31,0.31-0.57,0.56-0.79c-0.08,0.07-0.15,0.14-0.23,0.21c0.17-0.15,0.36-0.28,0.56-0.38c-0.11,0.05-0.23,0.11-0.34,0.16
				c0.13-0.06,0.27-0.11,0.41-0.15c-0.15,0.04-0.29,0.07-0.44,0.11c0.1-0.02,0.2-0.04,0.3-0.05c-0.17,0.02-0.34,0.03-0.51,0.05
				c0.09-0.01,0.18-0.01,0.27-0.01c-0.19-0.01-0.37-0.01-0.56-0.02c0.08,0,0.16,0.01,0.24,0.02c-0.18-0.03-0.37-0.05-0.55-0.08
				c0.02,0,0.04,0.01,0.07,0.01c0.53,0.1,1.09,0.14,1.62,0.05c0.22-0.03,0.42-0.09,0.61-0.19c0.16-0.06,0.3-0.15,0.4-0.29
				c0.03-0.08,0.06-0.16,0.1-0.24c0-0.2-0.08-0.37-0.24-0.5C463.85,348.63,463.39,348.45,462.96,348.38L462.96,348.38z"/>
		</g>
	</g>
	<path class="st1" d="M704.67,377.59c-5.55,4.72-21.6,11.88-22.97,10.56c-0.87-0.84,5.02-8.05,8.9-12.53
		c2.53-2.92,8.15-9.3,8.82-14.85c0.95-7.84-1.59-12.49-6.84-17.23c-1.18-1.07-1.8-1.77-3.26-2.67c9.05-7.74,29.63-31.96,29.61-42.22
		c-0.01-4.01-2.12-7.25-5.8-8.9c-9.08-4.08-26.39,15.7-57.67,56.4c-13.44,17.48-17.49,26.13-30.11,36.53
		c-9.99,8.23-22.14,9.41-27.37,3.57c-3.4-3.79-0.66-12.18,7.66-20.37c6.09-5.99,13.74-10.37,15.07-9.04
		c1.33,1.33-3.71,4.13-7.35,7.51c-2.55,2.37-2.7,6.36-0.33,8.91c2.37,2.55,6.36,2.7,8.91,0.33c8.6-7.99,12.17-13.32,12.32-18.42
		c0.08-2.66-0.87-5.16-2.67-7.05c-2.27-2.38-5.57-3.67-9.55-3.74c-7.79-0.11-17.05,4.43-25.26,12.5
		c-17.06,16.78-13.34,31.72-8.15,37.89c4.68,5.57,10.02,7.67,18.56,7.91c10.39-0.36,18.94-4.24,26.06-9.86
		c4.14-3.27,11.09-11.2,17.35-19.17c8.28-10.55,15.54-21.17,15.54-21.17c2.91,1.77,7.28,2.25,11.65-2.9
		c1.89,0.62,4.66,1.57,6.81,3.74c1.84,1.86,2.38,3.31,2.32,6.73c-0.04,2.21-7.24,9.79-10.95,14.18
		c-4.55,5.38-10.79,12.88-7.16,20.55c3.57,7.55,14.9,6.03,19.65,4.96c11.12-2.49,22.2-10.32,24.06-12.16
		c2.71-2.69,3.76-5.17,0.97-8.86C711.41,375.97,707.32,375.33,704.67,377.59z M683.79,327.63c6.26-7.45,20.87-25.94,22.38-24.62
		C707.68,304.33,689.61,322.25,683.79,327.63z"/>
	<path class="st4" d="M632.11,391.78c-7.2,5.83-15.47,9.04-24.82,9.36c-8.27,0.32-13.34-2.41-17.72-7.65
		c-8.71-10.42-1.69-25.51,8.47-35.5c7.92-7.78,16.71-12.18,24.16-12.06c3.55,0.06,6.48,1.19,8.46,3.26
		c1.53,1.61,2.31,3.66,2.24,5.94c-0.14,4.58-3.68,9.76-11.83,17.34c-1.93,1.79-4.95,1.68-6.74-0.25c-1.79-1.93-1.68-4.94,0.25-6.74
		c6.25-5.8,9.49-7.83,7.99-9.67c-1.5-1.83-8.98,0.25-17.84,8.97c-9.12,8.96-12.06,17.6-7.94,22.85c4.74,6.04,18,5.88,29.1-3.48
		c15.27-12.87,17.48-20.09,30.74-37.07c27.92-35.77,47.1-60.12,56.11-56.08c3.15,1.42,4.97,4.2,4.97,7.63
		c0.02,8.16-16.2,28.89-27.42,38.78c-3.63-1.13-7.5-2.03-11.73-2.88c0.56-0.41,1.13-0.87,1.72-1.37c2.6-2.22,9.48-8.42,12.13-11.31
		c3.58-3.9,18.78-18.87,15.99-21.1c-2.53-2.02-12.52,9.85-16.96,14.83c-4.45,4.98-14.24,19.05-17.77,20.95
		c-7.88,0.61-10.69,4.44-10.5,9.85c0.06,1.87,1.17,3.8,1.97,5.05C656.97,363.1,642.96,382.98,632.11,391.78z"/>
	<path class="st2" d="M680.23,389.37c2.04,1.81,14.71-3.87,21.72-8.2c2.62-1.66,6.83-6.38,10.66-1.61
		c3.97,4.96-1.43,8.32-11.14,13.44c-3.9,2.12-16,8.41-26.41,5.22c-5.4-1.65-7.51-7.56-4.47-13.47c5.4-10.51,16.92-19.1,17.73-24.22
		c0.6-3.77-0.43-6.04-2.56-8.2c-2.35-2.37-6.17-3.66-8.78-4.42c-1.65,3.62-5.11,4.82-8.53,3.74c-3.25-1.03-4.21-5.51-3.35-8.44
		c0.72-2.45,1.98-3.37,4.39-4.34c3.27-1.31,9.82-1.72,16.58,1.92c3.27,1.76,3.82,2.42,5.47,3.91c4.84,4.37,6.86,6.72,6.51,14.55
		c-0.28,6.22-5.43,12.07-8.71,15.73C685.28,379.53,678.3,387.66,680.23,389.37z"/>
	<g>
		<g>
			<path class="st3" d="M266.62,331.62c-2.44,0.27-4.78,1-6.91,2.25c-0.89,0.53-0.98,1.76-0.32,2.51c0.69,0.79,1.92,1.18,2.88,0.61
				c0.58-0.34,1.17-0.64,1.79-0.9c-0.15,0.06-0.3,0.13-0.45,0.19c1.14-0.48,2.32-0.81,3.54-1c-0.17,0.03-0.33,0.05-0.5,0.08
				c0.21-0.03,0.42-0.06,0.63-0.08c0.49-0.06,0.97-0.18,1.32-0.56c0.31-0.34,0.47-0.88,0.37-1.33
				C268.76,332.4,267.69,331.5,266.62,331.62L266.62,331.62z"/>
		</g>
	</g>
	<g>
		<g>
			<path class="st3" d="M342.38,349.84c-1.04-0.4-2.15-0.5-3.25-0.48c-0.92,0.02-1.86,0.2-2.71,0.56c-0.41,0.17-0.83,0.36-1.04,0.78
				c-0.17,0.35-0.13,0.82,0.11,1.13c0.29,0.38,0.73,0.66,1.19,0.78c0.5,0.13,1.14,0.2,1.63,0c0.37-0.16,0.75-0.27,1.15-0.35
				c-0.17,0.03-0.34,0.07-0.51,0.1c0.35-0.07,0.7-0.1,1.05-0.11c-0.19,0-0.37,0-0.56,0c0.38,0,0.75,0.03,1.12,0.1
				c-0.18-0.03-0.37-0.07-0.55-0.1c0.35,0.07,0.68,0.16,1.01,0.29c0.46,0.17,1.17,0.14,1.63,0c0.37-0.12,0.88-0.39,1.04-0.78
				c0.16-0.38,0.14-0.8-0.11-1.13C343.27,350.21,342.85,350.02,342.38,349.84L342.38,349.84z"/>
		</g>
	</g>
	<g>
		<g>
			<path class="st3" d="M269.99,292.14c-1.4-0.18-2.86,0.01-4.19,0.49c-1.12,0.41-2.08,1.1-2.87,1.98
				c-0.22,0.25-0.04,0.66,0.14,0.85c0.28,0.31,0.81,0.52,1.21,0.61c0.88,0.19,2,0.19,2.64-0.53c0.05-0.06,0.1-0.11,0.16-0.17
				c-0.08,0.08-0.16,0.16-0.23,0.24c0.39-0.4,0.84-0.74,1.34-1.02c-0.12,0.06-0.23,0.13-0.35,0.19c0.25-0.13,0.5-0.25,0.77-0.35
				c0.07-0.03,0.14-0.05,0.22-0.08c0.26-0.09-0.38,0.11-0.18,0.05c0.14-0.04,0.27-0.07,0.41-0.1c0.06-0.01,0.13-0.02,0.19-0.03
				c0.31-0.05-0.2,0.02-0.24,0.03c0.15-0.01,0.3-0.03,0.46-0.04c0.06,0,0.13,0,0.19,0c0.24,0-0.6-0.02-0.29,0
				c0.15,0.01,0.31,0.02,0.46,0.04c0.46,0.06,1.07,0,1.51-0.19c0.26-0.11,0.68-0.37,0.68-0.71
				C271.99,292.5,270.65,292.23,269.99,292.14L269.99,292.14z"/>
		</g>
	</g>
	<path class="st3" d="M373.61,346.97c-0.14-0.21-0.33-0.4-0.52-0.56c-0.04-0.04-0.09-0.07-0.13-0.1c-0.18-0.12-0.36-0.24-0.55-0.33
		c-0.2-0.1-0.41-0.16-0.61-0.24c-0.06-0.02-0.12-0.04-0.19-0.05c-0.29-0.06-0.59-0.13-0.89-0.14c-0.29-0.01-0.6-0.02-0.89,0.02
		c-0.28,0.04-0.57,0.08-0.84,0.18c-0.25,0.09-0.52,0.18-0.75,0.32c-0.21,0.13-0.43,0.28-0.62,0.45c-0.39,0.38-0.6,0.8-0.7,1.33
		c-0.07,0.38,0.26,0.81,0.53,1.02c0.2,0.16,0.41,0.27,0.65,0.34c0.25,0.11,0.52,0.17,0.8,0.19c0.5,0.03,1.07,0,1.52-0.27
		c0.12-0.08,0.23-0.17,0.35-0.25c0.2-0.18,0.31-0.4,0.35-0.67c0.01-0.05,0.02-0.09,0.03-0.14c-0.04,0.12-0.07,0.24-0.11,0.36
		c0.05-0.14,0.11-0.27,0.2-0.39c-0.08,0.1-0.16,0.21-0.24,0.31c0.09-0.11,0.19-0.2,0.3-0.28c-0.12,0.08-0.23,0.17-0.35,0.25
		c0.11-0.07,0.22-0.14,0.35-0.19c-0.15,0.06-0.3,0.12-0.44,0.18c0.11-0.04,0.22-0.07,0.33-0.09c-0.17,0.03-0.34,0.06-0.51,0.09
		c0.11-0.02,0.23-0.03,0.34-0.03c-0.19,0-0.37,0-0.56,0c0.09,0,0.19,0.01,0.28,0.02c-0.18-0.03-0.37-0.07-0.55-0.1
		c0.09,0.02,0.18,0.04,0.27,0.07c-0.16-0.06-0.33-0.12-0.49-0.18c0.09,0.03,0.17,0.07,0.25,0.12c-0.14-0.08-0.27-0.17-0.41-0.25
		c0.08,0.05,0.15,0.11,0.22,0.17c-0.1-0.1-0.2-0.2-0.3-0.31c0.06,0.06,0.11,0.13,0.16,0.2c0.14,0.18,0.3,0.33,0.51,0.43
		c0.21,0.15,0.44,0.25,0.69,0.31c0.27,0.08,0.55,0.11,0.83,0.1c0.27,0.02,0.53-0.01,0.79-0.09c0.39-0.13,0.86-0.33,1.03-0.73
		c0.04-0.12,0.07-0.24,0.11-0.36C373.85,347.42,373.77,347.18,373.61,346.97L373.61,346.97z"/>
	<path class="st3" d="M710.79,379.92c-0.18-0.18-0.41-0.32-0.63-0.44c-0.05-0.03-0.1-0.05-0.15-0.07c-0.2-0.08-0.4-0.16-0.61-0.2
		c-0.21-0.05-0.44-0.07-0.65-0.1c-0.06-0.01-0.13-0.01-0.19-0.01c-0.3,0-0.6,0-0.9,0.06c-0.29,0.06-0.59,0.11-0.86,0.22
		c-0.26,0.1-0.54,0.21-0.78,0.36c-0.22,0.14-0.47,0.29-0.66,0.48c-0.18,0.17-0.36,0.36-0.5,0.58c-0.3,0.45-0.42,0.91-0.4,1.45
		c0.01,0.39,0.43,0.73,0.74,0.88c0.22,0.11,0.46,0.18,0.71,0.19c0.27,0.05,0.54,0.06,0.82,0.01c0.5-0.08,1.05-0.24,1.42-0.6
		c0.1-0.11,0.19-0.21,0.29-0.32c0.16-0.22,0.22-0.46,0.19-0.73c0-0.05,0-0.1,0-0.14c-0.01,0.12-0.02,0.25-0.03,0.37
		c0.01-0.15,0.05-0.29,0.11-0.43c-0.06,0.12-0.11,0.24-0.17,0.35c0.06-0.13,0.14-0.24,0.23-0.34c-0.1,0.11-0.19,0.21-0.29,0.32
		c0.09-0.1,0.19-0.18,0.3-0.26c-0.13,0.09-0.26,0.18-0.39,0.27c0.1-0.06,0.2-0.12,0.3-0.16c-0.16,0.07-0.32,0.14-0.48,0.2
		c0.11-0.04,0.21-0.08,0.33-0.11c-0.18,0.04-0.37,0.08-0.55,0.12c0.09-0.02,0.19-0.03,0.28-0.04c-0.19,0.01-0.37,0.02-0.56,0.03
		c0.09,0,0.19,0,0.28,0.01c-0.17-0.02-0.34-0.05-0.52-0.07c0.09,0.01,0.18,0.03,0.27,0.06c-0.15-0.05-0.3-0.1-0.45-0.16
		c0.09,0.03,0.17,0.07,0.25,0.12c-0.12-0.08-0.24-0.15-0.36-0.23c0.07,0.05,0.14,0.1,0.2,0.16c0.17,0.15,0.37,0.25,0.59,0.31
		c0.24,0.1,0.48,0.15,0.74,0.15c0.28,0.02,0.56-0.01,0.83-0.09c0.27-0.04,0.52-0.13,0.75-0.27c0.35-0.21,0.77-0.51,0.85-0.94
		c0.01-0.12,0.02-0.25,0.03-0.37C711.13,380.3,711,380.09,710.79,379.92L710.79,379.92z"/>
	<path class="st3" d="M421.38,347.74c-0.14-0.21-0.33-0.4-0.52-0.56c-0.04-0.04-0.09-0.07-0.13-0.1c-0.18-0.12-0.36-0.24-0.55-0.33
		c-0.2-0.1-0.41-0.16-0.61-0.24c-0.06-0.02-0.12-0.04-0.19-0.05c-0.29-0.06-0.59-0.13-0.89-0.14c-0.29-0.01-0.6-0.02-0.89,0.02
		c-0.28,0.04-0.57,0.08-0.84,0.18c-0.25,0.09-0.52,0.18-0.75,0.32c-0.21,0.13-0.43,0.28-0.62,0.45c-0.39,0.38-0.6,0.8-0.7,1.33
		c-0.07,0.38,0.26,0.81,0.53,1.02c0.19,0.16,0.41,0.27,0.65,0.34c0.25,0.11,0.52,0.17,0.8,0.19c0.5,0.03,1.07,0,1.52-0.27
		c0.12-0.08,0.23-0.17,0.35-0.25c0.2-0.18,0.31-0.4,0.35-0.67c0.01-0.05,0.02-0.09,0.03-0.14c-0.04,0.12-0.07,0.24-0.11,0.36
		c0.05-0.14,0.11-0.27,0.2-0.39c-0.08,0.1-0.16,0.21-0.24,0.31c0.09-0.11,0.19-0.2,0.3-0.28c-0.12,0.08-0.23,0.17-0.35,0.25
		c0.11-0.07,0.22-0.14,0.35-0.19c-0.15,0.06-0.3,0.12-0.44,0.18c0.11-0.04,0.22-0.07,0.33-0.09c-0.17,0.03-0.34,0.06-0.51,0.09
		c0.11-0.02,0.23-0.03,0.34-0.03c-0.19,0-0.37,0-0.56,0c0.09,0,0.19,0.01,0.28,0.02c-0.18-0.03-0.37-0.07-0.55-0.1
		c0.09,0.02,0.18,0.04,0.27,0.07c-0.16-0.06-0.33-0.12-0.49-0.18c0.09,0.03,0.17,0.07,0.25,0.12c-0.14-0.08-0.27-0.17-0.41-0.25
		c0.08,0.05,0.15,0.11,0.22,0.17c-0.1-0.1-0.2-0.2-0.3-0.31c0.06,0.06,0.11,0.13,0.16,0.2c0.14,0.18,0.3,0.33,0.51,0.43
		c0.21,0.15,0.44,0.25,0.69,0.31c0.27,0.08,0.55,0.11,0.83,0.1c0.27,0.02,0.53-0.01,0.79-0.09c0.39-0.13,0.86-0.33,1.03-0.73
		c0.04-0.12,0.07-0.24,0.11-0.36C421.62,348.19,421.55,347.95,421.38,347.74L421.38,347.74z"/>
	<path class="st3" d="M712.12,292.98c-0.33-0.11-0.66-0.23-1-0.32c-0.35-0.09-0.71-0.13-1.07-0.18c-0.57-0.08-1.12-0.07-1.69-0.04
		c-1.1,0.06-2.13,0.39-3.13,0.85c-0.34,0.16-0.65,0.59-0.67,0.96c-0.02,0.4,0.25,0.81,0.56,1.03c0.42,0.3,0.95,0.48,1.46,0.49
		c0.19-0.01,0.37-0.01,0.56-0.02c0.34-0.04,0.65-0.14,0.95-0.31c0.02-0.01,0.05-0.02,0.07-0.03c-0.15,0.07-0.29,0.13-0.44,0.2
		c0.35-0.15,0.7-0.27,1.07-0.36c-0.17,0.04-0.34,0.08-0.51,0.12c0.37-0.08,0.74-0.13,1.12-0.15c-0.19,0.01-0.37,0.01-0.56,0.02
		c0.35-0.01,0.7,0.01,1.05,0.06c-0.19-0.03-0.37-0.05-0.56-0.08c0.32,0.05,0.64,0.13,0.95,0.23c-0.16-0.06-0.33-0.11-0.49-0.17
		c0.02,0.01,0.05,0.02,0.07,0.02c0.54,0.18,1.03,0.3,1.61,0.23c0.42-0.06,1-0.24,1.29-0.58c0.25-0.29,0.43-0.68,0.27-1.07
		C712.88,293.48,712.52,293.12,712.12,292.98L712.12,292.98z"/>
	<path class="st3" d="M679.6,339.37c-2.59-0.57-5.37-0.47-7.88,0.39c-0.36,0.12-0.82,0.31-1,0.68c-0.16,0.32-0.08,0.7,0.16,0.95
		c0.66,0.69,1.97,0.89,2.85,0.59c0.48-0.16,0.96-0.27,1.45-0.4c-0.56,0.15-0.2,0.04-0.05,0.01c0.13-0.02,0.27-0.04,0.4-0.06
		c0.25-0.03,0.5-0.06,0.75-0.07c0.12-0.01,0.23-0.01,0.35-0.02c-0.66,0.04-0.26,0.01-0.1,0.01c0.27,0,0.54,0.01,0.81,0.04
		c0.12,0.01,0.23,0.02,0.34,0.03c0.43,0.04-0.53-0.09-0.1-0.01c0.27,0.05,0.53,0.09,0.79,0.15c0.51,0.11,1.12,0.11,1.62-0.04
		c0.33-0.1,0.85-0.33,1-0.68C681.37,340.06,680.3,339.52,679.6,339.37L679.6,339.37z"/>
	<path class="st3" d="M624.92,348.95c-0.15-0.21-0.35-0.39-0.54-0.54c-0.04-0.03-0.09-0.07-0.13-0.1c-0.18-0.11-0.37-0.23-0.56-0.31
		c-0.2-0.09-0.41-0.15-0.62-0.21c-0.06-0.02-0.12-0.04-0.19-0.05c-0.29-0.05-0.59-0.11-0.89-0.11c-0.29,0-0.6,0-0.89,0.06
		c-0.28,0.05-0.57,0.1-0.84,0.21c-0.25,0.1-0.51,0.2-0.74,0.35c-0.21,0.14-0.42,0.29-0.6,0.47c-0.37,0.39-0.58,0.82-0.66,1.35
		c-0.06,0.39,0.29,0.8,0.56,1c0.2,0.15,0.42,0.26,0.66,0.32c0.26,0.1,0.52,0.16,0.8,0.16c0.5,0.01,1.07-0.04,1.51-0.32
		c0.11-0.09,0.23-0.17,0.34-0.26c0.19-0.19,0.3-0.41,0.32-0.68c0.01-0.05,0.02-0.09,0.03-0.14c-0.03,0.12-0.06,0.24-0.09,0.36
		c0.04-0.14,0.1-0.28,0.19-0.4c-0.08,0.11-0.15,0.21-0.23,0.32c0.08-0.11,0.18-0.21,0.29-0.29c-0.11,0.09-0.23,0.17-0.34,0.26
		c0.11-0.08,0.22-0.14,0.34-0.2c-0.15,0.06-0.29,0.13-0.44,0.19c0.11-0.04,0.21-0.08,0.33-0.11c-0.17,0.04-0.34,0.07-0.51,0.11
		c0.11-0.02,0.23-0.04,0.34-0.04c-0.19,0.01-0.37,0.01-0.56,0.02c0.09,0,0.19,0,0.28,0.01c-0.19-0.03-0.37-0.05-0.56-0.08
		c0.09,0.01,0.18,0.03,0.27,0.06c-0.16-0.05-0.33-0.11-0.49-0.16c0.09,0.03,0.17,0.07,0.25,0.11c-0.14-0.08-0.28-0.16-0.41-0.24
		c0.08,0.05,0.15,0.1,0.22,0.16c-0.1-0.1-0.21-0.2-0.31-0.3c0.06,0.06,0.12,0.12,0.17,0.19c0.14,0.18,0.32,0.32,0.52,0.41
		c0.21,0.14,0.45,0.23,0.7,0.28c0.28,0.07,0.55,0.09,0.84,0.07c0.27,0.01,0.53-0.03,0.79-0.12c0.38-0.14,0.85-0.36,1.01-0.77
		c0.03-0.12,0.06-0.24,0.09-0.36C625.18,349.39,625.09,349.15,624.92,348.95L624.92,348.95z"/>
	<path class="st3" d="M507.93,348.88c-0.62-0.11-1.24-0.02-1.84,0.12c-0.14,0.03-0.28,0.08-0.42,0.13
		c-0.26,0.11-0.54,0.22-0.79,0.37c-0.35,0.22-0.69,0.48-0.95,0.81c-0.16,0.21-0.33,0.42-0.44,0.66c-0.12,0.24-0.18,0.5-0.25,0.76
		c-0.02,0.21,0.02,0.4,0.13,0.58c0.08,0.2,0.21,0.37,0.39,0.51c0.19,0.17,0.41,0.29,0.65,0.36c0.25,0.12,0.52,0.18,0.8,0.2
		c0.51,0.03,1.08-0.01,1.52-0.3c0.12-0.09,0.24-0.18,0.35-0.27c0.2-0.19,0.32-0.43,0.35-0.71c0.01-0.02,0.01-0.04,0.02-0.07
		c-0.04,0.13-0.07,0.25-0.11,0.38c0.07-0.23,0.18-0.44,0.32-0.63c-0.08,0.11-0.16,0.22-0.24,0.33c0.13-0.17,0.28-0.32,0.45-0.45
		c-0.12,0.09-0.24,0.18-0.35,0.27c0.15-0.12,0.32-0.21,0.5-0.29c-0.15,0.06-0.3,0.13-0.44,0.19c0.14-0.06,0.27-0.1,0.42-0.13
		c-0.17,0.03-0.34,0.07-0.51,0.1c0.13-0.03,0.27-0.04,0.4-0.04c-0.19,0-0.37,0-0.56,0c0.12,0,0.25,0.01,0.37,0.03
		c0.28,0.03,0.55,0.02,0.82-0.05c0.25-0.03,0.48-0.11,0.7-0.24c0.2-0.1,0.36-0.24,0.47-0.43c0.14-0.15,0.22-0.33,0.23-0.54
		c0.01-0.43-0.19-0.82-0.52-1.08c-0.13-0.09-0.27-0.18-0.4-0.26C508.65,349.01,508.3,348.91,507.93,348.88L507.93,348.88z"/>
	<path class="st3" d="M512.16,335.01c-0.23-0.1-0.5-0.15-0.74-0.19c-0.05-0.01-0.11-0.01-0.16-0.01c-0.21,0-0.43-0.01-0.64,0.02
		c-0.22,0.03-0.43,0.08-0.64,0.14c-0.06,0.02-0.13,0.03-0.19,0.06c-0.28,0.1-0.57,0.21-0.82,0.37c-0.25,0.15-0.51,0.31-0.73,0.5
		c-0.21,0.19-0.44,0.38-0.61,0.61c-0.16,0.21-0.34,0.44-0.45,0.68c-0.11,0.23-0.21,0.47-0.27,0.71c-0.12,0.53-0.07,1,0.13,1.5
		c0.15,0.36,0.66,0.54,1,0.57c0.25,0.03,0.49,0,0.73-0.07c0.27-0.04,0.53-0.14,0.77-0.27c0.44-0.25,0.9-0.59,1.13-1.05
		c0.05-0.13,0.11-0.27,0.16-0.4c0.07-0.26,0.05-0.51-0.07-0.75c-0.02-0.04-0.03-0.09-0.05-0.14c0.03,0.12,0.07,0.24,0.1,0.36
		c-0.04-0.14-0.05-0.29-0.04-0.44c-0.01,0.13-0.02,0.26-0.03,0.39c0.01-0.14,0.05-0.27,0.1-0.4c-0.05,0.13-0.11,0.27-0.16,0.4
		c0.05-0.12,0.12-0.24,0.19-0.34c-0.09,0.13-0.18,0.26-0.28,0.39c0.07-0.09,0.14-0.18,0.23-0.26c-0.13,0.12-0.25,0.24-0.38,0.36
		c0.08-0.08,0.17-0.15,0.27-0.21c-0.16,0.1-0.31,0.2-0.47,0.3c0.08-0.05,0.16-0.1,0.25-0.13c-0.17,0.07-0.34,0.15-0.52,0.22
		c0.09-0.04,0.17-0.07,0.26-0.09c-0.17,0.04-0.34,0.07-0.51,0.11c0.09-0.02,0.18-0.03,0.27-0.03c-0.16,0-0.32,0.01-0.48,0.01
		c0.09,0,0.18,0.01,0.27,0.03c-0.14-0.03-0.28-0.06-0.42-0.09c0.08,0.02,0.16,0.05,0.24,0.08c0.21,0.08,0.43,0.11,0.66,0.09
		c0.25,0.01,0.5-0.03,0.75-0.12c0.27-0.08,0.52-0.2,0.75-0.37c0.23-0.13,0.44-0.3,0.61-0.51c0.26-0.32,0.54-0.75,0.47-1.18
		c-0.03-0.12-0.07-0.24-0.1-0.36C512.61,335.26,512.41,335.1,512.16,335.01L512.16,335.01z"/>
	<path class="st1" d="M250.89,222.37c-1.96,2.01-1.83,6.94,0.17,8.76c1.68,1.53,2.73,1.6,4.15,1.76l0.34,0.02
		c0.72,0,1.44-0.11,2.15-0.32c0.98-0.29,2-0.77,2.67-1.58l5.35-5.77c1.2-1.35,1.79-2.95,1.71-4.62c-0.1-2.07-0.98-3.35-1.69-4.07
		c-1.72-1.72-3.54-1.99-4.74-1.96c-1.71,0.08-3.16,0.77-4.04,1.8C256.96,216.39,252.85,220.36,250.89,222.37z"/>
	<path class="st2" d="M255.38,231.59l0.26,0.01c0.5,0,1.09-0.09,1.66-0.26c0.68-0.2,1.59-0.56,2.1-1.17l5.32-5.81
		c0.91-1.02,1.38-2.28,1.32-3.57c-0.08-1.62-0.74-2.6-1.28-3.14c-1.07-1.07-2.34-1.6-3.72-1.55c-1.25,0.06-2.35,0.54-3.01,1.31
		c0,0-4.43,4.28-6.05,5.94s-1.04,5.85,0.21,6.96C253.44,231.41,254.49,231.48,255.38,231.59z"/>
	<path class="st1" d="M397.25,183.83c0.13-4-1.87-7.32-5.49-9.1c-8.72-4.28-23.02,7.65-55.47,46.97
		c-13.97,16.92-20.53,25.56-30.53,37.26c-5.53,6.47-12.59,10.24-13.2,9.52c-0.32-0.38,3.05-3.15,4.62-4.87
		c1.18-1.29,2.12-2.5,2.85-3.84c0.76-1.4,1.39-2.85,1.77-4.35c0.42-1.67,0.4-3.55-0.08-5.71c-0.43-1.62-1.09-3.13-1.96-4.49
		c-0.97-1.5-4.26-4.95-6.09-6.33c1.89-3.45,1.75-5.48,1.09-9.19c-0.8-3.98-2.94-6.9-6.19-8.44c-2.97-1.4-5.97-1.88-8.96-1.45
		c-1.47,0.23-2.87,0.69-4.16,1.36c-1.47,0.77-2.67,1.87-3.44,3.09c-1.06,1.41-1.77,3.04-2.12,4.85c-0.33,1.69-0.38,3.37-0.16,5.01
		c0.23,1.72,0.47,3,1.33,4.43c0.94,1.56,2.78,2.95,3.93,3.81c-2.08,1.76-4.53,3.63-7.32,5.57c-1.53,1.07-21.38,13.25-23.29,14.23
		c-2.27,1.17-9.49,5.91-11.05,4.46c-1.56-1.45,4.24-8.73,6.42-11.4c2.09-2.55,2.4-2.78,4.01-4.82c1.64-2.08,3.01-3.79,4.12-5.12
		c0.83-0.99,1.38-1.65,1.74-2.18c1.18-1.21,1.69-2.8,1.44-4.51c-0.21-1.48-0.82-2.8-1.81-3.94l-0.27-0.27
		c-1.29-1.13-2.9-1.65-4.65-1.49c-1.77,0.16-3.23,0.99-4.24,2.41c-0.31,0.35-0.91,1.03-1.79,2.05c-1.19,1.37-0.59,0.84-2.37,3.07
		c-1.78,2.24-3.71,4.81-5.74,7.65c-2.07,2.9-4,5.89-5.68,8.82c-0.5,0.79-1.11,1.93-1.88,3.46c-0.8,1.59-1.45,3.3-1.94,5.08
		c-0.54,1.92-0.73,3.9-0.56,5.89c0.19,2.41,1.26,4.47,3.17,6.12c1.06,0.93,2.21,1.55,3.42,1.83c0.97,0.23,2.05,0.34,3.27,0.34
		c2.21,0,4.66-0.49,7.29-1.45c9.39-3.43,29.99-14.91,37.42-20.13c3.99-2.8,10.77-8.25,10.77-8.25s2.9,1.22,3.37,2.62
		c0.47,1.41,0.18,2.15-0.37,2.92c-1.53,2.17-2.29,2.69-4.4,5.36c-2.22,2.81-3.78,5.41-4.95,7.6c-1.92,3.62-1.36,6.52-0.55,8.32
		l0.14,0.27c1.17,1.98,3.63,4.34,8.74,4.34c2.4,0,6.09-0.64,9.09-1.79c2.75-1.06,5-2.2,7.85-3.86c7.06-4.11,17.59-16.52,28-30.04
		c1.55,4.38,5.06,8.22,9.84,10.73c-4.31,7.2-9.23,16.45-1.14,21.81c3.23,2.14,7.42,3.23,12.46,3.23c11.39,0,23.61-5.44,25.94-6.54
		c3.15-1.47,4.52-5.23,3.05-8.38c-1.46-3.15-5.3-4.68-8.38-3.06c-6.45,3.4-24.34,7.04-24.34,4.6c0-0.98,2.82-4.51,4.09-6.61
		c0.39-0.64,0.78-1.29,1.18-1.95c0.07,0,0.14,0,0.21,0c12.87,0,22.44-8.33,24.39-21.23c1.03-6.81-1.11-13.01-6.19-17.92
		c-1.14-1.11-2.44-2.14-3.86-3.09C378.93,209.72,396.91,194.08,397.25,183.83z M348.35,245.21c-2.27-1.11-4.18-2.72-4.18-4.23
		c0-1.51,3.71-3.52,4.99-2.38C350.44,239.74,349.71,242,348.35,245.21z M367.2,236.27c-0.65,4.3-2.52,7.31-5.57,8.98
		c1.43-5.75,0.55-10.54-2.65-14.59c-1.05-1.33-2.34-2.39-3.81-3.17c0.96-0.55,2.13-1.31,3.17-2.01c1.87,0.68,4.75,2.01,6.82,4.26
		C366.93,231.67,367.58,233.74,367.2,236.27z"/>
	<path class="st1" d="M486.8,237.82c0.81-1.61,0.89-3.34,0.23-4.99c-0.63-1.56-1.82-2.78-3.26-3.42c-1.57-0.87-3.32-0.96-4.92-0.25
		c-1.45,0.64-2.67,1.79-3.41,3.41c-0.99,2.16-1.61,4.3-2.07,6.39c-0.72-0.54-1.57-0.93-2.5-1.15c-1.7-0.4-3.37-0.1-4.8,0.85
		c0,0-17.47,11.91-26.17,17.93c-9.06,6.27-18.11,13.9-20.87,11.82c-1.82-1.37,3.1-6.42,4.38-8.02c1.75-2.19,10.48-12.76,12.31-14.94
		c1.87-2.22,3.55-4.18,5.04-5.9c1.48-1.7,3.16-3.57,5.15-5.75c1.02-1.27,1.52-2.79,1.45-4.4c-0.07-1.75-0.84-3.26-2.08-4.26
		c-2.59-2.37-6.38-2.25-8.84,0.41c-2.06,2.34-3.91,4.44-5.54,6.3c-1.63,1.87-3.48,4.03-5.55,6.46c-2.08,2.45-3.99,4.9-6.12,7.44
		c-4.66,5.56-10.84,13.88-15.11,17.17c-5.22,4.02-11.77,7.78-15.47,6.21c-3.42-1.45,0.41-5.78,1.03-6.48
		c0.91-1.16,5.65-5.98,7.1-7.34c2.96-3.13,5.54-5.97,7.68-8.43c2.17-2.49,3.95-4.72,5.29-6.61c1.53-2.16,2.47-4.07,2.87-5.85
		c0.46-2.03,0.22-3.99-0.74-5.93c-0.82-1.5-1.9-2.59-3.23-3.25c-1.07-0.53-2.21-0.9-3.39-1.07c-1.13-0.17-2.23-0.31-3.29-0.19
		c-0.66,0.07-0.64,0.07-1.94,0.27c-1.67,0.31-3.08,1.16-4.08,2.47c-1.07,1.4-1.46,3.07-1.14,4.83c0.31,1.71,1.2,3.12,2.55,4.08
		c0.02,0.01,0.04,0.03,0.06,0.04c-0.86,1-1.79,2.07-2.81,3.2c-1.2,1.33-2.42,2.67-3.67,4l-10.79,11.6
		c-3.66,4.03-14.78,16.31-7.72,23.89c4.54,5.3,16.41,4.45,23.91,1.76c1.87-0.67,3.72-1.5,5.5-2.46c1.74-0.94,4.72-2.8,4.98-2.99
		c1.95,3.91,4.01,6.52,9.94,6.55c2.25,0.01,4.24-0.44,6.77-1.3c8.53-2.91,16.73-8.3,25.44-14.97c-0.28,1.74-0.41,3.44-0.17,5.05
		c0.34,2.3,1.24,4.34,2.68,6.05c0.87,1.3,2.16,2.44,3.91,3.49c1.83,1.09,4.17,1.72,7.36,1.94h1.08c6.04,0,11.01-1.91,14.77-5.67
		c4.85-4.85,7.21-11.78,7.01-20.55c0-0.77-0.47-8.7-0.34-11.08C485.39,242.06,485.93,239.87,486.8,237.82z M469.71,266.97
		c-1.4,1.52-3.55,2.19-6.44,2.06c-1-0.09-1.51-0.24-1.72-0.32l-0.18-0.21c-0.23-0.26-0.25-0.43-0.25-0.58
		c0-0.67,0.06-1.25,0.22-1.92c0.29-1.61,0.06-3.15-0.68-4.57c-0.6-1.14-1.49-2-2.61-2.52l14.63-9.63c0,1.05,0.19,6.38,0.19,6.38
		C473.11,260.9,472.08,264.66,469.71,266.97z"/>
	<path class="st2" d="M272.4,246.16c-2.26,1.76-9.66,6.85-14.11,9.52l-5.17,3.06c-4.29,2.56-18.63,11.86-20.89,9.14
		c-2.26-2.72,4.38-11.28,6.54-13.77c2.2-2.55,1.9-2.65,3.65-4.61c1.77-1.99,3.27-3.69,4.39-5.03c0.79-0.94,1.31-1.57,1.65-2.07
		c1.03-1.1,1.4-2.25,1.22-3.53c-0.17-1.21-0.67-2.29-1.48-3.21l-0.2-0.2c-0.93-0.81-2.18-1.21-3.53-1.08
		c-1.37,0.12-2.46,0.74-3.23,1.82c-0.41,0.47-1,1.15-1.87,2.15c-1.18,1.36-0.57,0.81-2.34,3.03c-1.76,2.21-3.67,4.76-5.69,7.59
		c-2.05,2.88-3.94,5.8-5.6,8.7c-0.5,0.81-1.1,1.9-1.84,3.39c-0.76,1.51-1.38,3.13-1.85,4.83c-0.49,1.76-0.67,3.58-0.52,5.4
		c0.16,2.03,1.07,3.78,2.69,5.18c0.9,0.78,1.84,1.29,2.82,1.52c2.46,0.59,5.93,0.34,9.75-1.06c0.71-0.26,1.41-0.49,2.12-0.72
		c1.75-0.58,9.13-4.18,12.53-5.87c3.6-1.8,19.39-11.24,21.75-12.87c2.36-1.63,7.1-5.02,10.09-7.83L272.4,246.16z"/>
	<path class="st2" d="M474.08,246.79c-0.03,1.42,0.01,2.59,0.01,2.59c0,1.03,0.19,6.38,0.19,6.38c0.25,5.65-0.91,9.69-3.57,12.28
		c-1.54,1.66-3.82,2.5-6.79,2.5c-0.23,0-0.47,0-0.71-0.02c-1.18-0.1-1.82-0.28-2.17-0.42l-0.32-0.12l-0.22-0.25
		c-0.59-0.67-0.78-1.15-0.78-1.71c0-0.81,0.08-1.5,0.26-2.25c0.22-1.22,0.26-2.62-0.34-3.75c-0.46-0.87-1.83-2.38-3.73-2.89
		c-1.51-0.41-3.36,0.12-4.11,1.03s-0.84,1.4-1.11,2.41s-0.49,2.71-0.49,2.71c-0.25,1.6-0.22,3.16,0,4.63
		c0.3,2.04,1.1,3.84,2.36,5.36c0.85,1.25,1.98,2.25,3.55,3.18c1.66,0.99,3.81,1.55,6.74,1.75l0.98,0c5.65,0,10.29-1.77,13.78-5.26
		c4.57-4.57,6.79-11.14,6.6-19.53c0-0.68-0.47-8.76-0.34-11.19c0.12-2.25,0.69-4.62,1.63-6.84l0.04-0.08
		c0.63-1.26,0.69-2.56,0.18-3.85c-0.48-1.18-1.4-2.15-2.53-2.66c-1.3-0.72-2.57-0.78-3.77-0.24c-1.13,0.5-2.17,1.41-2.76,2.71
		c-0.95,2.06-1.47,3.61-1.92,6.11S474.11,245.37,474.08,246.79z M403.74,264.95c-5.15,3.61-14.2,8.2-16.73,4.81
		c-2.81-3.78,1.01-7.22,1.63-7.93c0.9-1.15,5.74-6.07,7.19-7.44c2.9-3.07,5.47-5.89,7.58-8.32c2.13-2.45,3.88-4.64,5.2-6.51
		c1.42-2.01,2.29-3.75,2.64-5.34c0.39-1.73,0.18-3.36-0.63-5c-0.65-1.2-1.53-2.09-2.6-2.62c-0.94-0.47-1.94-0.78-2.97-0.94
		c-1.01-0.15-1.99-0.29-2.93-0.19c-0.72,0.08-0.7,0.08-1.97,0.28c-1.19,0.22-2.3,0.89-3.09,1.92c-0.84,1.09-1.44,2.61-0.57,4.1
		c0.62,1.05,5.22,1.11,5.22,1.11l-3.23,3.8c-0.86,1.01-1.81,2.08-2.83,3.22c-1.21,1.34-2.44,2.68-3.68,4.02l-10.79,11.6
		c-3.43,3.79-13.91,15.34-7.72,21.98c4.23,4.93,15.59,3.84,22.41,1.39c1.8-0.64,3.59-1.44,5.31-2.37c1.23-0.67,2.42-1.37,3.55-2.09
		C404.5,270.43,404.53,269.24,403.74,264.95z M407.54,272.3c0.37,2.47,1.39,4.32,3.38,5.86c3.14,2.42,7.01,2.27,12.17,0.53
		c9.82-3.31,22.83-13.03,26.19-15.29c0,0,0.55-3.11,2.14-4.7c3.21-3.21,6.45-2.48,8.08-2.14l10.91-7.08c0,0,0.78-6.3,1.4-9.75
		c-0.4-0.2-0.82-0.36-1.28-0.47c-1.31-0.31-2.59-0.08-3.7,0.66c-0.58,0.47-17.75,11.63-26.41,17.83
		c-9.42,6.75-19.11,13.86-21.92,12.1c-2.81-1.76,0.4-5.92,0.4-5.92c0.99-1.28,2.12-2.73,3.41-4.34
		c1.78-2.22,10.49-12.78,12.34-14.97c1.87-2.22,3.56-4.2,5.06-5.92c1.49-1.71,3.17-3.59,5.18-5.78c0.74-0.93,1.14-2.13,1.08-3.39
		c-0.06-1.32-0.61-2.46-1.56-3.22c-2.13-1.95-5.01-1.81-6.93,0.27c-2.04,2.31-3.88,4.41-5.51,6.28c-1.63,1.87-3.48,4.02-5.54,6.44
		c-2.06,2.43-3.98,4.94-6.13,7.45c-2.96,3.38-6.87,8.09-10.13,12.19C407.12,262.82,407.17,269.83,407.54,272.3z"/>
	<g>
		<g>
			<path class="st3" d="M260.74,221.91c0.02-0.16,0.05-0.31,0.11-0.46c-0.04,0.11-0.09,0.22-0.13,0.33c0.1-0.23,0.24-0.44,0.41-0.62
				c-0.08,0.08-0.15,0.16-0.23,0.23c0.22-0.22,0.49-0.39,0.78-0.49c-0.1,0.04-0.21,0.07-0.31,0.11c0.23-0.08,0.46-0.11,0.7-0.09
				c-0.12-0.01-0.24-0.02-0.36-0.03c0.07,0.01,0.14,0.02,0.21,0.03c0.18,0.06,0.35,0.05,0.51-0.03c0.17-0.03,0.3-0.13,0.39-0.29
				c0.1-0.17,0.15-0.34,0.15-0.54c0.03-0.22,0.02-0.44-0.05-0.66c-0.14-0.52-0.39-1.04-0.76-1.44c-0.3-0.33-0.68-0.68-1.14-0.77
				c-0.36-0.07-0.76-0.1-1.12-0.01c-0.35,0.09-0.7,0.22-1,0.44c-0.29,0.21-0.56,0.49-0.75,0.79c-0.12,0.2-0.21,0.43-0.29,0.65
				c-0.05,0.13-0.08,0.27-0.09,0.41c-0.05,0.21-0.05,0.43,0,0.64c0.02,0.25,0.09,0.49,0.2,0.72c0.11,0.26,0.25,0.5,0.43,0.72
				c0.15,0.22,0.32,0.42,0.54,0.59c0.13,0.09,0.26,0.17,0.39,0.26c0.23,0.13,0.47,0.19,0.74,0.18c0.1-0.04,0.21-0.07,0.31-0.11
				C260.57,222.33,260.69,222.14,260.74,221.91L260.74,221.91z"/>
		</g>
	</g>
	<path class="st2" d="M354.3,257.94c1.98-3.3,3.67-6.49,5.15-10.34c1.99-5.56,2.32-11.18-1.56-16.08c-2.15-2.73-5.43-4.15-9.1-4.15
		c-0.99,0-2.02,0.1-3.05,0.32c-2.55,0.45-7.72,1.45-10.07,4.33c-2.8,3.43-2.97,6.59-2.58,10.57c0.72,4.4,3.62,9.32,8.64,11.78
		c0,0,1.89-1.99,3.25-4.25s1.8-4.17,1.8-4.17c-2.73-1.35-3.91-2.95-4.1-4.85c-0.25-2.39,5.33-5.38,7.52-3.48
		c2.19,1.89,0.7,5.57-1.12,9.42c-1.04,2.56-2.86,5.29-4.84,8.64c-4.4,7.29-9.78,16.32-2.35,21.23c3.3,2.19,7.41,2.99,11.68,2.99
		c4.75,0,9.7-1,13.96-2.21c1.39-3.38,2.13-5.87,3.05-11.44c-7.79,2.7-20.26,5.57-21.84,2.89c-1.19-2.02,2.35-5.84,3.98-8.54
		C353.23,259.73,353.76,258.85,354.3,257.94z"/>
	<path class="st2" d="M371.23,214.02c11.55-9.49,24.36-22.11,24.62-30.26c0.11-3.43-1.6-6.27-4.71-7.79
		c-8.87-4.35-25.24,11.38-53.89,46.56c-13.86,17.01-20.93,25.99-30.42,37.4c-6.24,7.51-14.8,10.95-16.06,9.85
		c-0.98-0.86,3.11-4.61,5.21-6.85c1.14-1.22,2.13-2.54,2.84-3.77c0.73-1.27,1.28-2.61,1.63-3.99c0.37-1.48,0.34-3.14-0.09-5.06
		c-0.38-1.42-0.98-2.8-1.78-4.04c-0.83-1.29-2.4-3.18-3.44-4.22c-0.78-0.52-3.12-2.49-3.12-2.49s-7.99-7.09-7.74-7.85
		c0.02-0.07,1.15-1.6,1.6-1.41c0.45,0.2,0.23,2.12,0.93,2.48c2.68,1.36,6.53,3.46,6.59,3.18c0.4-1.83,0.35-3.67-0.01-5.72
		c-0.7-3.5-2.57-6.08-5.41-7.42c-2.7-1.28-5.46-1.72-8.16-1.33c-1.31,0.2-2.56,0.61-3.72,1.22c-1.22,0.63-2.25,1.56-2.9,2.6
		c-1,1.34-1.63,2.78-1.94,4.37c-0.3,1.53-0.34,3.07-0.15,4.55c0.21,1.54,0.7,2.96,1.46,4.23c0.79,1.32,1.59,1.84,3.05,2.95
		c1.45,1.11,5.33,3.88,8.88,6.28c3.55,2.39,4.7,2.54,5.54,4.55c0.84,2.02-0.03,3.21-0.85,4.22c-1.7,2.11-2.13,2.74-4.12,5.19
		c-2.22,2.73-3.58,5.46-4.72,7.6c-1.66,3.11-1.19,5.57-0.51,7.09l0.11,0.2c0.95,1.88,3.16,3.09,7.5,3.59
		c2.8,0.32,10.67-1.92,16.36-5.55c7.26-4.63,18.6-18.79,28.11-30.44c0,0-0.88-4.57-0.11-7.89c0.78-3.32,3.75-6.75,7.95-8.34
		c1.95-0.74,3.77-1.02,4.97-1.24c-0.42-1.23-1-1.19-1.37-4.4c-0.32-2.76,1.84-6.23,3.19-7.04c1.84-1.12,3.82-2.13,8.07-2.44
		c3.6-1.78,11.97-8.36,14.94-12.76c8.67-10.16,12.86-15.85,15.32-13.74c2.71,2.32-5.55,7.81-15,16.2c-2.93,2.6-5.85,5.03-8.53,7.16
		c-0.61,0.49-1.2,0.92-1.77,1.31C363.8,211.73,367.64,212.77,371.23,214.02z"/>
	<path class="st2" d="M367.46,217.13c-4.63-3.04-7.22-4.85-14.92-3.16l-1.92,0.42c-2.46,0.71-4.04,1.59-5.26,4.58
		c-0.65,1.59-0.56,2.83-0.13,3.94c0,0,3.55-0.29,6.87,0.85c3.32,1.13,3.61,1.77,3.61,1.77c0.8-0.49,1.29-0.82,2.43-1.6
		c2.58,0.85,5.79,2.41,8.06,4.86c2.06,2.23,2.84,4.74,2.4,7.68c-0.82,5.45-3.41,8.39-6.22,9.96c-1,4.63-1.41,6.43-3.12,11.25
		c10.11-1.52,17.41-8.92,19.04-19.74c0.96-6.34-1.04-12.12-5.78-16.71C370.91,219.68,370.56,219.16,367.46,217.13z"/>
	<g>
		<g>
			<path class="st3" d="M284.08,222.8c-1.4-0.18-2.86,0.01-4.19,0.49c-1.12,0.41-2.08,1.1-2.87,1.98c-0.22,0.25-0.04,0.66,0.14,0.85
				c0.28,0.31,0.81,0.52,1.21,0.61c0.88,0.19,2,0.19,2.64-0.53c0.05-0.06,0.1-0.11,0.16-0.17c-0.08,0.08-0.16,0.16-0.23,0.24
				c0.39-0.4,0.84-0.74,1.34-1.02c-0.12,0.06-0.23,0.13-0.35,0.19c0.25-0.13,0.5-0.25,0.77-0.35c0.07-0.03,0.14-0.05,0.22-0.08
				c0.26-0.09-0.38,0.11-0.18,0.05c0.14-0.04,0.27-0.07,0.41-0.1c0.06-0.01,0.13-0.02,0.19-0.03c0.31-0.05-0.2,0.02-0.24,0.03
				c0.15-0.01,0.3-0.03,0.46-0.04c0.06,0,0.13,0,0.19,0c0.24,0-0.6-0.02-0.29,0c0.15,0.01,0.31,0.02,0.46,0.04
				c0.46,0.06,1.07,0,1.51-0.19c0.26-0.11,0.68-0.37,0.68-0.71C286.08,223.16,284.74,222.89,284.08,222.8L284.08,222.8z"/>
		</g>
	</g>
	<path class="st3" d="M362.1,215.19c-1.49-0.93-7.11-1.23-9.32,0.33c-0.99,0.7-0.39,1.39-0.26,1.62c0.15,0.25,0.69,0.41,0.93,0.47
		c0.52,0.14,1.07,0.22,1.61,0.21c0.43-0.01,0.88-0.02,1.28-0.19c0.24-0.1,0.49-0.19,0.74-0.28c0.27-0.1-0.21,0.05,0.09-0.03
		c0.11-0.03,0.22-0.06,0.33-0.09c0.11-0.03,0.22-0.05,0.33-0.07c0.05-0.01,0.51-0.1,0.23-0.05c-0.28,0.06,0.18-0.02,0.23-0.03
		c0.11-0.01,0.23-0.02,0.34-0.03c0.41-0.04-0.47,0-0.05,0c0.11,0,0.23,0,0.34,0c0.41,0-0.55-0.04-0.05,0
		c0.13,0.01,0.27,0.01,0.4,0.04c-0.11-0.01-0.22-0.03-0.33-0.04c0.07,0.01,0.15,0.02,0.22,0.03c0.11,0.02,0.22,0.05,0.33,0.06
		c-0.56-0.08-0.19-0.04-0.05-0.01c0.15,0.04,0.29,0.08,0.44,0.12c0.5,0.15,1.09,0.21,1.61,0.21c0.37,0,0.93-0.01,1.28-0.19
		C363.58,216.86,363.6,216.12,362.1,215.19z"/>
	<path class="st3" d="M390.72,178.06c-0.33-0.12-0.65-0.26-0.99-0.35c-0.35-0.1-0.71-0.16-1.07-0.22c-0.56-0.1-1.11-0.11-1.69-0.09
		c-1.1,0.02-2.15,0.32-3.15,0.74c-0.34,0.14-0.67,0.57-0.7,0.94c-0.03,0.4,0.22,0.81,0.53,1.05c0.41,0.31,0.93,0.51,1.45,0.54
		c0.19,0,0.37,0,0.56,0c0.34-0.03,0.66-0.12,0.96-0.28c0.02-0.01,0.05-0.02,0.07-0.03c-0.15,0.06-0.3,0.12-0.44,0.18
		c0.35-0.14,0.71-0.25,1.08-0.32c-0.17,0.03-0.34,0.07-0.51,0.1c0.37-0.07,0.75-0.11,1.12-0.11c-0.19,0-0.37,0-0.56,0
		c0.35,0,0.7,0.03,1.05,0.1c-0.18-0.03-0.37-0.07-0.55-0.1c0.32,0.06,0.64,0.15,0.94,0.26c-0.16-0.06-0.33-0.12-0.49-0.19
		c0.02,0.01,0.05,0.02,0.07,0.03c0.53,0.2,1.02,0.34,1.6,0.28c0.42-0.04,1.01-0.21,1.31-0.54c0.26-0.29,0.45-0.67,0.31-1.06
		C391.46,178.58,391.11,178.21,390.72,178.06L390.72,178.06z"/>
	<path class="st3" d="M350.49,229.97c-2.56-0.66-5.35-0.65-7.89,0.12c-0.37,0.11-0.83,0.28-1.03,0.65c-0.17,0.31-0.1,0.7,0.13,0.96
		c0.63,0.71,1.94,0.96,2.83,0.69c0.48-0.15,0.97-0.24,1.46-0.35c-0.57,0.13-0.2,0.03-0.05,0.01c0.13-0.02,0.27-0.03,0.4-0.04
		c0.25-0.02,0.5-0.04,0.75-0.04c0.12,0,0.23,0,0.35,0c-0.66,0.01-0.26,0-0.1,0.01c0.27,0.01,0.54,0.03,0.81,0.06
		c0.11,0.01,0.23,0.03,0.34,0.04c0.43,0.05-0.52-0.1-0.1-0.02c0.26,0.05,0.53,0.11,0.79,0.18c0.51,0.13,1.12,0.15,1.62,0.02
		c0.33-0.08,0.86-0.3,1.03-0.65C352.23,230.73,351.18,230.15,350.49,229.97L350.49,229.97z"/>
	<g>
		<g>
			<path class="st3" d="M406.88,228.42c-0.62-0.46-1.35-0.79-2.09-0.99c-0.11-0.03-0.22-0.05-0.33-0.07
				c-0.29-0.05-0.57-0.11-0.86-0.13c-0.41-0.03-0.84-0.04-1.25,0.01c-0.44,0.05-0.96,0.17-1.3,0.48c-0.26,0.23-0.44,0.63-0.3,0.98
				c0.16,0.39,0.51,0.69,0.9,0.86c0.49,0.21,1.06,0.33,1.6,0.27c0.14-0.02,0.28-0.02,0.42-0.02c-0.19,0-0.37,0-0.56,0
				c0.2,0,0.39,0.02,0.58,0.05c-0.18-0.03-0.37-0.06-0.55-0.09c0.21,0.04,0.41,0.09,0.61,0.16c-0.16-0.06-0.33-0.12-0.49-0.17
				c0.21,0.08,0.41,0.17,0.6,0.28c-0.14-0.08-0.27-0.16-0.41-0.24c0.11,0.06,0.21,0.13,0.31,0.21c0.41,0.3,0.95,0.46,1.45,0.51
				c0.28,0.03,0.55,0.02,0.82-0.04c0.24-0.02,0.48-0.09,0.7-0.21c0.31-0.18,0.69-0.45,0.69-0.86
				C407.42,228.99,407.2,228.66,406.88,228.42L406.88,228.42z"/>
		</g>
	</g>
	<g>
		<g>
			<path class="st3" d="M457.28,261.08c-0.32-0.21-0.77-0.35-1.14-0.44c-0.43-0.09-0.94-0.15-1.37-0.11
				c-0.43,0.03-0.79,0.09-1.19,0.23c-0.16,0.06-0.31,0.14-0.46,0.22c-0.05,0.03-0.1,0.05-0.14,0.08c-0.26,0.18-0.49,0.43-0.66,0.69
				c-0.12,0.2-0.22,0.42-0.31,0.64c-0.1,0.12-0.12,0.25-0.07,0.39c0.01,0.16,0.08,0.29,0.22,0.39c0.15,0.14,0.32,0.25,0.52,0.32
				c0.22,0.11,0.45,0.19,0.7,0.24c0.53,0.11,1.1,0.16,1.62,0.04c0.15-0.04,0.29-0.08,0.44-0.12c0.23-0.07,0.42-0.2,0.58-0.39
				c0.15-0.36,0.32-0.73,0.61-1.01c-0.08,0.07-0.15,0.14-0.23,0.22c0.08-0.08,0.17-0.14,0.28-0.19c-0.11,0.06-0.23,0.11-0.35,0.17
				c0.06-0.03,0.13-0.05,0.19-0.07c-0.15,0.04-0.29,0.08-0.44,0.12c0.05-0.01,0.1-0.02,0.15-0.03c-0.17,0.02-0.34,0.04-0.51,0.06
				c0.04,0,0.08-0.01,0.12-0.01c-0.19,0-0.37-0.01-0.56-0.01c0.03,0,0.07,0,0.1,0.01c-0.18-0.03-0.37-0.06-0.55-0.08
				c0.03,0.01,0.06,0.01,0.1,0.02c-0.16-0.05-0.33-0.1-0.49-0.14c0.04,0.01,0.08,0.03,0.12,0.04c-0.14-0.06-0.27-0.13-0.41-0.19
				c0.03,0.01,0.06,0.03,0.09,0.05c0.21,0.12,0.42,0.21,0.66,0.26c0.26,0.09,0.53,0.14,0.8,0.16c0.27,0.03,0.54,0.03,0.81-0.01
				c0.24-0.01,0.47-0.06,0.69-0.15c0.11-0.06,0.23-0.11,0.35-0.17c0.18-0.11,0.29-0.27,0.33-0.47c-0.02-0.09-0.03-0.18-0.05-0.27
				C457.66,261.35,457.49,261.19,457.28,261.08L457.28,261.08z"/>
		</g>
	</g>
	<path class="st3" d="M481.82,231.43c-0.62-0.11-1.24-0.02-1.84,0.12c-0.14,0.03-0.28,0.08-0.42,0.13
		c-0.26,0.11-0.54,0.22-0.79,0.37c-0.35,0.22-0.69,0.48-0.95,0.81c-0.16,0.21-0.33,0.42-0.44,0.66c-0.12,0.24-0.18,0.5-0.25,0.76
		c-0.02,0.21,0.02,0.4,0.13,0.58c0.08,0.2,0.21,0.37,0.39,0.51c0.19,0.17,0.41,0.29,0.65,0.36c0.25,0.12,0.52,0.18,0.8,0.2
		c0.51,0.03,1.08-0.01,1.52-0.3c0.12-0.09,0.24-0.18,0.35-0.27c0.2-0.19,0.32-0.43,0.35-0.71c0.01-0.02,0.01-0.04,0.02-0.07
		c-0.04,0.13-0.07,0.25-0.11,0.38c0.07-0.23,0.18-0.44,0.32-0.63c-0.08,0.11-0.16,0.22-0.24,0.33c0.13-0.17,0.28-0.32,0.45-0.45
		c-0.12,0.09-0.24,0.18-0.35,0.27c0.15-0.12,0.32-0.21,0.5-0.29c-0.15,0.06-0.3,0.13-0.44,0.19c0.14-0.06,0.27-0.1,0.42-0.13
		c-0.17,0.03-0.34,0.07-0.51,0.1c0.13-0.03,0.27-0.04,0.4-0.04c-0.19,0-0.37,0-0.56,0c0.12,0,0.25,0.01,0.37,0.03
		c0.28,0.03,0.55,0.02,0.82-0.05c0.25-0.03,0.48-0.11,0.7-0.24c0.2-0.1,0.36-0.24,0.47-0.43c0.14-0.15,0.22-0.33,0.23-0.54
		c0.01-0.43-0.19-0.82-0.52-1.08c-0.13-0.09-0.27-0.18-0.4-0.26C482.53,231.56,482.19,231.46,481.82,231.43L481.82,231.43z"/>
	<path class="st3" d="M443.6,228.69c-0.14-0.21-0.33-0.4-0.52-0.56c-0.04-0.04-0.09-0.07-0.13-0.1c-0.18-0.12-0.36-0.24-0.55-0.33
		c-0.2-0.1-0.41-0.16-0.61-0.24c-0.06-0.02-0.12-0.04-0.19-0.05c-0.29-0.06-0.59-0.13-0.89-0.14c-0.29-0.01-0.6-0.02-0.89,0.02
		c-0.28,0.04-0.57,0.08-0.84,0.18c-0.25,0.09-0.52,0.18-0.75,0.32c-0.21,0.13-0.43,0.28-0.62,0.45c-0.39,0.38-0.6,0.8-0.7,1.33
		c-0.07,0.38,0.26,0.81,0.53,1.02c0.2,0.16,0.41,0.27,0.65,0.34c0.25,0.11,0.52,0.17,0.8,0.19c0.5,0.03,1.07,0,1.52-0.27
		c0.12-0.08,0.23-0.17,0.35-0.25c0.2-0.18,0.31-0.4,0.35-0.67c0.01-0.05,0.02-0.09,0.03-0.14c-0.04,0.12-0.07,0.24-0.11,0.36
		c0.05-0.14,0.11-0.27,0.2-0.39c-0.08,0.1-0.16,0.21-0.24,0.31c0.09-0.11,0.19-0.2,0.3-0.28c-0.12,0.08-0.23,0.17-0.35,0.25
		c0.11-0.07,0.22-0.14,0.35-0.19c-0.15,0.06-0.3,0.12-0.44,0.18c0.11-0.04,0.22-0.07,0.33-0.09c-0.17,0.03-0.34,0.06-0.51,0.09
		c0.11-0.02,0.23-0.03,0.34-0.03c-0.19,0-0.37,0-0.56,0c0.09,0,0.19,0.01,0.28,0.02c-0.18-0.03-0.37-0.07-0.55-0.1
		c0.09,0.02,0.18,0.04,0.27,0.07c-0.16-0.06-0.33-0.12-0.49-0.18c0.09,0.03,0.17,0.07,0.25,0.12c-0.14-0.08-0.27-0.17-0.41-0.25
		c0.08,0.05,0.15,0.11,0.22,0.17c-0.1-0.1-0.2-0.2-0.3-0.31c0.06,0.06,0.11,0.13,0.16,0.2c0.14,0.18,0.3,0.33,0.51,0.43
		c0.21,0.15,0.44,0.25,0.69,0.31c0.27,0.08,0.55,0.11,0.83,0.1c0.27,0.02,0.53-0.01,0.79-0.09c0.39-0.13,0.86-0.33,1.03-0.73
		c0.04-0.12,0.07-0.24,0.11-0.36C443.84,229.14,443.77,228.9,443.6,228.69L443.6,228.69z"/>
	<path class="st3" d="M248.01,237.34c-0.14-0.21-0.33-0.4-0.52-0.56c-0.04-0.04-0.09-0.07-0.13-0.1c-0.18-0.12-0.36-0.24-0.55-0.33
		c-0.2-0.1-0.41-0.16-0.61-0.24c-0.06-0.02-0.12-0.04-0.19-0.05c-0.29-0.06-0.59-0.13-0.89-0.14c-0.29-0.01-0.6-0.02-0.89,0.02
		c-0.28,0.04-0.57,0.08-0.84,0.18c-0.25,0.09-0.52,0.18-0.75,0.32c-0.21,0.13-0.43,0.28-0.62,0.45c-0.39,0.38-0.6,0.8-0.7,1.33
		c-0.07,0.38,0.26,0.81,0.53,1.02c0.2,0.16,0.41,0.27,0.65,0.34c0.25,0.11,0.52,0.17,0.8,0.19c0.5,0.03,1.07,0,1.52-0.27
		c0.12-0.08,0.23-0.17,0.35-0.25c0.2-0.18,0.31-0.4,0.35-0.67c0.01-0.05,0.02-0.09,0.03-0.14c-0.04,0.12-0.07,0.24-0.11,0.36
		c0.05-0.14,0.11-0.27,0.2-0.39c-0.08,0.1-0.16,0.21-0.24,0.31c0.09-0.11,0.19-0.2,0.3-0.28c-0.12,0.08-0.23,0.17-0.35,0.25
		c0.11-0.07,0.22-0.14,0.35-0.19c-0.15,0.06-0.3,0.12-0.44,0.18c0.11-0.04,0.22-0.07,0.33-0.09c-0.17,0.03-0.34,0.06-0.51,0.09
		c0.11-0.02,0.23-0.03,0.34-0.03c-0.19,0-0.37,0-0.56,0c0.09,0,0.19,0.01,0.28,0.02c-0.18-0.03-0.37-0.07-0.55-0.1
		c0.09,0.02,0.18,0.04,0.27,0.07c-0.16-0.06-0.33-0.12-0.49-0.18c0.09,0.03,0.17,0.07,0.25,0.12c-0.14-0.08-0.27-0.17-0.41-0.25
		c0.08,0.05,0.15,0.11,0.22,0.17c-0.1-0.1-0.2-0.2-0.3-0.31c0.06,0.06,0.11,0.13,0.16,0.2c0.14,0.18,0.3,0.33,0.51,0.43
		c0.21,0.15,0.44,0.25,0.69,0.31c0.27,0.08,0.55,0.11,0.83,0.1c0.27,0.02,0.53-0.01,0.79-0.09c0.39-0.13,0.86-0.33,1.03-0.73
		c0.04-0.12,0.07-0.24,0.11-0.36C248.25,237.79,248.18,237.55,248.01,237.34L248.01,237.34z"/>
	<g>
		<g>
			<path class="st3" d="M298.46,247.96c-0.39-1.32-1.32-2.43-2.47-3.16c-0.28-0.18-0.75-0.17-1.05-0.11
				c-0.37,0.07-0.81,0.28-1.06,0.57c-0.21,0.23-0.44,0.55-0.4,0.89c0.03,0.33,0.19,0.55,0.47,0.73c0.11,0.07,0.21,0.14,0.31,0.21
				c-0.08-0.06-0.16-0.12-0.25-0.18c0.45,0.34,0.84,0.75,1.15,1.22c-0.05-0.08-0.11-0.17-0.16-0.25c0.26,0.4,0.46,0.84,0.6,1.29
				c0.08,0.29,0.46,0.48,0.72,0.55c0.35,0.08,0.81,0.02,1.14-0.13c0.34-0.16,0.7-0.38,0.89-0.72c0.05-0.1,0.09-0.2,0.14-0.3
				C298.54,248.35,298.53,248.15,298.46,247.96L298.46,247.96z"/>
		</g>
	</g>
</g>
</svg>
